Lexend-wght300.ufo
<glyph name="exclam" format="2">
  <advance width="248"/>
  <unicode hex="0021"/>
  <note>
exclam
</note>
  <outline>
    <contour>
      <point x="139" y="241" type="qcurve"/>
      <point x="115" y="241" type="line"/>
      <point x="104" y="335"/>
      <point x="99" y="542"/>
      <point x="99" y="630" type="qcurve"/>
      <point x="99" y="700" type="line"/>
      <point x="155" y="700" type="line"/>
      <point x="155" y="630" type="line" smooth="yes"/>
      <point x="155" y="537"/>
      <point x="150" y="328"/>
    </contour>
    <component base="period" xOffset="10"/>
  </outline>
</glyph>
<glyph name="quotedbl" format="2">
  <advance width="391"/>
  <unicode hex="0022"/>
  <note>
quotedbl
</note>
  <outline>
    <contour>
      <point x="50" y="442" type="line"/>
      <point x="83" y="700" type="line"/>
      <point x="153" y="700" type="line"/>
      <point x="81" y="442" type="line"/>
    </contour>
    <contour>
      <point x="248" y="442" type="line"/>
      <point x="281" y="700" type="line"/>
      <point x="351" y="700" type="line"/>
      <point x="279" y="442" type="line"/>
    </contour>
  </outline>
</glyph>
<glyph name="numbersign" format="2">
  <advance width="684"/>
  <unicode hex="0023"/>
  <note>
numbersign
</note>
  <outline>
    <contour>
      <point x="646" y="466" type="line"/>
      <point x="76" y="466" type="line"/>
      <point x="76" y="512" type="line"/>
      <point x="646" y="512" type="line"/>
    </contour>
    <contour>
      <point x="609" y="190" type="line"/>
      <point x="38" y="190" type="line"/>
      <point x="38" y="236" type="line"/>
      <point x="609" y="236" type="line"/>
    </contour>
    <contour>
      <point x="121" y="0" type="line"/>
      <point x="241" y="700" type="line"/>
      <point x="290" y="700" type="line"/>
      <point x="172" y="0" type="line"/>
    </contour>
    <contour>
      <point x="394" y="0" type="line"/>
      <point x="514" y="700" type="line"/>
      <point x="563" y="700" type="line"/>
      <point x="445" y="0" type="line"/>
    </contour>
  </outline>
</glyph>
<glyph name="dollar" format="2">
  <advance width="593"/>
  <unicode hex="0024"/>
  <note>
dollar
</note>
  <anchor x="323.0" y="0" name="bottom"/>
  <anchor x="323.0" y="700.0" name="top"/>
  <outline>
    <contour>
      <point x="287" y="363" type="line"/>
      <point x="336" y="330" type="line"/>
      <point x="336" y="-91" type="line"/>
      <point x="287" y="-91" type="line"/>
    </contour>
    <contour>
      <point x="336" y="330" type="line"/>
      <point x="287" y="363" type="line"/>
      <point x="287" y="782" type="line"/>
      <point x="336" y="782" type="line"/>
    </contour>
    <component base="S"/>
  </outline>
</glyph>
<glyph name="percent" format="2">
  <advance width="849"/>
  <unicode hex="0025"/>
  <note>
percent
</note>
  <outline>
    <contour>
      <point x="352" y="518" type="qcurve"/>
      <point x="352" y="438"/>
      <point x="264" y="329"/>
      <point x="198" y="329" type="qcurve"/>
      <point x="130" y="329"/>
      <point x="45" y="436"/>
      <point x="45" y="518" type="qcurve"/>
      <point x="45" y="601"/>
      <point x="131" y="709"/>
      <point x="199" y="709" type="qcurve"/>
      <point x="267" y="709"/>
      <point x="352" y="601"/>
    </contour>
    <contour>
      <point x="94" y="518" type="qcurve"/>
      <point x="94.0" y="451"/>
      <point x="149.0" y="375.0"/>
      <point x="199" y="375" type="qcurve"/>
      <point x="248.0" y="375.0"/>
      <point x="303.0" y="450"/>
      <point x="303" y="518" type="qcurve"/>
      <point x="303.0" y="587"/>
      <point x="248.0" y="663.0"/>
      <point x="198" y="663" type="qcurve"/>
      <point x="150.0" y="663.0"/>
      <point x="94.0" y="585"/>
    </contour>
    <contour>
      <point x="795" y="180" type="qcurve"/>
      <point x="795" y="100"/>
      <point x="707" y="-9"/>
      <point x="641" y="-9" type="qcurve"/>
      <point x="573" y="-9"/>
      <point x="488" y="98"/>
      <point x="488" y="180" type="qcurve"/>
      <point x="488" y="263"/>
      <point x="574" y="371"/>
      <point x="642" y="371" type="qcurve"/>
      <point x="710" y="371"/>
      <point x="795" y="263"/>
    </contour>
    <contour>
      <point x="537" y="180" type="qcurve"/>
      <point x="537.0" y="113.0"/>
      <point x="592" y="37.0"/>
      <point x="642" y="37" type="qcurve"/>
      <point x="691" y="37.0"/>
      <point x="746.0" y="112.0"/>
      <point x="746" y="180" type="qcurve"/>
      <point x="746.0" y="249.0"/>
      <point x="691" y="325.0"/>
      <point x="641" y="325" type="qcurve"/>
      <point x="593" y="325.0"/>
      <point x="537.0" y="247.0"/>
    </contour>
    <component base="fraction" xOffset="119"/>
  </outline>
</glyph>
<glyph name="ampersand" format="2">
  <advance width="698"/>
  <unicode hex="0026"/>
  <note>
ampersand
</note>
  <guideline x="100.0" y="282.0" angle="0" identifier="GQw5C8B8my"/>
  <outline>
    <contour>
      <point x="316.0" y="-10.0" type="qcurve"/>
      <point x="197" y="-10.0"/>
      <point x="50.0" y="116"/>
      <point x="50.0" y="218.0" type="qcurve"/>
      <point x="50.0" y="291.0"/>
      <point x="137.0" y="407.0"/>
      <point x="221.0" y="438.0" type="qcurve"/>
      <point x="254.0" y="399.0" type="line"/>
      <point x="182.32187195835905" y="379.3621567009203"/>
      <point x="103.0" y="285.0"/>
      <point x="103.0" y="222.0" type="qcurve"/>
      <point x="103.0" y="144"/>
      <point x="231.0" y="40.0"/>
      <point x="323.0" y="40.0" type="qcurve"/>
      <point x="432" y="40.0"/>
      <point x="572" y="198"/>
      <point x="589.0" y="329.0" type="qcurve"/>
      <point x="646.0" y="329.0" type="line"/>
      <point x="625.0" y="177.0"/>
      <point x="453" y="-10"/>
    </contour>
    <contour>
      <point x="650" y="0" type="line"/>
      <point x="578" y="0" type="line"/>
      <point x="512" y="69" type="line"/>
      <point x="493" y="92" type="line"/>
      <point x="295" y="308" type="line"/>
      <point x="221" y="392"/>
      <point x="168" y="474"/>
      <point x="168" y="524" type="qcurve"/>
      <point x="168" y="603"/>
      <point x="284" y="705"/>
      <point x="373" y="705" type="qcurve"/>
      <point x="445" y="705"/>
      <point x="548" y="636"/>
      <point x="568" y="579" type="qcurve"/>
      <point x="526" y="553" type="line"/>
      <point x="504" y="609"/>
      <point x="428.9161290322581" y="655.0"/>
      <point x="374" y="655" type="qcurve"/>
      <point x="303.62" y="655.0"/>
      <point x="221.0" y="589.488188976378"/>
      <point x="221" y="527" type="qcurve"/>
      <point x="221.0" y="486.22162162162164"/>
      <point x="271.14736079154943" y="414.75185614551975"/>
      <point x="336" y="343" type="qcurve" smooth="yes"/>
      <point x="524" y="135" type="line"/>
      <point x="550" y="106" type="line"/>
    </contour>
  </outline>
</glyph>
<glyph name="parenleft" format="2">
  <advance width="350"/>
  <unicode hex="0028"/>
  <note>
parenleft
</note>
  <outline>
    <contour>
      <point x="300" y="-153" type="qcurve"/>
      <point x="270" y="-186" type="line"/>
      <point x="148" y="-110"/>
      <point x="20" y="118"/>
      <point x="20" y="258" type="qcurve" smooth="yes"/>
      <point x="20" y="397"/>
      <point x="149" y="626"/>
      <point x="271" y="702" type="qcurve"/>
      <point x="300" y="669" type="line"/>
      <point x="187" y="590"/>
      <point x="70" y="381"/>
      <point x="70" y="258" type="qcurve"/>
      <point x="70" y="135"/>
      <point x="187" y="-74"/>
    </contour>
  </outline>
</glyph>
<glyph name="asterisk" format="2">
  <advance width="397"/>
  <unicode hex="002A"/>
  <note>
asterisk
</note>
  <outline>
    <contour>
      <point x="221" y="376" type="line"/>
      <point x="175" y="376" type="line"/>
      <point x="183" y="521" type="line"/>
      <point x="191" y="517" type="line"/>
      <point x="68" y="441" type="line"/>
      <point x="45" y="480" type="line"/>
      <point x="178" y="545" type="line"/>
      <point x="178" y="531" type="line"/>
      <point x="45" y="597" type="line"/>
      <point x="67" y="636" type="line"/>
      <point x="193" y="558" type="line"/>
      <point x="183" y="547" type="line"/>
      <point x="175" y="700" type="line"/>
      <point x="221" y="700" type="line"/>
      <point x="213" y="550" type="line"/>
      <point x="201" y="557" type="line"/>
      <point x="330" y="636" type="line"/>
      <point x="352" y="597" type="line"/>
      <point x="220" y="532" type="line"/>
      <point x="220" y="544" type="line"/>
      <point x="352" y="480" type="line"/>
      <point x="329" y="441" type="line"/>
      <point x="204" y="518" type="line"/>
      <point x="213" y="520" type="line"/>
    </contour>
  </outline>
</glyph>
<glyph name="comma" format="2">
  <advance width="233"/>
  <unicode hex="002C"/>
  <note>
comma
</note>
  <outline>
    <contour>
      <point x="114" y="75" type="qcurve"/>
      <point x="142" y="75"/>
      <point x="173" y="37"/>
      <point x="173" y="4" type="qcurve"/>
      <point x="173" y="-47"/>
      <point x="126" y="-123"/>
      <point x="73" y="-154" type="qcurve"/>
      <point x="55" y="-133" type="line"/>
      <point x="88" y="-113"/>
      <point x="124" y="-66"/>
      <point x="124" y="-41" type="qcurve" smooth="yes"/>
      <point x="124" y="-30"/>
      <point x="115" y="-10"/>
      <point x="100" y="4" type="qcurve"/>
      <point x="90" y="13"/>
      <point x="78" y="31"/>
      <point x="78" y="42" type="qcurve"/>
      <point x="78" y="56"/>
      <point x="99" y="75"/>
    </contour>
  </outline>
</glyph>
<glyph name="slash" format="2">
  <advance width="563"/>
  <unicode hex="002F"/>
  <note>
slash
</note>
  <outline>
    <contour>
      <point x="55.0" y="-107.0" type="line"/>
      <point x="455.0" y="700.0" type="line"/>
      <point x="508.0" y="700.0" type="line"/>
      <point x="110.0" y="-107.0" type="line"/>
    </contour>
  </outline>
</glyph>
<glyph name="one" format="2">
  <advance width="443"/>
  <unicode hex="0031"/>
  <outline>
    <contour>
      <point x="272" y="0.0" type="line"/>
      <point x="222" y="0.0" type="line"/>
      <point x="222" y="657.0" type="line"/>
      <point x="244" y="642" type="line"/>
      <point x="133" y="567" type="line"/>
      <point x="104" y="607" type="line"/>
      <point x="264" y="710.0" type="line"/>
      <point x="272" y="710.0" type="line"/>
    </contour>
    <contour>
      <point x="370" y="50" type="line"/>
      <point x="370" y="0.0" type="line"/>
      <point x="127" y="0.0" type="line"/>
      <point x="127" y="50" type="line"/>
    </contour>
  </outline>
</glyph>
<glyph name="two" format="2">
  <advance width="548"/>
  <unicode hex="0032"/>
  <outline>
    <contour>
      <point x="132.0" y="47.0" type="line"/>
      <point x="496.0" y="47.0" type="line"/>
      <point x="496.0" y="0.0" type="line"/>
      <point x="93.0" y="0.0" type="line"/>
      <point x="80.0" y="38.0" type="line"/>
      <point x="333.0" y="323.0" type="line" smooth="yes"/>
      <point x="367" y="361"/>
      <point x="440.0" y="477"/>
      <point x="440.0" y="530.0" type="qcurve"/>
      <point x="440.0" y="591.0"/>
      <point x="353.55769230769226" y="660.0"/>
      <point x="285.0" y="660.0" type="qcurve"/>
      <point x="228.7005347593583" y="660.0"/>
      <point x="122" y="594"/>
      <point x="97.0" y="502.0" type="qcurve"/>
      <point x="55.0" y="526.0" type="line"/>
      <point x="83" y="621"/>
      <point x="207.27999999999997" y="710.0"/>
      <point x="290.0" y="710.0" type="qcurve"/>
      <point x="374.19047619047615" y="710.0"/>
      <point x="494.0" y="609.0"/>
      <point x="494.0" y="528.0" type="qcurve"/>
      <point x="494.0" y="465.0"/>
      <point x="426" y="355"/>
      <point x="377.0" y="298.0" type="qcurve"/>
      <point x="135.0" y="25.0" type="line"/>
    </contour>
  </outline>
</glyph>
<glyph name="four" format="2">
  <advance width="620"/>
  <unicode hex="0034"/>
  <outline>
    <contour>
      <point x="456" y="0" type="line"/>
      <point x="406" y="0" type="line"/>
      <point x="406" y="647" type="line"/>
      <point x="425" y="640" type="line"/>
      <point x="79" y="217" type="line"/>
      <point x="68" y="240" type="line"/>
      <point x="578" y="240" type="line"/>
      <point x="578" y="190" type="line"/>
      <point x="75" y="190" type="line"/>
      <point x="46" y="249" type="line"/>
      <point x="415" y="700" type="line"/>
      <point x="456" y="700" type="line"/>
    </contour>
  </outline>
</glyph>
<glyph name="five" format="2">
  <advance width="568"/>
  <unicode hex="0035"/>
  <outline>
    <contour>
      <point x="508" y="239" type="qcurve"/>
      <point x="508" y="134"/>
      <point x="364" y="-7"/>
      <point x="257" y="-7" type="qcurve"/>
      <point x="188" y="-7"/>
      <point x="76" y="56"/>
      <point x="39" y="115" type="qcurve"/>
      <point x="73" y="151" type="line"/>
      <point x="112" y="91"/>
      <point x="211" y="43"/>
      <point x="258" y="43" type="qcurve"/>
      <point x="342" y="43.0"/>
      <point x="457.0" y="159.0"/>
      <point x="457" y="240" type="qcurve"/>
      <point x="457.0" y="315.0"/>
      <point x="356" y="420.0"/>
      <point x="274" y="420" type="qcurve"/>
      <point x="230.0" y="420.0"/>
      <point x="132.38683465278078" y="384.27803740668617"/>
      <point x="100" y="361" type="qcurve"/>
      <point x="68" y="403" type="line"/>
      <point x="109" y="700" type="line"/>
      <point x="487" y="700" type="line"/>
      <point x="487" y="653" type="line"/>
      <point x="124" y="653" type="line"/>
      <point x="153" y="669" type="line"/>
      <point x="113" y="402" type="line"/>
      <point x="92" y="407" type="line"/>
      <point x="123" y="431"/>
      <point x="226.0" y="468.0"/>
      <point x="279" y="468" type="qcurve"/>
      <point x="376" y="468"/>
      <point x="508" y="339"/>
    </contour>
  </outline>
</glyph>
<glyph name="six" format="2">
  <advance width="589"/>
  <unicode hex="0036"/>
  <outline>
    <contour>
      <point x="529" y="234" type="qcurve"/>
      <point x="529" y="134"/>
      <point x="392" y="0"/>
      <point x="300" y="0" type="qcurve"/>
      <point x="195" y="0"/>
      <point x="60" y="139"/>
      <point x="60" y="250" type="qcurve"/>
      <point x="60" y="297"/>
      <point x="109" y="439"/>
      <point x="157" y="520" type="qcurve"/>
      <point x="269" y="710" type="line"/>
      <point x="319" y="710" type="line"/>
      <point x="323" y="700" type="line"/>
      <point x="207" y="506" type="line" smooth="yes"/>
      <point x="180" y="461"/>
      <point x="131" y="357"/>
      <point x="98" y="285" type="qcurve"/>
      <point x="92" y="329" type="line"/>
      <point x="130" y="392"/>
      <point x="239" y="467"/>
      <point x="305" y="467" type="qcurve"/>
      <point x="398" y="467"/>
      <point x="529" y="331"/>
    </contour>
    <contour>
      <point x="113" y="232" type="qcurve" smooth="yes"/>
      <point x="113" y="155"/>
      <point x="218" y="49"/>
      <point x="294" y="49" type="qcurve" smooth="yes"/>
      <point x="371" y="49"/>
      <point x="476" y="155"/>
      <point x="476" y="232" type="qcurve" smooth="yes"/>
      <point x="476" y="309"/>
      <point x="371" y="417"/>
      <point x="294" y="417" type="qcurve" smooth="yes"/>
      <point x="218" y="417"/>
      <point x="113" y="309"/>
    </contour>
  </outline>
</glyph>
<glyph name="seven" format="2">
  <advance width="542"/>
  <unicode hex="0037"/>
  <outline>
    <contour>
      <point x="209.0" y="0.0" type="line"/>
      <point x="153.0" y="0.0" type="line"/>
      <point x="452.0" y="674.0" type="line"/>
      <point x="465.0" y="653.0" type="line"/>
      <point x="71.0" y="653.0" type="line"/>
      <point x="71.0" y="700.0" type="line"/>
      <point x="483.0" y="700.0" type="line"/>
      <point x="495.0" y="647.0" type="line"/>
    </contour>
  </outline>
</glyph>
<glyph name="eight" format="2">
  <advance width="579"/>
  <unicode hex="0038"/>
  <guideline x="-99" y="202" angle="0" identifier="peLwOMXwvx"/>
  <outline>
    <contour>
      <point x="498.0" y="520.0" type="qcurve"/>
      <point x="498.0" y="469.0"/>
      <point x="434.41044880339433" y="381.9243239382956"/>
      <point x="375.0" y="368.0" type="qcurve"/>
      <point x="372.0" y="385.0" type="line"/>
      <point x="440" y="363"/>
      <point x="525.0" y="258"/>
      <point x="525.0" y="202.0" type="qcurve"/>
      <point x="525.0" y="115.0"/>
      <point x="388.0" y="-3.0"/>
      <point x="289.0" y="-3.0" type="qcurve"/>
      <point x="191.0" y="-3.0"/>
      <point x="53.0" y="116.0"/>
      <point x="53.0" y="202.0" type="qcurve"/>
      <point x="53.0" y="263"/>
      <point x="133.79772675562702" y="360.9234641778048"/>
      <point x="208.0" y="389.0" type="qcurve"/>
      <point x="202.0" y="368.0" type="line"/>
      <point x="144.52090752393224" y="380.05206777724004"/>
      <point x="80.0" y="469.0"/>
      <point x="80.0" y="520.0" type="qcurve"/>
      <point x="80.0" y="595.0"/>
      <point x="202.15525114155253" y="700.0"/>
      <point x="289.0" y="700.0" type="qcurve"/>
      <point x="375.8447488584475" y="700.0"/>
      <point x="498.0" y="595.0"/>
    </contour>
    <contour>
      <point x="289.0" y="650.0" type="qcurve"/>
      <point x="222.1428571428571" y="650.0"/>
      <point x="133.0" y="574.0"/>
      <point x="133.0" y="519.0" type="qcurve"/>
      <point x="133.0" y="463.0"/>
      <point x="222.27710843373495" y="390.0"/>
      <point x="289.0" y="390.0" type="qcurve" smooth="yes"/>
      <point x="355.72289156626505" y="390.0"/>
      <point x="445.0" y="462.0"/>
      <point x="445.0" y="519.0" type="qcurve"/>
      <point x="445.0" y="574.0"/>
      <point x="355.8571428571429" y="650.0"/>
    </contour>
    <contour>
      <point x="106.0" y="202.0" type="qcurve"/>
      <point x="106.0" y="138"/>
      <point x="211.0" y="47.0"/>
      <point x="289.0" y="47.0" type="qcurve"/>
      <point x="368.0" y="47.0"/>
      <point x="472.0" y="137"/>
      <point x="472.0" y="202.0" type="qcurve"/>
      <point x="472.0" y="268"/>
      <point x="368.0" y="352.0"/>
      <point x="289.0" y="352.0" type="qcurve" smooth="yes"/>
      <point x="211.0" y="352.0"/>
      <point x="106.0" y="268"/>
    </contour>
  </outline>
</glyph>
<glyph name="nine" format="2">
  <advance width="549"/>
  <unicode hex="0039"/>
  <outline>
    <contour>
      <point x="40" y="476" type="qcurve"/>
      <point x="40" y="576"/>
      <point x="179" y="710"/>
      <point x="277" y="710" type="qcurve"/>
      <point x="376" y="710"/>
      <point x="509" y="575"/>
      <point x="509" y="477" type="qcurve"/>
      <point x="509" y="428"/>
      <point x="465" y="296"/>
      <point x="407" y="174" type="qcurve" smooth="yes"/>
      <point x="324" y="0" type="line"/>
      <point x="278" y="0" type="line"/>
      <point x="274" y="10" type="line"/>
      <point x="475" y="418" type="line"/>
      <point x="485" y="401" type="line"/>
      <point x="442" y="323"/>
      <point x="332" y="243"/>
      <point x="264" y="243" type="qcurve"/>
      <point x="171" y="243"/>
      <point x="40" y="379"/>
    </contour>
    <contour>
      <point x="456" y="478" type="qcurve" smooth="yes"/>
      <point x="456" y="555"/>
      <point x="351" y="661"/>
      <point x="275" y="661" type="qcurve" smooth="yes"/>
      <point x="198" y="661"/>
      <point x="93" y="555"/>
      <point x="93" y="478" type="qcurve" smooth="yes"/>
      <point x="93" y="401"/>
      <point x="198" y="293"/>
      <point x="275" y="293" type="qcurve" smooth="yes"/>
      <point x="351" y="293"/>
      <point x="456" y="401"/>
    </contour>
  </outline>
</glyph>
<glyph name="colon" format="2">
  <advance width="228"/>
  <unicode hex="003A"/>
  <note>
colon
</note>
  <outline>
    <contour>
      <point x="158" y="481" type="qcurve" smooth="yes"/>
      <point x="158" y="459"/>
      <point x="134" y="431"/>
      <point x="114" y="431" type="qcurve" smooth="yes"/>
      <point x="93" y="431"/>
      <point x="70" y="457"/>
      <point x="70" y="481" type="qcurve" smooth="yes"/>
      <point x="70" y="503"/>
      <point x="94" y="531"/>
      <point x="114" y="531" type="qcurve" smooth="yes"/>
      <point x="135" y="531"/>
      <point x="158" y="505"/>
    </contour>
    <contour>
      <point x="158" y="40" type="qcurve" smooth="yes"/>
      <point x="158" y="18"/>
      <point x="134" y="-10"/>
      <point x="114" y="-10" type="qcurve" smooth="yes"/>
      <point x="93" y="-10"/>
      <point x="70" y="16"/>
      <point x="70" y="40" type="qcurve" smooth="yes"/>
      <point x="70" y="62"/>
      <point x="94" y="90"/>
      <point x="114" y="90" type="qcurve" smooth="yes"/>
      <point x="135" y="90"/>
      <point x="158" y="64"/>
    </contour>
  </outline>
</glyph>
<glyph name="semicolon" format="2">
  <advance width="231"/>
  <unicode hex="003B"/>
  <note>
semicolon
</note>
  <outline>
    <contour>
      <point x="161" y="481" type="qcurve" smooth="yes"/>
      <point x="161" y="459"/>
      <point x="137" y="431"/>
      <point x="117" y="431" type="qcurve" smooth="yes"/>
      <point x="96" y="431"/>
      <point x="73" y="457"/>
      <point x="73" y="481" type="qcurve" smooth="yes"/>
      <point x="73" y="503"/>
      <point x="97" y="531"/>
      <point x="117" y="531" type="qcurve" smooth="yes"/>
      <point x="138" y="531"/>
      <point x="161" y="505"/>
    </contour>
    <component base="comma" xOffset="-20"/>
  </outline>
</glyph>
<glyph name="greater" format="2">
  <advance width="489"/>
  <unicode hex="003E"/>
  <note>
greater
</note>
  <outline>
    <contour>
      <point x="435" y="227" type="line"/>
      <point x="83" y="25" type="line"/>
      <point x="60" y="62" type="line"/>
      <point x="410" y="264" type="line"/>
      <point x="410" y="241" type="line"/>
      <point x="60" y="443" type="line"/>
      <point x="83" y="480" type="line"/>
      <point x="435" y="278" type="line"/>
    </contour>
  </outline>
</glyph>
<glyph name="question" format="2">
  <advance width="498"/>
  <unicode hex="003F"/>
  <note>
question
</note>
  <outline>
    <contour>
      <point x="215" y="201" type="line"/>
      <point x="202" y="327" type="line"/>
      <point x="300.968002164972" y="351.9919197386293"/>
      <point x="395.0" y="445.35675675675674"/>
      <point x="395" y="511" type="qcurve" smooth="yes"/>
      <point x="395" y="572"/>
      <point x="311" y="653"/>
      <point x="246" y="653" type="qcurve"/>
      <point x="197" y="653"/>
      <point x="107" y="599"/>
      <point x="71" y="542" type="qcurve"/>
      <point x="35" y="573" type="line"/>
      <point x="76" y="635"/>
      <point x="187" y="703"/>
      <point x="248" y="703" type="qcurve"/>
      <point x="333" y="703"/>
      <point x="448" y="592"/>
      <point x="448" y="511" type="qcurve" smooth="yes"/>
      <point x="448.0" y="439.348623853211"/>
      <point x="329.06509053083005" y="317.01923129319977"/>
      <point x="241" y="291" type="qcurve"/>
      <point x="264" y="324" type="line"/>
      <point x="254" y="201" type="line"/>
    </contour>
    <component base="period" xOffset="120"/>
  </outline>
</glyph>
<glyph name="at" format="2">
  <advance width="979"/>
  <unicode hex="0040"/>
  <note>
at
</note>
  <outline>
    <contour>
      <point x="929" y="388" type="qcurve" smooth="yes"/>
      <point x="929" y="239"/>
      <point x="782" y="55"/>
      <point x="689" y="55" type="qcurve"/>
      <point x="631" y="55"/>
      <point x="599" y="138"/>
      <point x="617" y="196" type="qcurve" smooth="yes"/>
      <point x="627" y="229" type="line"/>
      <point x="644" y="224" type="line"/>
      <point x="618" y="145"/>
      <point x="502" y="55"/>
      <point x="429" y="55" type="qcurve" smooth="yes"/>
      <point x="359" y="55"/>
      <point x="267" y="153"/>
      <point x="267" y="233" type="qcurve" smooth="yes"/>
      <point x="267" y="298"/>
      <point x="310" y="404"/>
      <point x="344" y="441" type="qcurve" smooth="yes"/>
      <point x="375" y="474"/>
      <point x="455" y="510"/>
      <point x="496" y="510" type="qcurve" smooth="yes"/>
      <point x="552" y="510"/>
      <point x="642" y="451"/>
      <point x="666" y="383" type="qcurve"/>
      <point x="647" y="376" type="line"/>
      <point x="665" y="501" type="line"/>
      <point x="713" y="501" type="line"/>
      <point x="656" y="191" type="line"/>
      <point x="654" y="180" type="line" smooth="yes"/>
      <point x="647" y="140"/>
      <point x="669" y="97"/>
      <point x="699" y="97" type="qcurve" smooth="yes"/>
      <point x="768.3709677419355" y="97.0"/>
      <point x="886" y="256"/>
      <point x="886" y="385" type="qcurve" smooth="yes"/>
      <point x="886.0" y="514"/>
      <point x="702.0" y="670.0"/>
      <point x="555" y="670" type="qcurve"/>
      <point x="353.0" y="670.0"/>
      <point x="93.0" y="396.9431153997388"/>
      <point x="93" y="218" type="qcurve" smooth="yes"/>
      <point x="93" y="66"/>
      <point x="275" y="-122"/>
      <point x="422" y="-122" type="qcurve" smooth="yes"/>
      <point x="462" y="-122"/>
      <point x="543" y="-105"/>
      <point x="581" y="-90" type="qcurve" smooth="yes"/>
      <point x="600" y="-82"/>
      <point x="637" y="-65"/>
      <point x="655" y="-55" type="qcurve"/>
      <point x="674" y="-89" type="line"/>
      <point x="619" y="-122"/>
      <point x="478" y="-162"/>
      <point x="421" y="-162" type="qcurve" smooth="yes"/>
      <point x="254" y="-162"/>
      <point x="50" y="45"/>
      <point x="50" y="212" type="qcurve" smooth="yes"/>
      <point x="50" y="320"/>
      <point x="126" y="497"/>
      <point x="191" y="562" type="qcurve" smooth="yes"/>
      <point x="258" y="629"/>
      <point x="440" y="710"/>
      <point x="556" y="710" type="qcurve"/>
      <point x="722" y="710"/>
      <point x="929" y="529"/>
    </contour>
    <contour>
      <point x="317" y="232" type="qcurve" smooth="yes"/>
      <point x="317.0" y="173.0"/>
      <point x="383.4954954954955" y="100.0"/>
      <point x="438" y="100" type="qcurve" smooth="yes"/>
      <point x="510.23762376237624" y="100.0"/>
      <point x="613.0315967814049" y="203.1579839070244"/>
      <point x="630" y="288" type="qcurve" smooth="yes"/>
      <point x="632" y="300"/>
      <point x="635" y="319"/>
      <point x="635" y="327" type="qcurve" smooth="yes"/>
      <point x="635" y="389"/>
      <point x="560" y="465"/>
      <point x="500" y="465" type="qcurve" smooth="yes"/>
      <point x="433" y="465"/>
      <point x="317" y="336"/>
    </contour>
  </outline>
</glyph>
<glyph name="A" format="2">
  <advance width="647"/>
  <unicode hex="0041"/>
  <note>
A
</note>
  <anchor x="331.0" y="0" name="bottom"/>
  <anchor x="588.0" y="10.0" name="ogonek"/>
  <anchor x="331.0" y="700.0" name="top"/>
  <outline>
    <contour>
      <point x="314" y="687" type="qcurve"/>
      <point x="331" y="687" type="line"/>
      <point x="310" y="622"/>
      <point x="282" y="542"/>
      <point x="258" y="478" type="qcurve" smooth="yes"/>
      <point x="77" y="0" type="line"/>
      <point x="25" y="0" type="line"/>
      <point x="291" y="700" type="line"/>
      <point x="359" y="700" type="line"/>
      <point x="622" y="0" type="line"/>
      <point x="566" y="0" type="line"/>
      <point x="385" y="484" type="line" smooth="yes"/>
      <point x="362" y="546"/>
      <point x="334" y="624"/>
    </contour>
    <contour>
      <point x="507" y="211" type="line"/>
      <point x="134" y="211" type="line"/>
      <point x="156" y="261" type="line"/>
      <point x="486" y="261" type="line"/>
    </contour>
  </outline>
</glyph>
<glyph name="B" format="2">
  <advance width="661"/>
  <unicode hex="0042"/>
  <note>
B
</note>
  <anchor x="342.5982078959924" y="0" name="bottom"/>
  <anchor x="342.5982078959924" y="700.0" name="top"/>
  <outline>
    <contour>
      <point x="108" y="700.0" type="line"/>
      <point x="384" y="700.0" type="line"/>
      <point x="467" y="700.0"/>
      <point x="574" y="601.0"/>
      <point x="574" y="524.0" type="qcurve"/>
      <point x="574" y="450.0"/>
      <point x="466" y="352.0"/>
      <point x="383" y="351.0" type="qcurve"/>
      <point x="384" y="387.0" type="line"/>
      <point x="483" y="387.0"/>
      <point x="611" y="285.0"/>
      <point x="611" y="206.0" type="qcurve"/>
      <point x="611" y="116.0"/>
      <point x="489" y="0.0"/>
      <point x="394" y="0.0" type="qcurve"/>
      <point x="108" y="0.0" type="line"/>
    </contour>
    <contour>
      <point x="521.0" y="519" type="qcurve" smooth="yes"/>
      <point x="521.0" y="576"/>
      <point x="444" y="650"/>
      <point x="376" y="650" type="qcurve"/>
      <point x="150" y="650" type="line"/>
      <point x="158" y="681.0" type="line"/>
      <point x="158" y="369.0" type="line"/>
      <point x="151" y="389" type="line"/>
      <point x="378" y="389" type="line"/>
      <point x="440" y="391"/>
      <point x="521.0" y="464"/>
    </contour>
    <contour>
      <point x="556" y="198" type="qcurve"/>
      <point x="556" y="260"/>
      <point x="458" y="339"/>
      <point x="383" y="339" type="qcurve"/>
      <point x="155" y="339" type="line"/>
      <point x="158" y="354.0" type="line"/>
      <point x="158" y="24.0" type="line"/>
      <point x="154" y="50" type="line"/>
      <point x="388" y="50" type="line"/>
      <point x="461" y="50"/>
      <point x="556" y="133"/>
    </contour>
  </outline>
</glyph>
<glyph name="D" format="2">
  <advance width="739"/>
  <unicode hex="0044"/>
  <note>
D
</note>
  <anchor x="326.4642771946565" y="0" name="bottom"/>
  <anchor x="138.46427719465652" y="350.0" name="center"/>
  <anchor x="316.4642771946565" y="700.0" name="top"/>
  <outline>
    <contour>
      <point x="108" y="700.0" type="line"/>
      <point x="363" y="700.0" type="line" smooth="yes"/>
      <point x="498" y="700.0"/>
      <point x="689" y="503.0"/>
      <point x="689" y="350.0" type="qcurve" smooth="yes"/>
      <point x="689" y="197.0"/>
      <point x="498" y="0.0"/>
      <point x="363" y="0.0" type="qcurve"/>
      <point x="108" y="0.0" type="line"/>
    </contour>
    <contour>
      <point x="144" y="50" type="line"/>
      <point x="358" y="50" type="line" smooth="yes"/>
      <point x="472" y="50"/>
      <point x="636" y="219.0"/>
      <point x="636" y="350.0" type="qcurve" smooth="yes"/>
      <point x="636" y="481.0"/>
      <point x="472" y="650"/>
      <point x="358" y="650" type="qcurve"/>
      <point x="141" y="650" type="line"/>
      <point x="158" y="665.0" type="line"/>
      <point x="158" y="33.0" type="line"/>
    </contour>
  </outline>
</glyph>
<glyph name="F" format="2">
  <advance width="585"/>
  <unicode hex="0046"/>
  <note>
F
</note>
  <outline>
    <contour>
      <point x="108" y="0.0" type="line"/>
      <point x="108" y="700.0" type="line"/>
      <point x="158" y="700.0" type="line"/>
      <point x="158" y="0.0" type="line"/>
    </contour>
    <contour>
      <point x="486" y="326" type="line"/>
      <point x="139" y="326" type="line"/>
      <point x="139" y="376" type="line"/>
      <point x="486" y="376" type="line"/>
    </contour>
    <contour>
      <point x="535" y="650" type="line"/>
      <point x="138" y="650" type="line"/>
      <point x="138" y="700.0" type="line"/>
      <point x="535" y="700.0" type="line"/>
    </contour>
  </outline>
</glyph>
<glyph name="G" format="2">
  <advance width="762"/>
  <unicode hex="0047"/>
  <note>
G
</note>
  <outline>
    <contour>
      <point x="50" y="347" type="qcurve"/>
      <point x="50" y="503"/>
      <point x="254" y="705"/>
      <point x="405" y="705" type="qcurve" smooth="yes"/>
      <point x="484" y="705"/>
      <point x="635" y="638"/>
      <point x="673" y="587" type="qcurve"/>
      <point x="639" y="552" type="line"/>
      <point x="600" y="597"/>
      <point x="469" y="655"/>
      <point x="407" y="655" type="qcurve" smooth="yes"/>
      <point x="278" y="655"/>
      <point x="103" y="481"/>
      <point x="103" y="347" type="qcurve"/>
      <point x="103" y="213"/>
      <point x="283" y="40"/>
      <point x="417" y="40" type="qcurve" smooth="yes"/>
      <point x="529" y="40"/>
      <point x="674" y="166"/>
      <point x="674" y="260" type="qcurve" smooth="yes"/>
      <point x="674" y="308" type="line"/>
      <point x="692" y="282" type="line"/>
      <point x="416" y="282" type="line"/>
      <point x="416" y="332" type="line"/>
      <point x="721" y="332" type="line"/>
      <point x="722" y="324"/>
      <point x="724" y="287"/>
      <point x="724" y="273" type="qcurve" smooth="yes"/>
      <point x="724" y="150"/>
      <point x="545" y="-10"/>
      <point x="415" y="-10" type="qcurve"/>
      <point x="259" y="-10"/>
      <point x="50" y="191"/>
    </contour>
  </outline>
</glyph>
<glyph name="H" format="2">
  <advance width="744"/>
  <unicode hex="0048"/>
  <note>
H
</note>
  <anchor x="367.4642771946565" y="0" name="bottom"/>
  <anchor x="367.4642771946565" y="350.0" name="center"/>
  <anchor x="367.4642771946565" y="700.0" name="top"/>
  <anchor x="27.464277194656518" y="700.0" name="topleft"/>
  <outline>
    <contour>
      <point x="108" y="700.0" type="line"/>
      <point x="158" y="700.0" type="line"/>
      <point x="158" y="0.0" type="line"/>
      <point x="108" y="0.0" type="line"/>
    </contour>
    <contour>
      <point x="586" y="700.0" type="line"/>
      <point x="636" y="700.0" type="line"/>
      <point x="636" y="0.0" type="line"/>
      <point x="586" y="0.0" type="line"/>
    </contour>
    <contour>
      <point x="137" y="324" type="line"/>
      <point x="137" y="374" type="line"/>
      <point x="604" y="374" type="line"/>
      <point x="604" y="324" type="line"/>
    </contour>
  </outline>
</glyph>
<glyph name="I" format="2">
  <advance width="412"/>
  <unicode hex="0049"/>
  <note>
I
</note>
  <guideline x="206.0" y="0" angle="270.0" name="center" identifier="Ryo1iLfLUE"/>
  <outline>
    <contour>
      <point x="231" y="700.0" type="qcurve"/>
      <point x="231" y="0.0" type="line"/>
      <point x="181" y="0.0" type="line"/>
      <point x="181" y="700.0" type="line"/>
      <point x="208" y="700.0"/>
      <point x="204" y="700.0"/>
    </contour>
    <contour>
      <point x="344" y="700.0" type="line"/>
      <point x="344" y="650" type="line"/>
      <point x="68" y="650" type="line"/>
      <point x="68" y="700.0" type="line"/>
    </contour>
    <contour>
      <point x="344" y="50" type="line"/>
      <point x="344" y="0.0" type="line"/>
      <point x="68" y="0.0" type="line"/>
      <point x="68" y="50" type="line"/>
    </contour>
  </outline>
</glyph>
<glyph name="J" format="2">
  <advance width="599"/>
  <unicode hex="004A"/>
  <note>
J
</note>
  <anchor x="269" y="0" name="bottom"/>
  <anchor x="429" y="700.0" name="top"/>
  <outline>
    <contour>
      <point x="245" y="-10.0" type="qcurve"/>
      <point x="180" y="-10.0"/>
      <point x="76" y="56.0"/>
      <point x="44" y="117.0" type="qcurve"/>
      <point x="80" y="155" type="line"/>
      <point x="112" y="94"/>
      <point x="199" y="40"/>
      <point x="246" y="40" type="qcurve" smooth="yes"/>
      <point x="315" y="40"/>
      <point x="403" y="139"/>
      <point x="403" y="216" type="qcurve"/>
      <point x="403" y="700.0" type="line"/>
      <point x="457" y="700.0" type="line"/>
      <point x="457" y="213.0" type="line"/>
      <point x="457" y="116.0"/>
      <point x="338" y="-10.0"/>
    </contour>
    <contour>
      <point x="555" y="700.0" type="line"/>
      <point x="555" y="650" type="line"/>
      <point x="276" y="650" type="line"/>
      <point x="276" y="700.0" type="line"/>
    </contour>
  </outline>
</glyph>
<glyph name="L" format="2">
  <advance width="536"/>
  <unicode hex="004C"/>
  <note>
L
</note>
  <anchor x="291.5982078959924" y="0" name="bottom"/>
  <anchor x="308" y="350.0" name="center"/>
  <anchor x="134.59820789599237" y="700.0" name="top"/>
  <anchor x="309" y="700.0" name="topright"/>
  <outline>
    <contour>
      <point x="132" y="50" type="line"/>
      <point x="501" y="50" type="line"/>
      <point x="501" y="0.0" type="line"/>
      <point x="108" y="0.0" type="line"/>
      <point x="108" y="700.0" type="line"/>
      <point x="158" y="700.0" type="line"/>
      <point x="158" y="28.0" type="line"/>
    </contour>
  </outline>
</glyph>
<glyph name="M" format="2">
  <advance width="852"/>
  <unicode hex="004D"/>
  <note>
M
</note>
  <anchor x="426.5982078959924" y="0" name="bottom"/>
  <anchor x="426.5982078959924" y="700.0" name="top"/>
  <outline>
    <contour>
      <point x="108" y="700.0" type="line"/>
      <point x="156" y="700.0" type="line"/>
      <point x="437" y="243.0" type="line"/>
      <point x="416" y="243.0" type="line"/>
      <point x="701" y="700.0" type="line"/>
      <point x="744" y="700.0" type="line"/>
      <point x="744" y="0.0" type="line"/>
      <point x="694" y="0.0" type="line"/>
      <point x="694" y="351" type="line" smooth="yes"/>
      <point x="694" y="441"/>
      <point x="697" y="585"/>
      <point x="703" y="656" type="qcurve"/>
      <point x="718" y="637" type="line"/>
      <point x="445" y="205" type="line"/>
      <point x="403" y="205" type="line"/>
      <point x="139" y="631" type="line"/>
      <point x="149" y="656" type="line"/>
      <point x="155" y="589"/>
      <point x="158" y="448"/>
      <point x="158" y="351" type="qcurve"/>
      <point x="158" y="0.0" type="line"/>
      <point x="131" y="0.0"/>
      <point x="135" y="0.0"/>
      <point x="108" y="0.0" type="qcurve"/>
    </contour>
  </outline>
</glyph>
<glyph name="N" format="2">
  <advance width="781"/>
  <unicode hex="004E"/>
  <note>
N
</note>
  <anchor x="387" y="0" name="bottom"/>
  <anchor x="387" y="700.0" name="top"/>
  <outline>
    <contour>
      <point x="623" y="417" type="qcurve"/>
      <point x="623" y="700" type="line"/>
      <point x="673" y="700" type="line"/>
      <point x="673" y="0" type="line"/>
      <point x="625" y="0" type="line"/>
      <point x="136" y="641" type="line"/>
      <point x="150" y="669" type="line"/>
      <point x="152" y="620"/>
      <point x="158" y="365"/>
      <point x="158" y="344" type="qcurve" smooth="yes"/>
      <point x="158" y="0" type="line"/>
      <point x="108" y="0" type="line"/>
      <point x="108" y="700" type="line"/>
      <point x="154" y="700" type="line"/>
      <point x="640" y="63" type="line"/>
      <point x="628" y="37" type="line"/>
      <point x="624" y="79"/>
      <point x="624" y="301"/>
    </contour>
  </outline>
</glyph>
<glyph name="R" format="2">
  <advance width="647"/>
  <unicode hex="0052"/>
  <note>
R
</note>
  <anchor x="359" y="0" name="bottom"/>
  <anchor x="319" y="700.0" name="top"/>
  <outline>
    <contour>
      <point x="595" y="485" type="qcurve"/>
      <point x="595" y="399"/>
      <point x="479" y="288"/>
      <point x="390" y="288" type="qcurve"/>
      <point x="133" y="288" type="line"/>
      <point x="133" y="338" type="line"/>
      <point x="396" y="338" type="line"/>
      <point x="460" y="338"/>
      <point x="542" y="422"/>
      <point x="542" y="487" type="qcurve"/>
      <point x="542" y="558"/>
      <point x="449" y="650"/>
      <point x="377" y="650" type="qcurve"/>
      <point x="133" y="650" type="line"/>
      <point x="158" y="679" type="line"/>
      <point x="158" y="0" type="line"/>
      <point x="108" y="0" type="line"/>
      <point x="108" y="700" type="line"/>
      <point x="390" y="700" type="line"/>
      <point x="479" y="700"/>
      <point x="595" y="579"/>
    </contour>
    <contour>
      <point x="390" y="301" type="line"/>
      <point x="432" y="327" type="line"/>
      <point x="622" y="0" type="line"/>
      <point x="564" y="0" type="line"/>
    </contour>
  </outline>
</glyph>
<glyph name="S" format="2">
  <advance width="593"/>
  <unicode hex="0053"/>
  <note>
S
</note>
  <anchor x="308" y="0" name="bottom"/>
  <anchor x="308" y="700.0" name="top"/>
  <outline>
    <contour>
      <point x="54" y="122" type="qcurve"/>
      <point x="90" y="159" type="line"/>
      <point x="134" y="95"/>
      <point x="229" y="40"/>
      <point x="303" y="40.0" type="qcurve" smooth="yes"/>
      <point x="383" y="40.0"/>
      <point x="487" y="121"/>
      <point x="487" y="183" type="qcurve" smooth="yes"/>
      <point x="487" y="239"/>
      <point x="392" y="303"/>
      <point x="289" y="322" type="qcurve" smooth="yes"/>
      <point x="190" y="342"/>
      <point x="87" y="440"/>
      <point x="87" y="519" type="qcurve"/>
      <point x="87" y="600"/>
      <point x="213" y="705"/>
      <point x="310" y="705" type="qcurve"/>
      <point x="386" y="705"/>
      <point x="501" y="642"/>
      <point x="537" y="580" type="qcurve"/>
      <point x="500" y="544" type="line"/>
      <point x="469" y="598"/>
      <point x="368" y="655"/>
      <point x="305" y="655" type="qcurve"/>
      <point x="233" y="655"/>
      <point x="140" y="577"/>
      <point x="140" y="517" type="qcurve"/>
      <point x="140" y="464"/>
      <point x="218" y="391"/>
      <point x="320" y="373" type="qcurve" smooth="yes"/>
      <point x="426" y="354"/>
      <point x="540" y="262"/>
      <point x="540.0" y="189" type="qcurve" smooth="yes"/>
      <point x="540.0" y="102"/>
      <point x="405" y="-10"/>
      <point x="301" y="-10" type="qcurve" smooth="yes"/>
      <point x="226" y="-10"/>
      <point x="98" y="58"/>
    </contour>
  </outline>
</glyph>
<glyph name="T" format="2">
  <advance width="517"/>
  <unicode hex="0054"/>
  <note>
T
</note>
  <guideline x="258.5" y="0" angle="270.0" identifier="FEKkJemmlO"/>
  <anchor x="258" y="0" name="bottom"/>
  <anchor x="259" y="350.0" name="center"/>
  <anchor x="259" y="700.0" name="top"/>
  <outline>
    <contour>
      <point x="280" y="0" type="line"/>
      <point x="230" y="0" type="line"/>
      <point x="230" y="676" type="line"/>
      <point x="280" y="676" type="line"/>
    </contour>
    <contour>
      <point x="492" y="650" type="line"/>
      <point x="25" y="650" type="line"/>
      <point x="25" y="700" type="line"/>
      <point x="492" y="700" type="line"/>
    </contour>
  </outline>
</glyph>
<glyph name="V" format="2">
  <advance width="647"/>
  <unicode hex="0056"/>
  <note>
V
</note>
  <guideline x="323.5" y="0" angle="270.0" identifier="QwH8tDPtFQ"/>
  <anchor x="320" y="0" name="bottom"/>
  <anchor x="320" y="700.0" name="top"/>
  <outline>
    <contour>
      <point x="288" y="0" type="line"/>
      <point x="25" y="700" type="line"/>
      <point x="81" y="700" type="line"/>
      <point x="262" y="216" type="line" smooth="yes"/>
      <point x="285" y="154"/>
      <point x="313" y="76"/>
      <point x="333" y="13" type="qcurve"/>
      <point x="306" y="13" type="line"/>
      <point x="327" y="78"/>
      <point x="355" y="159"/>
      <point x="380" y="222" type="qcurve" smooth="yes"/>
      <point x="568" y="700" type="line"/>
      <point x="622" y="700" type="line"/>
      <point x="346" y="0" type="line"/>
    </contour>
  </outline>
</glyph>
<glyph name="W" format="2">
  <advance width="917"/>
  <unicode hex="0057"/>
  <note>
W
</note>
  <guideline x="490" y="462" angle="0" identifier="0TTqKfM4Te"/>
  <anchor x="496" y="0" name="bottom"/>
  <anchor x="496" y="700.0" name="top"/>
  <outline>
    <contour>
      <point x="248" y="0" type="line"/>
      <point x="25" y="700" type="line"/>
      <point x="81" y="700" type="line"/>
      <point x="231" y="216" type="line" smooth="yes"/>
      <point x="250" y="153"/>
      <point x="269" y="91"/>
      <point x="288" y="28" type="qcurve"/>
      <point x="271" y="28" type="line"/>
      <point x="292" y="93"/>
      <point x="312" y="157"/>
      <point x="333" y="222" type="qcurve" smooth="yes"/>
      <point x="429" y="522" type="line"/>
      <point x="483" y="522" type="line"/>
      <point x="579" y="216" type="line" smooth="yes"/>
      <point x="600" y="148"/>
      <point x="622" y="81"/>
      <point x="643" y="13" type="qcurve"/>
      <point x="616" y="13" type="line"/>
      <point x="637" y="83"/>
      <point x="659" y="153"/>
      <point x="682" y="222" type="qcurve" smooth="yes"/>
      <point x="838" y="700" type="line"/>
      <point x="892" y="700" type="line"/>
      <point x="656" y="0" type="line"/>
      <point x="598" y="0" type="line"/>
      <point x="446" y="481" type="line"/>
      <point x="464" y="480" type="line"/>
      <point x="306" y="0" type="line"/>
    </contour>
  </outline>
</glyph>
<glyph name="X" format="2">
  <advance width="622"/>
  <unicode hex="0058"/>
  <note>
X
</note>
  <guideline x="311.0" y="0" angle="270.0" identifier="6UbPRWySjH"/>
  <anchor x="311" y="0" name="bottom"/>
  <anchor x="311" y="700" name="top"/>
  <outline>
    <contour>
      <point x="530" y="700" type="line"/>
      <point x="587" y="700" type="line"/>
      <point x="329" y="338" type="line"/>
      <point x="301" y="374" type="line"/>
    </contour>
    <contour>
      <point x="30" y="700" type="line"/>
      <point x="92" y="700" type="line"/>
      <point x="314" y="390" type="line"/>
      <point x="597" y="0" type="line"/>
      <point x="535" y="0" type="line"/>
      <point x="308" y="314" type="line"/>
    </contour>
    <contour>
      <point x="82" y="0" type="line"/>
      <point x="25" y="0" type="line"/>
      <point x="287" y="374" type="line"/>
      <point x="319" y="338" type="line"/>
    </contour>
  </outline>
</glyph>
<glyph name="Y" format="2">
  <advance width="631"/>
  <unicode hex="0059"/>
  <note>
Y
</note>
  <anchor x="350" y="-1.0" name="bottom"/>
  <anchor x="346" y="700.0" name="top"/>
  <anchor x="75" y="700.0" name="topleft"/>
  <outline>
    <contour>
      <point x="548" y="700" type="line"/>
      <point x="606" y="700" type="line"/>
      <point x="335" y="289" type="line"/>
      <point x="350" y="357" type="line"/>
      <point x="350" y="0" type="line"/>
      <point x="301" y="0" type="line"/>
      <point x="301" y="349" type="line"/>
      <point x="308" y="300" type="line"/>
      <point x="25" y="700" type="line"/>
      <point x="87" y="700" type="line"/>
      <point x="335" y="348" type="line"/>
      <point x="318" y="348" type="line"/>
    </contour>
  </outline>
</glyph>
<glyph name="Z" format="2">
  <advance width="637"/>
  <unicode hex="005A"/>
  <note>
Z
</note>
  <anchor x="330.0" y="0" name="bottom"/>
  <anchor x="330.0" y="700.0" name="top"/>
  <outline>
    <contour>
      <point x="86.0" y="700.0" type="line"/>
      <point x="573" y="700.0" type="line"/>
      <point x="573" y="659" type="line"/>
      <point x="110" y="26.0" type="line"/>
      <point x="96.0" y="50" type="line"/>
      <point x="584" y="50" type="line"/>
      <point x="584" y="0.0" type="line"/>
      <point x="60.0" y="0.0" type="line"/>
      <point x="60.0" y="42" type="line"/>
      <point x="525" y="674.0" type="line"/>
      <point x="540" y="650" type="line"/>
      <point x="86.0" y="650" type="line"/>
    </contour>
  </outline>
</glyph>
<glyph name="backslash" format="2">
  <advance width="533"/>
  <unicode hex="005C"/>
  <note>
backslash
</note>
  <outline>
    <contour>
      <point x="493" y="-107" type="line"/>
      <point x="438" y="-107" type="line"/>
      <point x="40" y="700" type="line"/>
      <point x="93" y="700" type="line"/>
    </contour>
  </outline>
</glyph>
<glyph name="asciicircum" format="2">
  <advance width="588"/>
  <unicode hex="005E"/>
  <note>
asciicircum
</note>
  <outline>
    <contour>
      <point x="106" y="368" type="line"/>
      <point x="45" y="368" type="line"/>
      <point x="256" y="727" type="line"/>
      <point x="332" y="727" type="line"/>
      <point x="543" y="368" type="line"/>
      <point x="480" y="368" type="line"/>
      <point x="290" y="694" type="line"/>
      <point x="303" y="701" type="line"/>
    </contour>
  </outline>
</glyph>
<glyph name="underscore" format="2">
  <advance width="694"/>
  <unicode hex="005F"/>
  <note>
underscore
</note>
  <outline>
    <contour>
      <point x="639" y="-130" type="line"/>
      <point x="55" y="-130" type="line"/>
      <point x="55" y="-82" type="line"/>
      <point x="639" y="-82" type="line"/>
    </contour>
  </outline>
</glyph>
<glyph name="grave" format="2">
  <advance width="244"/>
  <unicode hex="0060"/>
  <anchor x="119" y="520.0" name="_top"/>
  <outline>
    <contour>
      <point x="216" y="622" type="line"/>
      <point x="194" y="589" type="line"/>
      <point x="40" y="690" type="line"/>
      <point x="78" y="739" type="line"/>
    </contour>
  </outline>
</glyph>
<glyph name="a" format="2">
  <advance width="608"/>
  <unicode hex="0061"/>
  <note>
a
</note>
  <guideline x="485" y="215" angle="270" identifier="MBcyPfDNFT"/>
  <anchor x="305.0" y="-20.0" name="bottom"/>
  <anchor x="554.0" y="3.0" name="ogonek"/>
  <anchor x="301.0" y="530.0" name="top"/>
  <outline>
    <contour>
      <point x="86" y="261" type="qcurve"/>
      <point x="86.0" y="166.0"/>
      <point x="198" y="40.0"/>
      <point x="288" y="40" type="qcurve"/>
      <point x="374" y="40.0"/>
      <point x="489.0" y="164.0"/>
      <point x="489" y="261" type="qcurve"/>
      <point x="489.0" y="357.0"/>
      <point x="375" y="481.0"/>
      <point x="288" y="481" type="qcurve"/>
      <point x="199" y="481.0"/>
      <point x="86.0" y="357.0"/>
    </contour>
    <contour>
      <point x="487" y="520" type="line"/>
      <point x="535" y="520" type="line"/>
      <point x="535" y="0" type="line"/>
      <point x="485" y="0" type="line"/>
      <point x="485" y="130" type="line"/>
      <point x="502" y="149" type="line"/>
      <point x="483.0" y="82.0"/>
      <point x="361.0" y="-10.0"/>
      <point x="281.0" y="-10.0" type="qcurve"/>
      <point x="175.0" y="-10.0"/>
      <point x="33.0" y="143.0"/>
      <point x="33.0" y="260.0" type="qcurve"/>
      <point x="33.0" y="378.0"/>
      <point x="178.0" y="531.0"/>
      <point x="281.0" y="531.0" type="qcurve"/>
      <point x="361.0" y="531.0"/>
      <point x="483.0" y="440.0"/>
      <point x="502.0" y="372.0" type="qcurve"/>
      <point x="482" y="385" type="line"/>
    </contour>
  </outline>
</glyph>
<glyph name="b" format="2">
  <advance width="569"/>
  <unicode hex="0062"/>
  <note>
b
</note>
  <guideline x="89" y="731" angle="270" identifier="9jFbgCtHq6"/>
  <guideline x="865" y="493" angle="270" identifier="MaBVgWS3Ig"/>
  <guideline x="644" y="76" angle="270" identifier="x0h7L4YUfZ"/>
  <anchor x="260.0" y="0" name="bottom"/>
  <anchor x="260.0" y="510.0" name="top"/>
  <outline>
    <contour>
      <point x="288" y="531" type="qcurve"/>
      <point x="391" y="531.0"/>
      <point x="536.0" y="378.0"/>
      <point x="536" y="260" type="qcurve"/>
      <point x="536.0" y="143.0"/>
      <point x="394" y="-10.0"/>
      <point x="288" y="-10" type="qcurve"/>
      <point x="208" y="-10.0"/>
      <point x="87" y="81"/>
      <point x="68" y="148" type="qcurve"/>
      <point x="86" y="132" type="line"/>
      <point x="81" y="0" type="line"/>
      <point x="33" y="0" type="line"/>
      <point x="33" y="740" type="line"/>
      <point x="83" y="740" type="line"/>
      <point x="83" y="390" type="line"/>
      <point x="68" y="373" type="line"/>
      <point x="86.99361418843593" y="439.977481611853"/>
      <point x="208" y="531.0"/>
    </contour>
    <contour>
      <point x="483" y="261" type="qcurve"/>
      <point x="483.0" y="357.0"/>
      <point x="370.0" y="481.0"/>
      <point x="281" y="481" type="qcurve"/>
      <point x="193.43349753694582" y="481.0"/>
      <point x="79.0" y="357.0"/>
      <point x="79" y="261" type="qcurve"/>
      <point x="79.0" y="164.0"/>
      <point x="194.42857142857142" y="40.0"/>
      <point x="281" y="40" type="qcurve"/>
      <point x="371.0" y="40.0"/>
      <point x="483.0" y="166.0"/>
    </contour>
  </outline>
</glyph>
<glyph name="c" format="2">
  <advance width="542"/>
  <unicode hex="0063"/>
  <note>
c
</note>
  <guideline x="472" y="221" angle="270" identifier="bQ3FHCkiWd"/>
  <anchor x="259.0" y="0" name="bottom"/>
  <anchor x="299.0" y="530.0" name="top"/>
  <outline>
    <contour>
      <point x="298" y="481" type="qcurve"/>
      <point x="210" y="481"/>
      <point x="93" y="357"/>
      <point x="93" y="261" type="qcurve"/>
      <point x="93" y="165"/>
      <point x="209" y="40"/>
      <point x="295" y="40" type="qcurve"/>
      <point x="345" y="40"/>
      <point x="437" y="84"/>
      <point x="471" y="124" type="qcurve"/>
      <point x="503" y="85" type="line"/>
      <point x="467" y="40"/>
      <point x="362" y="-10"/>
      <point x="299" y="-10" type="qcurve"/>
      <point x="186" y="-10"/>
      <point x="40" y="143"/>
      <point x="40" y="261" type="qcurve"/>
      <point x="40" y="379"/>
      <point x="187" y="531"/>
      <point x="302" y="531" type="qcurve"/>
      <point x="366" y="531"/>
      <point x="471" y="481"/>
      <point x="506" y="436" type="qcurve"/>
      <point x="474" y="397" type="line"/>
      <point x="441" y="437"/>
      <point x="349" y="481"/>
    </contour>
  </outline>
</glyph>
<glyph name="d" format="2">
  <advance width="608"/>
  <unicode hex="0064"/>
  <note>
d
</note>
  <anchor x="314.0" y="-20.0" name="bottom"/>
  <anchor x="479.0" y="614.0" name="center"/>
  <anchor x="314.0" y="530.0" name="top"/>
  <anchor x="601.0" y="510.0" name="topright"/>
  <outline>
    <contour>
      <point x="86" y="261" type="qcurve"/>
      <point x="86.0" y="166.0"/>
      <point x="198" y="40.0"/>
      <point x="288" y="40" type="qcurve"/>
      <point x="374" y="40.0"/>
      <point x="489.0" y="164.0"/>
      <point x="489" y="261" type="qcurve"/>
      <point x="489.0" y="357.0"/>
      <point x="375" y="481.0"/>
      <point x="288" y="481" type="qcurve"/>
      <point x="199" y="481.0"/>
      <point x="86.0" y="357.0"/>
    </contour>
    <contour>
      <point x="485" y="740" type="line"/>
      <point x="535" y="740" type="line"/>
      <point x="535" y="0" type="line"/>
      <point x="487" y="0" type="line"/>
      <point x="483" y="135" type="line"/>
      <point x="502" y="149" type="line"/>
      <point x="483.0" y="82.0"/>
      <point x="361.0" y="-10.0"/>
      <point x="281.0" y="-10.0" type="qcurve"/>
      <point x="175.0" y="-10.0"/>
      <point x="33.0" y="143.0"/>
      <point x="33.0" y="260.0" type="qcurve"/>
      <point x="33.0" y="378.0"/>
      <point x="178.0" y="531.0"/>
      <point x="281.0" y="531.0" type="qcurve"/>
      <point x="361.0" y="531.0"/>
      <point x="483.0" y="440.0"/>
      <point x="502.0" y="372.0" type="qcurve"/>
      <point x="485" y="389" type="line"/>
    </contour>
  </outline>
</glyph>
<glyph name="e" format="2">
  <advance width="546"/>
  <unicode hex="0065"/>
  <note>
e
</note>
  <guideline x="280" y="395" angle="270.0" name="center" identifier="pMo2q2Zdo2"/>
  <anchor x="285.0" y="0" name="bottom"/>
  <anchor x="470.0" y="10.0" name="ogonek"/>
  <anchor x="286.0" y="520" name="top"/>
  <outline>
    <contour>
      <point x="469" y="104" type="qcurve"/>
      <point x="495" y="67" type="line"/>
      <point x="462" y="35"/>
      <point x="361" y="-10"/>
      <point x="296" y="-10" type="qcurve"/>
      <point x="183" y="-10"/>
      <point x="38" y="140"/>
      <point x="38" y="261" type="qcurve"/>
      <point x="38" y="378"/>
      <point x="178" y="531"/>
      <point x="289" y="531" type="qcurve"/>
      <point x="398" y="531"/>
      <point x="518" y="392"/>
      <point x="518" y="282" type="qcurve"/>
      <point x="517" y="255" type="line"/>
      <point x="75" y="255" type="line"/>
      <point x="75" y="301" type="line"/>
      <point x="490" y="301" type="line"/>
      <point x="468" y="283" type="line"/>
      <point x="468" y="307" type="line"/>
      <point x="469" y="367"/>
      <point x="380" y="481"/>
      <point x="288" y="481" type="qcurve"/>
      <point x="203" y="481"/>
      <point x="91" y="370"/>
      <point x="91" y="264" type="qcurve"/>
      <point x="91" y="162"/>
      <point x="202" y="40"/>
      <point x="305" y="40" type="qcurve"/>
      <point x="342" y="40"/>
      <point x="420" y="64"/>
    </contour>
  </outline>
</glyph>
<glyph name="f" format="2">
  <advance width="381"/>
  <unicode hex="0066"/>
  <note>
f
</note>
  <anchor x="168" y="0" name="bottom"/>
  <anchor x="168" y="510.0" name="top"/>
  <outline>
    <contour>
      <point x="336" y="520" type="line"/>
      <point x="336" y="474" type="line"/>
      <point x="43" y="474" type="line"/>
      <point x="43" y="520" type="line"/>
    </contour>
    <contour>
      <point x="267" y="735" type="qcurve"/>
      <point x="299.0" y="735.0"/>
      <point x="347" y="713"/>
      <point x="364" y="693" type="qcurve"/>
      <point x="345" y="653" type="line"/>
      <point x="326" y="674"/>
      <point x="284" y="689"/>
      <point x="265" y="689" type="qcurve"/>
      <point x="231.0" y="689.0"/>
      <point x="194" y="653"/>
      <point x="194" y="620" type="qcurve"/>
      <point x="194" y="0" type="line" smooth="yes"/>
      <point x="194" y="0"/>
      <point x="157" y="0"/>
      <point x="144" y="0" type="qcurve"/>
      <point x="144" y="621" type="line"/>
      <point x="144.0" y="670"/>
      <point x="211.0" y="735.0"/>
    </contour>
  </outline>
</glyph>
<glyph name="g" format="2">
  <advance width="606"/>
  <unicode hex="0067"/>
  <note>
g
</note>
  <anchor x="315.0" y="0" name="bottom"/>
  <anchor x="315.0" y="535.0" name="top"/>
  <outline>
    <contour>
      <point x="81" y="260" type="qcurve"/>
      <point x="81" y="165"/>
      <point x="198" y="41"/>
      <point x="289" y="41" type="qcurve"/>
      <point x="375" y="41"/>
      <point x="487" y="165"/>
      <point x="487" y="260" type="qcurve"/>
      <point x="487" y="356"/>
      <point x="373" y="481"/>
      <point x="285" y="481" type="qcurve"/>
      <point x="196" y="481"/>
      <point x="81" y="356"/>
    </contour>
    <contour>
      <point x="482" y="131" type="line"/>
      <point x="490" y="127" type="line"/>
      <point x="473" y="68"/>
      <point x="360" y="-9"/>
      <point x="289" y="-9" type="qcurve"/>
      <point x="175" y="-9"/>
      <point x="28" y="143"/>
      <point x="28" y="260" type="qcurve"/>
      <point x="28" y="378"/>
      <point x="167" y="531"/>
      <point x="274" y="531" type="qcurve"/>
      <point x="349" y="531"/>
      <point x="473" y="449"/>
      <point x="495" y="385" type="qcurve"/>
      <point x="480" y="399" type="line"/>
      <point x="485" y="520" type="line"/>
      <point x="533" y="520" type="line"/>
      <point x="533" y="32" type="line"/>
      <point x="533" y="-93"/>
      <point x="394" y="-230"/>
      <point x="285" y="-230" type="qcurve"/>
      <point x="225" y="-230"/>
      <point x="129" y="-193"/>
      <point x="94" y="-167" type="qcurve"/>
      <point x="117" y="-120" type="line"/>
      <point x="147" y="-145"/>
      <point x="233" y="-180"/>
      <point x="287" y="-180" type="qcurve"/>
      <point x="377" y="-180"/>
      <point x="482" y="-70"/>
      <point x="482" y="38" type="qcurve"/>
    </contour>
  </outline>
</glyph>
<glyph name="h" format="2">
  <advance width="558"/>
  <unicode hex="0068"/>
  <note>
h
</note>
  <guideline x="297.5" y="0" angle="270.0" identifier="IcEqilVbz3"/>
  <anchor x="276.0" y="0" name="bottom"/>
  <anchor x="100.0" y="593.0" name="center"/>
  <anchor x="99.0" y="729.0" name="top"/>
  <outline>
    <contour>
      <point x="309" y="531" type="qcurve"/>
      <point x="399" y="531"/>
      <point x="486" y="426"/>
      <point x="486" y="315" type="qcurve"/>
      <point x="486" y="0" type="line"/>
      <point x="436" y="0" type="line"/>
      <point x="436" y="313" type="line"/>
      <point x="436" y="400"/>
      <point x="368" y="483"/>
      <point x="298" y="483" type="qcurve" smooth="yes"/>
      <point x="224" y="483"/>
      <point x="123" y="383"/>
      <point x="123" y="318" type="qcurve"/>
      <point x="123" y="0" type="line"/>
      <point x="97" y="0"/>
      <point x="99" y="0"/>
      <point x="73" y="0" type="qcurve"/>
      <point x="73" y="740" type="line"/>
      <point x="123" y="740" type="line"/>
      <point x="123" y="400" type="line"/>
      <point x="111" y="381" type="line"/>
      <point x="127" y="451"/>
      <point x="246.14285714285714" y="531.0"/>
    </contour>
  </outline>
</glyph>
<glyph name="k" format="2">
  <advance width="512"/>
  <unicode hex="006B"/>
  <note>
k
</note>
  <anchor x="253.0" y="0" name="bottom"/>
  <anchor x="253.0" y="510.0" name="top"/>
  <outline>
    <contour>
      <point x="125" y="0" type="line"/>
      <point x="75" y="0" type="line"/>
      <point x="75" y="740" type="line"/>
      <point x="125" y="740" type="line"/>
    </contour>
    <contour>
      <point x="410" y="520" type="line"/>
      <point x="476" y="520" type="line"/>
      <point x="117" y="172" type="line"/>
      <point x="117" y="235" type="line"/>
    </contour>
    <contour>
      <point x="504" y="0" type="line"/>
      <point x="438" y="0" type="line"/>
      <point x="198" y="278" type="line"/>
      <point x="232" y="315" type="line"/>
    </contour>
  </outline>
</glyph>
<glyph name="l" format="2">
  <advance width="200"/>
  <unicode hex="006C"/>
  <note>
l
</note>
  <guideline x="100.0" y="0" angle="270.0" identifier="oa3Qv1rNST"/>
  <anchor x="100" y="0" name="bottom"/>
  <anchor x="237" y="289" name="center"/>
  <anchor x="101" y="740" name="top"/>
  <anchor x="201" y="700" name="topright"/>
  <outline>
    <contour>
      <point x="125" y="0" type="line"/>
      <point x="75" y="0" type="line"/>
      <point x="75" y="740" type="line"/>
      <point x="125" y="740" type="line"/>
    </contour>
  </outline>
</glyph>
<glyph name="m" format="2">
  <advance width="901"/>
  <unicode hex="006D"/>
  <note>
m
</note>
  <guideline x="130" y="421" angle="0" identifier="yWfZUqe5W8"/>
  <anchor x="468.0" y="0" name="bottom"/>
  <anchor x="468.0" y="510.0" name="top"/>
  <outline>
    <contour>
      <point x="299" y="531" type="qcurve"/>
      <point x="370" y="531"/>
      <point x="455" y="468"/>
      <point x="475" y="375" type="qcurve"/>
      <point x="463" y="398" type="line"/>
      <point x="470" y="415" type="line" smooth="yes"/>
      <point x="488" y="459"/>
      <point x="594" y="531"/>
      <point x="651" y="531" type="qcurve"/>
      <point x="742" y="531"/>
      <point x="829" y="426"/>
      <point x="829" y="315" type="qcurve"/>
      <point x="829" y="0" type="line"/>
      <point x="779" y="0" type="line"/>
      <point x="779" y="313" type="line"/>
      <point x="779" y="400"/>
      <point x="714" y="483"/>
      <point x="646" y="483" type="qcurve" smooth="yes"/>
      <point x="574" y="483"/>
      <point x="476" y="383"/>
      <point x="476" y="318" type="qcurve"/>
      <point x="476" y="0" type="line"/>
      <point x="426" y="0" type="line"/>
      <point x="426" y="313" type="line"/>
      <point x="426" y="400"/>
      <point x="360" y="483"/>
      <point x="293" y="483" type="qcurve" smooth="yes"/>
      <point x="221" y="483"/>
      <point x="123" y="383"/>
      <point x="123" y="318" type="qcurve"/>
      <point x="123" y="0" type="line"/>
      <point x="73" y="0" type="line"/>
      <point x="73" y="520" type="line"/>
      <point x="121" y="520" type="line"/>
      <point x="126" y="394" type="line"/>
      <point x="112" y="397" type="line"/>
      <point x="144" y="468"/>
      <point x="246" y="531"/>
    </contour>
  </outline>
</glyph>
<glyph name="n" format="2">
  <advance width="558"/>
  <unicode hex="006E"/>
  <note>
n
</note>
  <anchor x="288.0624850906489" y="0" name="bottom"/>
  <anchor x="288.0624850906489" y="510.0" name="top"/>
  <outline>
    <contour>
      <point x="309" y="531" type="qcurve"/>
      <point x="399" y="531"/>
      <point x="486" y="426"/>
      <point x="486" y="315" type="qcurve"/>
      <point x="486" y="0.0" type="line"/>
      <point x="436" y="0.0" type="line"/>
      <point x="436" y="313.0" type="line"/>
      <point x="436" y="400"/>
      <point x="368" y="483"/>
      <point x="298" y="483" type="qcurve" smooth="yes"/>
      <point x="224" y="483"/>
      <point x="123" y="383"/>
      <point x="123" y="318.0" type="qcurve"/>
      <point x="123" y="0.0" type="line"/>
      <point x="97" y="0.0"/>
      <point x="99" y="0.0"/>
      <point x="73" y="0.0" type="qcurve"/>
      <point x="73" y="520" type="line"/>
      <point x="121" y="520" type="line"/>
      <point x="126" y="410" type="line"/>
      <point x="120" y="410" type="line"/>
      <point x="136" y="459"/>
      <point x="249" y="531"/>
    </contour>
  </outline>
</glyph>
<glyph name="o" format="2">
  <advance width="591"/>
  <unicode hex="006F"/>
  <note>
o
</note>
  <anchor x="294.33034649332063" y="0" name="bottom"/>
  <anchor x="294.33034649332063" y="256.0" name="center"/>
  <anchor x="536.3303464933207" y="10.0" name="ogonek"/>
  <anchor x="294.33034649332063" y="513.0" name="top"/>
  <anchor x="308.33034649332063" y="531.0" name="topright"/>
  <outline>
    <contour>
      <point x="296" y="531" type="qcurve"/>
      <point x="413" y="531"/>
      <point x="563" y="380"/>
      <point x="563" y="263" type="qcurve"/>
      <point x="563" y="144"/>
      <point x="413" y="-10.0"/>
      <point x="296" y="-10.0" type="qcurve"/>
      <point x="179" y="-10.0"/>
      <point x="28" y="144"/>
      <point x="28" y="263" type="qcurve"/>
      <point x="28" y="380"/>
      <point x="179" y="531"/>
    </contour>
    <contour>
      <point x="296" y="40" type="qcurve"/>
      <point x="389" y="40"/>
      <point x="510" y="166"/>
      <point x="510" y="263" type="qcurve" smooth="yes"/>
      <point x="510" y="358"/>
      <point x="389" y="481"/>
      <point x="296" y="481" type="qcurve"/>
      <point x="202" y="481"/>
      <point x="81" y="358"/>
      <point x="81" y="263" type="qcurve" smooth="yes"/>
      <point x="81" y="166"/>
      <point x="202" y="40"/>
    </contour>
  </outline>
</glyph>
<glyph name="p" format="2">
  <advance width="610"/>
  <unicode hex="0070"/>
  <note>
p
</note>
  <anchor x="302.0624850906489" y="0" name="bottom"/>
  <anchor x="302.0624850906489" y="510.0" name="top"/>
  <outline>
    <contour>
      <point x="334" y="531" type="qcurve"/>
      <point x="439" y="531"/>
      <point x="578" y="378"/>
      <point x="578" y="260" type="qcurve"/>
      <point x="578" y="143"/>
      <point x="431" y="-9.0"/>
      <point x="317" y="-9.0" type="qcurve"/>
      <point x="244.8894472361809" y="-9.0"/>
      <point x="130.16063288929848" y="73.97192114890518"/>
      <point x="112" y="137.0" type="qcurve"/>
      <point x="123" y="131.0" type="line"/>
      <point x="123" y="-220.0" type="line"/>
      <point x="73" y="-220.0" type="line"/>
      <point x="73" y="520" type="line"/>
      <point x="121" y="520" type="line"/>
      <point x="126" y="399" type="line"/>
      <point x="117" y="383" type="line"/>
      <point x="139" y="448"/>
      <point x="257" y="531"/>
    </contour>
    <contour>
      <point x="525" y="260" type="qcurve"/>
      <point x="525.0" y="356.0"/>
      <point x="410" y="481.0"/>
      <point x="321" y="481" type="qcurve"/>
      <point x="233.0" y="481.0"/>
      <point x="119.0" y="356.1300448430493"/>
      <point x="119" y="260" type="qcurve"/>
      <point x="119.0" y="164.86877828054298"/>
      <point x="231.0" y="41.0"/>
      <point x="317" y="41" type="qcurve"/>
      <point x="407.6919431279621" y="41.0"/>
      <point x="525.0" y="165.0"/>
    </contour>
  </outline>
</glyph>
<glyph name="q" format="2">
  <advance width="611"/>
  <unicode hex="0071"/>
  <note>
q
</note>
  <anchor x="308.0" y="0" name="bottom"/>
  <anchor x="308.0" y="510.0" name="top"/>
  <outline>
    <contour>
      <point x="86" y="261" type="qcurve"/>
      <point x="86.0" y="166.0"/>
      <point x="198" y="40.0"/>
      <point x="288" y="40" type="qcurve"/>
      <point x="375.42857142857144" y="40.0"/>
      <point x="492.0" y="164.0"/>
      <point x="492" y="261" type="qcurve"/>
      <point x="492.0" y="357.0"/>
      <point x="376.4334975369458" y="481.0"/>
      <point x="288" y="481" type="qcurve"/>
      <point x="199" y="481.0"/>
      <point x="86.0" y="357.0"/>
    </contour>
    <contour>
      <point x="488" y="520" type="move"/>
      <point x="538" y="520" type="line"/>
      <point x="538" y="-220" type="line"/>
      <point x="488" y="-220" type="line"/>
      <point x="488" y="131" type="line"/>
      <point x="502" y="149" type="line"/>
      <point x="483" y="82"/>
      <point x="361.0" y="-10.0"/>
      <point x="281.0" y="-10.0" type="qcurve"/>
      <point x="175" y="-10.0"/>
      <point x="33.0" y="143.0"/>
      <point x="33.0" y="260.0" type="qcurve"/>
      <point x="33.0" y="378.0"/>
      <point x="178" y="531.0"/>
      <point x="281.0" y="531.0" type="qcurve"/>
      <point x="361.0" y="531.0"/>
      <point x="483" y="440"/>
      <point x="502.0" y="372.0" type="qcurve"/>
      <point x="483" y="385" type="line"/>
      <point x="488" y="520" type="line"/>
    </contour>
  </outline>
</glyph>
<glyph name="r" format="2">
  <advance width="365"/>
  <unicode hex="0072"/>
  <note>
r
</note>
  <anchor x="99.0" y="0" name="bottom"/>
  <anchor x="190.0" y="510.0" name="top"/>
  <outline>
    <contour>
      <point x="345" y="523" type="qcurve"/>
      <point x="330" y="465" type="line"/>
      <point x="316" y="471"/>
      <point x="290" y="475"/>
      <point x="280" y="475" type="qcurve"/>
      <point x="200" y="475"/>
      <point x="123" y="370"/>
      <point x="123" y="302" type="qcurve"/>
      <point x="123" y="0" type="line"/>
      <point x="73" y="0" type="line"/>
      <point x="73" y="520" type="line"/>
      <point x="121" y="520" type="line"/>
      <point x="126" y="404" type="line"/>
      <point x="119" y="404" type="line"/>
      <point x="136" y="454"/>
      <point x="221" y="531"/>
      <point x="287" y="531" type="qcurve"/>
      <point x="304" y="531"/>
      <point x="333" y="526"/>
    </contour>
  </outline>
</glyph>
<glyph name="s" format="2">
  <advance width="479"/>
  <unicode hex="0073"/>
  <note>
s
</note>
  <guideline x="239.5" y="0" angle="270.0" name="center" identifier="cTBXNE9Sem"/>
  <anchor x="242.0" y="0.0" name="bottom"/>
  <anchor x="241.0" y="520" name="top"/>
  <outline>
    <contour>
      <point x="40" y="81" type="qcurve"/>
      <point x="78" y="114" type="line"/>
      <point x="105" y="78"/>
      <point x="191" y="39"/>
      <point x="245" y="39" type="qcurve"/>
      <point x="305" y="39"/>
      <point x="380" y="89"/>
      <point x="380" y="133" type="qcurve" smooth="yes"/>
      <point x="380" y="170"/>
      <point x="313" y="222"/>
      <point x="239" y="241" type="qcurve"/>
      <point x="144" y="263"/>
      <point x="58" y="331"/>
      <point x="58" y="385" type="qcurve" smooth="yes"/>
      <point x="58" y="449"/>
      <point x="158" y="531"/>
      <point x="235" y="531" type="qcurve" smooth="yes"/>
      <point x="291" y="531"/>
      <point x="395" y="484"/>
      <point x="429" y="447" type="qcurve"/>
      <point x="395" y="410" type="line"/>
      <point x="365" y="443"/>
      <point x="277" y="485"/>
      <point x="238" y="485" type="qcurve" smooth="yes"/>
      <point x="183" y="485"/>
      <point x="111" y="430"/>
      <point x="111" y="388" type="qcurve" smooth="yes"/>
      <point x="111" y="352"/>
      <point x="178" y="307"/>
      <point x="252" y="290" type="qcurve"/>
      <point x="347" y="268"/>
      <point x="432" y="195"/>
      <point x="432" y="137" type="qcurve" smooth="yes"/>
      <point x="432" y="73"/>
      <point x="326" y="-10"/>
      <point x="242" y="-10" type="qcurve" smooth="yes"/>
      <point x="174" y="-10"/>
      <point x="68" y="43"/>
    </contour>
  </outline>
</glyph>
<glyph name="t" format="2">
  <advance width="383"/>
  <unicode hex="0074"/>
  <note>
t
</note>
  <anchor x="182" y="0" name="bottom"/>
  <anchor x="182" y="256.0" name="center"/>
  <anchor x="183" y="646.0" name="top"/>
  <anchor x="308" y="548.0" name="topright"/>
  <outline>
    <contour>
      <point x="208" y="659" type="line"/>
      <point x="208" y="0" type="line"/>
      <point x="158" y="0" type="line"/>
      <point x="158" y="659" type="line"/>
    </contour>
    <contour>
      <point x="347" y="520" type="line"/>
      <point x="347" y="474" type="line"/>
      <point x="33" y="474" type="line"/>
      <point x="33" y="520" type="line"/>
    </contour>
  </outline>
</glyph>
<glyph name="u" format="2">
  <advance width="560"/>
  <unicode hex="0075"/>
  <note>
u
</note>
  <anchor x="269.0" y="0" name="bottom"/>
  <anchor x="500.0" y="0" name="ogonek"/>
  <anchor x="272.0" y="510.0" name="top"/>
  <anchor x="356.0" y="532.0" name="topright"/>
  <outline>
    <contour>
      <point x="261" y="38" type="qcurve" smooth="yes"/>
      <point x="335" y="38"/>
      <point x="437" y="137"/>
      <point x="437" y="202" type="qcurve"/>
      <point x="437" y="520" type="line"/>
      <point x="463" y="520"/>
      <point x="461" y="520"/>
      <point x="487" y="520" type="qcurve"/>
      <point x="487" y="0" type="line"/>
      <point x="439" y="0" type="line"/>
      <point x="434" y="110" type="line"/>
      <point x="440" y="110" type="line"/>
      <point x="424" y="61"/>
      <point x="317" y="-10"/>
      <point x="260" y="-10" type="qcurve"/>
      <point x="164" y="-10"/>
      <point x="72" y="94"/>
      <point x="72" y="205" type="qcurve"/>
      <point x="72" y="520" type="line"/>
      <point x="122" y="520" type="line"/>
      <point x="122" y="207" type="line"/>
      <point x="122" y="120"/>
      <point x="190" y="38"/>
    </contour>
  </outline>
</glyph>
<glyph name="v" format="2">
  <advance width="548"/>
  <unicode hex="0076"/>
  <note>
v
</note>
  <anchor x="277" y="0" name="bottom"/>
  <anchor x="277" y="510.0" name="top"/>
  <outline>
    <contour>
      <point x="41" y="520" type="line"/>
      <point x="99" y="520" type="line"/>
      <point x="285" y="61" type="line"/>
      <point x="264" y="47" type="line"/>
      <point x="474" y="520" type="line"/>
      <point x="530" y="520" type="line"/>
      <point x="294" y="0" type="line"/>
      <point x="260" y="0" type="line"/>
    </contour>
  </outline>
</glyph>
<glyph name="w" format="2">
  <advance width="763"/>
  <unicode hex="0077"/>
  <note>
w
</note>
  <anchor x="392" y="0" name="bottom"/>
  <anchor x="392" y="505.0" name="top"/>
  <outline>
    <contour>
      <point x="18" y="520" type="line"/>
      <point x="76" y="520" type="line"/>
      <point x="229" y="66" type="line"/>
      <point x="202" y="68" type="line"/>
      <point x="368" y="442" type="line"/>
      <point x="398" y="442" type="line"/>
      <point x="564" y="68" type="line"/>
      <point x="532" y="66" type="line"/>
      <point x="690" y="520" type="line"/>
      <point x="745" y="520" type="line"/>
      <point x="561" y="0" type="line"/>
      <point x="542" y="0" type="line"/>
      <point x="365" y="407" type="line"/>
      <point x="401" y="407" type="line"/>
      <point x="224" y="0" type="line"/>
      <point x="202" y="0" type="line"/>
    </contour>
  </outline>
</glyph>
<glyph name="x" format="2">
  <advance width="536"/>
  <unicode hex="0078"/>
  <note>
x
</note>
  <anchor x="268.0" y="0" name="bottom"/>
  <anchor x="268.0" y="510.0" name="top"/>
  <outline>
    <contour>
      <point x="36" y="520" type="line"/>
      <point x="99" y="520" type="line"/>
      <point x="287" y="280" type="line"/>
      <point x="508" y="0" type="line"/>
      <point x="445" y="0" type="line"/>
      <point x="250" y="248" type="line"/>
    </contour>
    <contour>
      <point x="439" y="520" type="line"/>
      <point x="500" y="520" type="line"/>
      <point x="294" y="257" type="line"/>
      <point x="264" y="293" type="line"/>
    </contour>
    <contour>
      <point x="89" y="0" type="line"/>
      <point x="28" y="0" type="line"/>
      <point x="247" y="279" type="line"/>
      <point x="277" y="243" type="line"/>
    </contour>
  </outline>
</glyph>
<glyph name="y" format="2">
  <advance width="548"/>
  <unicode hex="0079"/>
  <note>
y
</note>
  <anchor x="471" y="0" name="bottom"/>
  <anchor x="266" y="510.0" name="top"/>
  <outline>
    <contour>
      <point x="296" y="39" type="line"/>
      <point x="279" y="-32" type="line"/>
      <point x="22" y="520" type="line"/>
      <point x="75" y="520" type="line"/>
      <point x="268" y="106" type="line"/>
    </contour>
    <contour>
      <point x="228" y="-230" type="line"/>
      <point x="176" y="-230" type="line"/>
      <point x="255" y="-30" type="line"/>
      <point x="277" y="30" type="line"/>
      <point x="306" y="106" type="line"/>
      <point x="473" y="520" type="line"/>
      <point x="526" y="520" type="line"/>
      <point x="316" y="-9" type="line"/>
    </contour>
  </outline>
</glyph>
<glyph name="z" format="2">
  <advance width="445"/>
  <unicode hex="007A"/>
  <note>
z
</note>
  <guideline x="38" y="48" angle="0" identifier="BcRnwbfhd3"/>
  <guideline x="439" y="472" angle="0" identifier="5ydxyOYZoc"/>
  <guideline x="222.5" y="0" angle="270.0" identifier="jAvRfAl9K1"/>
  <anchor x="222.0" y="0" name="bottom"/>
  <anchor x="222.0" y="520" name="top"/>
  <outline>
    <contour>
      <point x="70" y="48" type="line"/>
      <point x="407" y="48" type="line"/>
      <point x="407" y="0" type="line"/>
      <point x="38" y="0" type="line"/>
      <point x="38" y="46" type="line"/>
      <point x="342" y="492" type="line"/>
      <point x="359" y="472" type="line"/>
      <point x="38" y="472" type="line"/>
      <point x="38" y="520" type="line"/>
      <point x="391" y="520" type="line"/>
      <point x="391" y="474" type="line"/>
      <point x="84" y="24" type="line"/>
    </contour>
  </outline>
</glyph>
<glyph name="braceleft" format="2">
  <advance width="405"/>
  <unicode hex="007B"/>
  <note>
braceleft
</note>
  <outline>
    <contour>
      <point x="375" y="-154" type="qcurve"/>
      <point x="365" y="-192" type="line"/>
      <point x="283" y="-173"/>
      <point x="196" y="-86"/>
      <point x="196" y="-7" type="qcurve"/>
      <point x="197" y="88" type="line"/>
      <point x="197" y="154"/>
      <point x="138" y="228"/>
      <point x="83" y="229" type="qcurve"/>
      <point x="50" y="229" type="line"/>
      <point x="50" y="271" type="line"/>
      <point x="85" y="271" type="line"/>
      <point x="140" y="272"/>
      <point x="197" y="345"/>
      <point x="197" y="412" type="qcurve"/>
      <point x="196" y="507" type="line"/>
      <point x="196" y="586"/>
      <point x="283" y="673"/>
      <point x="365" y="692" type="qcurve"/>
      <point x="375" y="654" type="line"/>
      <point x="301" y="629"/>
      <point x="245" y="565"/>
      <point x="245" y="493" type="qcurve"/>
      <point x="247" y="398" type="line"/>
      <point x="247" y="340"/>
      <point x="200" y="263"/>
      <point x="153" y="249" type="qcurve"/>
      <point x="152" y="252" type="line"/>
      <point x="200" y="235"/>
      <point x="247" y="159"/>
      <point x="247" y="102" type="qcurve"/>
      <point x="245" y="7" type="line"/>
      <point x="245" y="-65"/>
      <point x="301" y="-129"/>
    </contour>
  </outline>
</glyph>
<glyph name="bar" format="2">
  <advance width="228"/>
  <unicode hex="007C"/>
  <note>
bar
</note>
  <outline>
    <contour>
      <point x="138" y="740" type="line"/>
      <point x="138" y="-193" type="line"/>
      <point x="90" y="-193" type="line"/>
      <point x="90" y="740" type="line"/>
    </contour>
  </outline>
</glyph>
<glyph name="asciitilde" format="2">
  <advance width="510"/>
  <unicode hex="007E"/>
  <note>
asciitilde
</note>
  <outline>
    <contour>
      <point x="358.0" y="245.0" type="qcurve"/>
      <point x="342.7435897435897" y="245.0"/>
      <point x="293.81255317543946" y="257.6990543794669"/>
      <point x="239.0" y="278.0" type="qcurve" smooth="yes"/>
      <point x="196.2118106987299" y="294.9162608865486"/>
      <point x="161.0" y="304.0"/>
      <point x="151.0" y="304.0" type="qcurve" smooth="yes"/>
      <point x="124.0" y="304.0"/>
      <point x="96.0" y="274.51724137931035"/>
      <point x="96.0" y="247.0" type="qcurve"/>
      <point x="58.0" y="247.0" type="line"/>
      <point x="58.0" y="295.0"/>
      <point x="111.48076923076923" y="349.0"/>
      <point x="161.0" y="349.0" type="qcurve"/>
      <point x="177.13913043478263" y="349.0"/>
      <point x="224.6091378461848" y="336.15784817750233"/>
      <point x="277.0" y="315.0" type="qcurve" smooth="yes"/>
      <point x="318.7987327067556" y="299.0766732545693"/>
      <point x="352.0" y="290.0"/>
      <point x="361.0" y="290.0" type="qcurve"/>
      <point x="385.5098039215686" y="290.0"/>
      <point x="412" y="317"/>
      <point x="411.0" y="339.0" type="qcurve"/>
      <point x="452.0" y="339.0" type="line"/>
      <point x="452.0" y="294.04347826086956"/>
      <point x="404.0208333333333" y="245.0"/>
    </contour>
  </outline>
</glyph>
<glyph name="cent" format="2">
  <advance width="545"/>
  <unicode hex="00A2"/>
  <note>
cent
</note>
  <anchor x="277" y="88.0" name="bottom"/>
  <anchor x="317" y="618.0" name="top"/>
  <outline>
    <contour>
      <point x="321" y="87" type="line"/>
      <point x="321" y="0" type="line"/>
      <point x="271" y="0" type="line"/>
      <point x="271" y="88" type="line"/>
      <point x="272" y="122" type="line"/>
      <point x="272" y="577" type="line"/>
      <point x="271" y="606" type="line"/>
      <point x="271" y="700" type="line"/>
      <point x="321" y="700" type="line"/>
      <point x="321" y="605" type="line"/>
      <point x="320" y="577" type="line"/>
      <point x="320" y="121" type="line"/>
    </contour>
    <component base="c" xOffset="18" yOffset="88"/>
  </outline>
</glyph>
<glyph name="currency" format="2">
  <advance width="559"/>
  <unicode hex="00A4"/>
  <note>
currency
</note>
  <guideline x="68" y="438" angle="270" identifier="xc88K0kDs4"/>
  <guideline x="491" y="473" angle="270" identifier="0Emht1YgFv"/>
  <guideline x="414" y="106" angle="0" identifier="WIr95G8QF0"/>
  <guideline x="116" y="504" angle="0" identifier="sVOWFVZxlX"/>
  <outline>
    <contour>
      <point x="457" y="302" type="qcurve"/>
      <point x="457" y="227"/>
      <point x="353" y="122"/>
      <point x="279" y="122" type="qcurve"/>
      <point x="205" y="122"/>
      <point x="101" y="227"/>
      <point x="101" y="302" type="qcurve"/>
      <point x="101" y="377"/>
      <point x="205" y="482"/>
      <point x="279" y="482" type="qcurve"/>
      <point x="352" y="482"/>
      <point x="457" y="376"/>
    </contour>
    <contour>
      <point x="148" y="302" type="qcurve"/>
      <point x="148" y="243"/>
      <point x="221" y="168"/>
      <point x="279" y="168" type="qcurve"/>
      <point x="338" y="168"/>
      <point x="410" y="243"/>
      <point x="410" y="302" type="qcurve"/>
      <point x="410" y="360"/>
      <point x="338" y="436"/>
      <point x="279" y="436" type="qcurve"/>
      <point x="221" y="436"/>
      <point x="148" y="360"/>
    </contour>
    <contour>
      <point x="148" y="393" type="line"/>
      <point x="68" y="468" type="line"/>
      <point x="103" y="504" type="line"/>
      <point x="184" y="428" type="line"/>
    </contour>
    <contour>
      <point x="456" y="106" type="line"/>
      <point x="375" y="182" type="line"/>
      <point x="411" y="217" type="line"/>
      <point x="491" y="142" type="line"/>
    </contour>
    <contour>
      <point x="375" y="428" type="line"/>
      <point x="456" y="504" type="line"/>
      <point x="491" y="468" type="line"/>
      <point x="411" y="393" type="line"/>
    </contour>
    <contour>
      <point x="68" y="142" type="line"/>
      <point x="148" y="217" type="line"/>
      <point x="184" y="182" type="line"/>
      <point x="103" y="106" type="line"/>
    </contour>
  </outline>
</glyph>
<glyph name="yen" format="2">
  <advance width="641"/>
  <unicode hex="00A5"/>
  <note>
yen
</note>
  <anchor x="340" y="-1.0" name="bottom"/>
  <anchor x="336" y="700.0" name="top"/>
  <anchor x="65" y="700.0" name="topleft"/>
  <outline>
    <contour>
      <point x="513" y="124" type="line"/>
      <point x="151" y="124" type="line"/>
      <point x="151" y="172" type="line"/>
      <point x="513" y="172" type="line"/>
    </contour>
    <contour>
      <point x="513" y="268" type="line"/>
      <point x="151" y="268" type="line"/>
      <point x="151" y="316" type="line"/>
      <point x="513" y="316" type="line"/>
    </contour>
    <component base="Y" xOffset="5"/>
  </outline>
</glyph>
<glyph name="section" format="2">
  <advance width="542"/>
  <unicode hex="00A7"/>
  <note>
section
</note>
  <outline>
    <contour>
      <point x="304" y="377" type="qcurve"/>
      <point x="220" y="401"/>
      <point x="127.0" y="332.55056179775283"/>
      <point x="127" y="291" type="qcurve"/>
      <point x="127.0" y="252"/>
      <point x="194" y="205"/>
      <point x="268" y="188" type="qcurve"/>
      <point x="295" y="183"/>
      <point x="346" y="165"/>
      <point x="374" y="151" type="qcurve"/>
      <point x="412" y="130"/>
      <point x="448" y="73"/>
      <point x="448" y="35" type="qcurve" smooth="yes"/>
      <point x="448" y="-29"/>
      <point x="342" y="-112"/>
      <point x="258" y="-112" type="qcurve" smooth="yes"/>
      <point x="190" y="-112"/>
      <point x="84" y="-59"/>
      <point x="56" y="-21" type="qcurve"/>
      <point x="94" y="12" type="line"/>
      <point x="121" y="-24"/>
      <point x="207" y="-63"/>
      <point x="261" y="-63" type="qcurve"/>
      <point x="321" y="-63"/>
      <point x="396" y="-13"/>
      <point x="396" y="31" type="qcurve" smooth="yes"/>
      <point x="396" y="68"/>
      <point x="329" y="120"/>
      <point x="255" y="139" type="qcurve"/>
      <point x="160" y="161"/>
      <point x="74" y="229"/>
      <point x="74" y="283" type="qcurve" smooth="yes"/>
      <point x="74.0" y="333.01408450704224"/>
      <point x="149" y="414"/>
      <point x="216" y="417" type="qcurve" smooth="yes"/>
      <point x="216.0" y="417.0"/>
      <point x="302.9771726756184" y="379.0456546487632"/>
    </contour>
    <contour>
      <point x="176" y="417" type="qcurve" smooth="yes"/>
      <point x="138" y="431"/>
      <point x="105.0" y="491.0"/>
      <point x="105" y="528" type="qcurve" smooth="yes"/>
      <point x="105.0" y="592.0"/>
      <point x="199" y="674.0"/>
      <point x="272" y="674" type="qcurve" smooth="yes"/>
      <point x="323" y="674"/>
      <point x="418" y="635"/>
      <point x="453" y="603" type="qcurve"/>
      <point x="421" y="565" type="line"/>
      <point x="391" y="593"/>
      <point x="311" y="628"/>
      <point x="275" y="628" type="qcurve" smooth="yes"/>
      <point x="224" y="628.0"/>
      <point x="158.0" y="573.0"/>
      <point x="158" y="531" type="qcurve" smooth="yes"/>
      <point x="158.0" y="495.0"/>
      <point x="220" y="449"/>
      <point x="289" y="433" type="qcurve"/>
      <point x="384" y="411"/>
      <point x="469" y="338"/>
      <point x="469" y="280" type="qcurve" smooth="yes"/>
      <point x="469.0" y="236"/>
      <point x="401" y="158"/>
      <point x="347" y="153" type="qcurve"/>
      <point x="347" y="153"/>
      <point x="268" y="188"/>
      <point x="268" y="188" type="qcurve"/>
      <point x="338" y="175"/>
      <point x="417.0" y="235"/>
      <point x="417" y="276" type="qcurve" smooth="yes"/>
      <point x="417" y="295"/>
      <point x="405" y="331"/>
      <point x="390" y="343" type="qcurve" smooth="yes"/>
      <point x="369" y="359"/>
      <point x="227" y="398"/>
    </contour>
  </outline>
</glyph>
<glyph name="copyright" format="2">
  <advance width="786"/>
  <unicode hex="00A9"/>
  <note>
copyright
</note>
  <outline>
    <contour>
      <point x="750.0" y="350.0" type="qcurve" smooth="yes"/>
      <point x="750.0" y="201.0"/>
      <point x="541.0" y="-7.0"/>
      <point x="393.0" y="-7.0" type="qcurve" smooth="yes"/>
      <point x="244.0" y="-7.0"/>
      <point x="36.0" y="201.0"/>
      <point x="36.0" y="350.0" type="qcurve" smooth="yes"/>
      <point x="36.0" y="499.0"/>
      <point x="244.0" y="707.0"/>
      <point x="393.0" y="707.0" type="qcurve" smooth="yes"/>
      <point x="541.0" y="707.0"/>
      <point x="750.0" y="499.0"/>
    </contour>
    <contour>
      <point x="80.0" y="350.0" type="qcurve" smooth="yes"/>
      <point x="80.0" y="219"/>
      <point x="262.0" y="37.0"/>
      <point x="393.0" y="37.0" type="qcurve" smooth="yes"/>
      <point x="524.0" y="37.0"/>
      <point x="706.0" y="219.4911660777385"/>
      <point x="706.0" y="350.0" type="qcurve" smooth="yes"/>
      <point x="706.0" y="481.6148409893993"/>
      <point x="524.0" y="663.0"/>
      <point x="393.0" y="663.0" type="qcurve" smooth="yes"/>
      <point x="262.0" y="663.0"/>
      <point x="80.0" y="482"/>
    </contour>
    <contour>
      <point x="411" y="142" type="qcurve" smooth="yes"/>
      <point x="321" y="142"/>
      <point x="197" y="260"/>
      <point x="197" y="350" type="qcurve" smooth="yes"/>
      <point x="197" y="436"/>
      <point x="321" y="557"/>
      <point x="411" y="557" type="qcurve" smooth="yes"/>
      <point x="445" y="557"/>
      <point x="511" y="534"/>
      <point x="540" y="512" type="qcurve"/>
      <point x="521" y="475" type="line"/>
      <point x="505" y="489"/>
      <point x="446.0" y="514.0"/>
      <point x="411" y="514" type="qcurve" smooth="yes"/>
      <point x="339.0" y="514.0"/>
      <point x="245.0" y="419.57575757575756"/>
      <point x="245" y="350" type="qcurve" smooth="yes"/>
      <point x="245.0" y="277.0"/>
      <point x="339.4311377245509" y="185.0"/>
      <point x="411" y="185" type="qcurve" smooth="yes"/>
      <point x="445.0" y="185.0"/>
      <point x="501" y="202"/>
      <point x="527" y="220" type="qcurve"/>
      <point x="544" y="185" type="line"/>
      <point x="514" y="164"/>
      <point x="446" y="142"/>
    </contour>
  </outline>
</glyph>
<glyph name="ordfeminine" format="2">
  <advance width="365"/>
  <unicode hex="00AA"/>
  <note>
ordfeminine
</note>
  <outline>
    <contour>
      <point x="155.0" y="391.0" type="qcurve"/>
      <point x="90" y="391.0"/>
      <point x="15.0" y="485.0"/>
      <point x="15.0" y="562.0" type="qcurve"/>
      <point x="15.0" y="631.0"/>
      <point x="93.0" y="721.0"/>
      <point x="155.0" y="721.0" type="qcurve"/>
      <point x="218" y="721.0"/>
      <point x="287.0" y="654.0"/>
      <point x="287.0" y="592.0" type="qcurve"/>
      <point x="273.0" y="628.0" type="line"/>
      <point x="273.0" y="715.0" type="line"/>
      <point x="315.0" y="715.0" type="line"/>
      <point x="315.0" y="401.0" type="line"/>
      <point x="273.0" y="401.0" type="line"/>
      <point x="273.0" y="474.0" type="line"/>
      <point x="287.0" y="497.0" type="line"/>
      <point x="287.0" y="457.57851239669424"/>
      <point x="208.0" y="391.0"/>
    </contour>
    <contour>
      <point x="58.0" y="562.0" type="qcurve"/>
      <point x="58.0" y="500"/>
      <point x="118.46491228070175" y="428.0"/>
      <point x="171.0" y="428.0" type="qcurve"/>
      <point x="217.82432432432432" y="428.0"/>
      <point x="276.0" y="497.0"/>
      <point x="276.0" y="555.0" type="qcurve"/>
      <point x="276.0" y="615.0"/>
      <point x="220.0" y="684.0"/>
      <point x="171.0" y="684.0" type="qcurve"/>
      <point x="124.0" y="684.0"/>
      <point x="58.0" y="612"/>
    </contour>
  </outline>
</glyph>
<glyph name="registered" format="2">
  <advance width="519"/>
  <unicode hex="00AE"/>
  <note>
registered
</note>
  <outline>
    <contour>
      <point x="351" y="534" type="qcurve" smooth="yes"/>
      <point x="351" y="502"/>
      <point x="306" y="461"/>
      <point x="273" y="461" type="qcurve" smooth="yes"/>
      <point x="182" y="461" type="line"/>
      <point x="202" y="470" type="line"/>
      <point x="202" y="367" type="line"/>
      <point x="173" y="367" type="line"/>
      <point x="173" y="606" type="line"/>
      <point x="273" y="606" type="line" smooth="yes"/>
      <point x="308" y="606"/>
      <point x="351" y="566"/>
    </contour>
    <contour>
      <point x="184" y="488" type="line"/>
      <point x="263" y="488" type="line" smooth="yes"/>
      <point x="289" y="488"/>
      <point x="321" y="511"/>
      <point x="321" y="529" type="qcurve" smooth="yes"/>
      <point x="321" y="553"/>
      <point x="293" y="579"/>
      <point x="265" y="579" type="qcurve"/>
      <point x="181" y="579" type="line"/>
      <point x="202" y="589" type="line"/>
      <point x="202" y="479" type="line"/>
    </contour>
    <contour>
      <point x="489" y="484" type="qcurve" smooth="yes"/>
      <point x="489" y="390"/>
      <point x="355" y="259"/>
      <point x="260" y="259" type="qcurve" smooth="yes"/>
      <point x="164" y="259"/>
      <point x="30" y="390"/>
      <point x="30" y="484" type="qcurve" smooth="yes"/>
      <point x="30" y="578"/>
      <point x="165" y="709"/>
      <point x="260" y="709" type="qcurve" smooth="yes"/>
      <point x="354" y="709"/>
      <point x="489" y="577"/>
    </contour>
    <contour>
      <point x="59" y="484" type="qcurve" smooth="yes"/>
      <point x="59" y="402"/>
      <point x="177" y="289"/>
      <point x="260" y="289" type="qcurve" smooth="yes"/>
      <point x="342" y="289"/>
      <point x="459" y="402"/>
      <point x="459" y="484" type="qcurve" smooth="yes"/>
      <point x="459" y="566"/>
      <point x="342" y="680"/>
      <point x="260" y="680" type="qcurve" smooth="yes"/>
      <point x="177" y="680"/>
      <point x="59" y="566"/>
    </contour>
    <contour>
      <point x="311" y="367" type="line"/>
      <point x="274" y="467" type="line"/>
      <point x="299" y="481" type="line"/>
      <point x="343" y="367" type="line"/>
    </contour>
  </outline>
</glyph>
<glyph name="macron" format="2">
  <advance width="424"/>
  <unicode hex="00AF"/>
  <anchor x="199.0" y="515.0" name="_top"/>
  <outline>
    <contour>
      <point x="349.0" y="590.0" type="line"/>
      <point x="75.0" y="590.0" type="line"/>
      <point x="75.0" y="638.0" type="line"/>
      <point x="349.0" y="638.0" type="line"/>
    </contour>
  </outline>
</glyph>
<glyph name="acute" format="2">
  <advance width="269"/>
  <unicode hex="00B4"/>
  <guideline x="134.5" y="0" angle="270.0" identifier="9wHRwks3KA"/>
  <anchor x="96" y="569" name="_top"/>
  <outline>
    <contour>
      <point x="221" y="690" type="line"/>
      <point x="67" y="589" type="line"/>
      <point x="46" y="620" type="line"/>
      <point x="188" y="735" type="line"/>
    </contour>
  </outline>
</glyph>
<glyph name="micro" format="2">
  <advance width="561"/>
  <unicode hex="00B5"/>
  <note>
uni00B5
</note>
  <outline>
    <contour>
      <point x="438" y="520" type="line"/>
      <point x="488" y="520" type="line"/>
      <point x="488" y="0" type="line"/>
      <point x="440" y="0" type="line"/>
      <point x="436" y="96" type="line"/>
      <point x="415" y="52"/>
      <point x="314" y="-10"/>
      <point x="261" y="-10" type="qcurve"/>
      <point x="208" y="-10"/>
      <point x="132" y="34"/>
      <point x="102" y="88" type="qcurve"/>
      <point x="121" y="89" type="line"/>
      <point x="122" y="-157" type="line"/>
      <point x="73" y="-157" type="line"/>
      <point x="73" y="520" type="line"/>
      <point x="123" y="520" type="line"/>
      <point x="123" y="203" type="line" smooth="yes"/>
      <point x="123" y="118"/>
      <point x="189" y="38"/>
      <point x="258" y="38" type="qcurve"/>
      <point x="334" y="38"/>
      <point x="438" y="137"/>
      <point x="438" y="202" type="qcurve"/>
    </contour>
  </outline>
</glyph>
<glyph name="cedilla" format="2">
  <advance width="267"/>
  <unicode hex="00B8"/>
  <anchor x="141.0" y="0" name="_bottom"/>
  <outline>
    <contour>
      <point x="96.0" y="-93.0" type="line"/>
      <point x="56.0" y="-86.0" type="line"/>
      <point x="128.0" y="24.0" type="line"/>
      <point x="171.0" y="24.0" type="line"/>
    </contour>
    <contour>
      <point x="210.0" y="-135.0" type="qcurve" smooth="yes"/>
      <point x="210.0" y="-155.0"/>
      <point x="181.28358544803294" y="-199.66597893708868"/>
      <point x="156.0" y="-211.0" type="qcurve" smooth="yes"/>
      <point x="132.0" y="-221.0"/>
      <point x="83" y="-230.0"/>
      <point x="50.0" y="-230.0" type="qcurve"/>
      <point x="43.0" y="-197.0" type="line"/>
      <point x="88" y="-195.0"/>
      <point x="162.0" y="-168"/>
      <point x="162.0" y="-140.0" type="qcurve"/>
      <point x="162.0" y="-122"/>
      <point x="117" y="-96.0"/>
      <point x="69.0" y="-96.0" type="qcurve"/>
      <point x="56.0" y="-86.0" type="line"/>
      <point x="95.0" y="-57.0" type="line"/>
      <point x="151.9590729474438" y="-63.21371704881205"/>
      <point x="210.0" y="-103.0"/>
    </contour>
  </outline>
</glyph>
<glyph name="Aring" format="2">
  <advance width="647"/>
  <unicode hex="00C5"/>
  <outline>
    <contour>
      <point x="433" y="771" type="qcurve"/>
      <point x="433" y="729"/>
      <point x="367" y="666"/>
      <point x="323" y="666" type="qcurve"/>
      <point x="280" y="666"/>
      <point x="214" y="729"/>
      <point x="214" y="771" type="qcurve"/>
      <point x="214" y="814"/>
      <point x="279" y="877"/>
      <point x="323" y="877" type="qcurve"/>
      <point x="367" y="877"/>
      <point x="433" y="814"/>
    </contour>
    <contour>
      <point x="254" y="771" type="qcurve"/>
      <point x="254" y="744"/>
      <point x="295" y="705"/>
      <point x="323" y="705" type="qcurve"/>
      <point x="352" y="705"/>
      <point x="393" y="744"/>
      <point x="393" y="771" type="qcurve"/>
      <point x="393" y="801"/>
      <point x="352" y="838"/>
      <point x="323" y="838" type="qcurve"/>
      <point x="293" y="838"/>
      <point x="254" y="800"/>
    </contour>
    <component base="A"/>
  </outline>
</glyph>
<glyph name="AE" format="2">
  <advance width="942"/>
  <unicode hex="00C6"/>
  <note>
AE
</note>
  <anchor x="475.0" y="0" name="bottom"/>
  <anchor x="624.0" y="700.0" name="top"/>
  <outline>
    <contour>
      <point x="515" y="0" type="line"/>
      <point x="465" y="0" type="line"/>
      <point x="465" y="626" type="line"/>
      <point x="515" y="700" type="line"/>
    </contour>
    <contour>
      <point x="868" y="0" type="line"/>
      <point x="490" y="0" type="line"/>
      <point x="490" y="50" type="line"/>
      <point x="868" y="50" type="line"/>
    </contour>
    <contour>
      <point x="815" y="336" type="line"/>
      <point x="489" y="336" type="line"/>
      <point x="489" y="386" type="line"/>
      <point x="815" y="386" type="line"/>
    </contour>
    <contour>
      <point x="872" y="650" type="line"/>
      <point x="489" y="650" type="line"/>
      <point x="489" y="700" type="line"/>
      <point x="872" y="700" type="line"/>
    </contour>
    <contour>
      <point x="546" y="700" type="move"/>
      <point x="60" y="0" type="line"/>
      <point x="0" y="0" type="line"/>
      <point x="486" y="700" type="line"/>
    </contour>
    <contour>
      <point x="176" y="191" type="line"/>
      <point x="212" y="241" type="line"/>
      <point x="490" y="241" type="line"/>
      <point x="490" y="191" type="line"/>
    </contour>
  </outline>
</glyph>
<glyph name="multiply" format="2">
  <advance width="457"/>
  <unicode hex="00D7"/>
  <note>
multiply
</note>
  <outline>
    <contour>
      <point x="414" y="437" type="line"/>
      <point x="74" y="97" type="line"/>
      <point x="40" y="131" type="line"/>
      <point x="380" y="471" type="line"/>
    </contour>
    <contour>
      <point x="417" y="129" type="line"/>
      <point x="381" y="94" type="line"/>
      <point x="40" y="435" type="line"/>
      <point x="75" y="470" type="line"/>
    </contour>
  </outline>
</glyph>
<glyph name="germandbls" format="2">
  <advance width="664"/>
  <unicode hex="00DF"/>
  <note>
germandbls
</note>
  <outline>
    <contour>
      <point x="180.0" y="450.0" type="line"/>
      <point x="45.0" y="450.0" type="line"/>
      <point x="45.0" y="497.0" type="line"/>
      <point x="180.0" y="497.0" type="line"/>
    </contour>
    <contour>
      <point x="196.0" y="0.0" type="line"/>
      <point x="145.0" y="0.0" type="line"/>
      <point x="145.0" y="499.0" type="line"/>
      <point x="145.0" y="602.2127659574468"/>
      <point x="258.0" y="730.0"/>
      <point x="354.0" y="730.0" type="qcurve"/>
      <point x="436" y="730.0"/>
      <point x="533.0" y="643.0"/>
      <point x="533.0" y="581.0" type="qcurve"/>
      <point x="533.0" y="519"/>
      <point x="442" y="434"/>
      <point x="377.0" y="409.0" type="qcurve"/>
      <point x="377.0" y="423.0" type="line"/>
      <point x="499" y="395"/>
      <point x="612.0" y="272.0"/>
      <point x="612.0" y="186.0" type="qcurve"/>
      <point x="612.0" y="99.0"/>
      <point x="514" y="-10.0"/>
      <point x="425.0" y="-10.0" type="qcurve"/>
      <point x="364" y="-10"/>
      <point x="281.0" y="33.0"/>
      <point x="254.0" y="67.0" type="qcurve"/>
      <point x="291.0" y="102.0" type="line"/>
      <point x="314" y="75"/>
      <point x="384" y="38.0"/>
      <point x="427.0" y="38.0" type="qcurve"/>
      <point x="490" y="38.0"/>
      <point x="562.0" y="116.0"/>
      <point x="562.0" y="184.0" type="qcurve"/>
      <point x="562.0" y="265.0"/>
      <point x="457" y="365"/>
      <point x="334.0" y="395.0" type="qcurve"/>
      <point x="334.0" y="430.0" type="line"/>
      <point x="409" y="458"/>
      <point x="483.0" y="525"/>
      <point x="483.0" y="576.0" type="qcurve"/>
      <point x="483.0" y="622"/>
      <point x="412.0" y="682.0"/>
      <point x="354.0" y="682.0" type="qcurve"/>
      <point x="279.0" y="682.0"/>
      <point x="196.0" y="583.3404255319149"/>
      <point x="196.0" y="503.0" type="qcurve"/>
    </contour>
  </outline>
</glyph>
<glyph name="eth" format="2">
  <advance width="574"/>
  <unicode hex="00F0"/>
  <note>
eth
</note>
  <outline>
    <contour>
      <point x="535" y="266" type="qcurve"/>
      <point x="535.0" y="146"/>
      <point x="396.0" y="-10.0"/>
      <point x="288" y="-10" type="qcurve"/>
      <point x="180" y="-10"/>
      <point x="40" y="144"/>
      <point x="40" y="263" type="qcurve"/>
      <point x="40.0" y="378"/>
      <point x="185" y="527.0"/>
      <point x="296" y="527" type="qcurve"/>
      <point x="370.0" y="527.0"/>
      <point x="481" y="436"/>
      <point x="503" y="378" type="qcurve"/>
      <point x="481" y="381" type="line"/>
      <point x="473" y="482"/>
      <point x="314.35666412827993" y="675.3260587047064"/>
      <point x="190" y="700" type="qcurve"/>
      <point x="211" y="739" type="line"/>
      <point x="360" y="703"/>
      <point x="535.0" y="458"/>
    </contour>
    <contour>
      <point x="288" y="40" type="qcurve"/>
      <point x="372" y="40.0"/>
      <point x="482.0" y="166.0"/>
      <point x="482" y="263" type="qcurve" smooth="yes"/>
      <point x="482.0" y="358.0"/>
      <point x="372" y="481.0"/>
      <point x="288" y="481" type="qcurve"/>
      <point x="203" y="481.0"/>
      <point x="93.0" y="358.0"/>
      <point x="93" y="263" type="qcurve" smooth="yes"/>
      <point x="93.0" y="166.0"/>
      <point x="203" y="40.0"/>
    </contour>
    <contour>
      <point x="384" y="607" type="line"/>
      <point x="160" y="551" type="line"/>
      <point x="152" y="592" type="line"/>
      <point x="344" y="642" type="line"/>
      <point x="374" y="650" type="line"/>
      <point x="485" y="679" type="line"/>
      <point x="496" y="638" type="line"/>
      <point x="408" y="614" type="line"/>
    </contour>
  </outline>
</glyph>
<glyph name="oslash" format="2">
  <advance width="615"/>
  <unicode hex="00F8"/>
  <note>
oslash
</note>
  <anchor x="305.0" y="530.0" name="top"/>
  <anchor x="305.0" y="0" name="bottom"/>
  <anchor x="305.0" y="256.0" name="center"/>
  <anchor x="547.0" y="10.0" name="ogonek"/>
  <anchor x="319.0" y="531.0" name="topright"/>
  <outline>
    <contour>
      <point x="88.0" y="-21.0" type="line"/>
      <point x="50.0" y="7.0" type="line"/>
      <point x="503.0" y="539.0" type="line"/>
      <point x="542.0" y="510.0" type="line"/>
    </contour>
    <component base="o"/>
  </outline>
</glyph>
<glyph name="Aogonek" format="2">
  <advance width="670"/>
  <unicode hex="0104"/>
  <anchor x="317.0" y="0" name="bottom"/>
  <anchor x="317.0" y="700.0" name="top"/>
  <outline>
    <contour>
      <point x="617" y="0" type="line"/>
      <point x="526" y="-17"/>
      <point x="460" y="-77"/>
      <point x="460" y="-112" type="qcurve"/>
      <point x="460" y="-139"/>
      <point x="502" y="-172"/>
      <point x="535" y="-172" type="qcurve"/>
      <point x="561" y="-172"/>
      <point x="609" y="-154"/>
      <point x="623" y="-142" type="qcurve"/>
      <point x="645" y="-176" type="line"/>
      <point x="626" y="-193"/>
      <point x="568" y="-217"/>
      <point x="532" y="-217" type="qcurve"/>
      <point x="478" y="-217"/>
      <point x="412" y="-159"/>
      <point x="412" y="-110" type="qcurve"/>
      <point x="412" y="-67"/>
      <point x="491" y="9"/>
      <point x="573" y="26" type="qcurve"/>
    </contour>
    <component base="A"/>
  </outline>
</glyph>
<glyph name="aogonek" format="2">
  <advance width="632"/>
  <unicode hex="0105"/>
  <note>
aogonek
</note>
  <outline>
    <contour>
      <point x="534" y="0" type="line"/>
      <point x="473" y="-28"/>
      <point x="375" y="-81"/>
      <point x="375" y="-116" type="qcurve"/>
      <point x="375" y="-144"/>
      <point x="418" y="-178"/>
      <point x="451" y="-178" type="qcurve"/>
      <point x="476" y="-178"/>
      <point x="522" y="-158"/>
      <point x="536" y="-146" type="qcurve"/>
      <point x="559" y="-180" type="line"/>
      <point x="540" y="-197"/>
      <point x="482" y="-221"/>
      <point x="447" y="-221" type="qcurve"/>
      <point x="394" y="-221"/>
      <point x="330" y="-166"/>
      <point x="330" y="-121" type="qcurve"/>
      <point x="330" y="-68"/>
      <point x="424" y="-3"/>
      <point x="516" y="34" type="qcurve"/>
    </contour>
    <component base="a"/>
  </outline>
</glyph>
<glyph name="Eogonek" format="2">
  <advance width="614"/>
  <unicode hex="0118"/>
  <note>
Eogonek
</note>
  <anchor x="296.0" y="0" name="bottom"/>
  <anchor x="293.0" y="700.0" name="top"/>
  <anchor x="20.0" y="700.0" name="topleft"/>
  <anchor x="475.0" y="10.0" name="ogonek"/>
  <outline>
    <contour>
      <point x="511" y="0" type="line"/>
      <point x="420" y="-17"/>
      <point x="354" y="-77"/>
      <point x="354" y="-112" type="qcurve"/>
      <point x="354" y="-138"/>
      <point x="396" y="-172"/>
      <point x="429" y="-172" type="qcurve"/>
      <point x="455" y="-172"/>
      <point x="503" y="-154"/>
      <point x="517" y="-142" type="qcurve"/>
      <point x="539" y="-176" type="line"/>
      <point x="520" y="-193"/>
      <point x="462" y="-217"/>
      <point x="426" y="-217" type="qcurve"/>
      <point x="372" y="-217"/>
      <point x="306" y="-159"/>
      <point x="306" y="-110" type="qcurve"/>
      <point x="306" y="-74"/>
      <point x="366" y="-2"/>
      <point x="452" y="12" type="qcurve"/>
      <point x="455" y="11" type="line"/>
    </contour>
    <component base="E"/>
  </outline>
</glyph>
<glyph name="eogonek" format="2">
  <advance width="586"/>
  <unicode hex="0119"/>
  <note>
eogonek
</note>
  <outline>
    <contour>
      <point x="317.0" y="-10.0" type="qcurve"/>
      <point x="195.0" y="-10.0"/>
      <point x="40.0" y="140.0"/>
      <point x="40.0" y="257.0" type="qcurve"/>
      <point x="40.0" y="381.0"/>
      <point x="191.0" y="536.0"/>
      <point x="308.0" y="537.0" type="qcurve"/>
      <point x="410.0" y="536.0"/>
      <point x="546.0" y="392.0"/>
      <point x="546.0" y="282.0" type="qcurve"/>
      <point x="545.0" y="238.0" type="line"/>
      <point x="116.0" y="238.0" type="line"/>
      <point x="93.0" y="320.0" type="line"/>
      <point x="456.0" y="320.0" type="line"/>
      <point x="441.0" y="303.0" type="line"/>
      <point x="441.0" y="327.0" type="line"/>
      <point x="436.0" y="376.0"/>
      <point x="359.0" y="442.0"/>
      <point x="308.0" y="442.0" type="qcurve"/>
      <point x="227.0" y="442.0"/>
      <point x="142.0" y="351.0"/>
      <point x="142.0" y="264.0" type="qcurve"/>
      <point x="142.0" y="182.0"/>
      <point x="244.0" y="84.0"/>
      <point x="327.0" y="84.0" type="qcurve"/>
      <point x="366.0" y="84.0"/>
      <point x="433.0" y="110.0"/>
      <point x="472.0" y="144.0" type="qcurve"/>
      <point x="523.0" y="69.0" type="line"/>
      <point x="513.0" y="61.0"/>
      <point x="449.0" y="15.0"/>
      <point x="433.0" y="2.0" type="qcurve" smooth="yes"/>
      <point x="403.0" y="-24.0"/>
      <point x="376.0" y="-67.0"/>
      <point x="376.0" y="-90.0" type="qcurve" smooth="yes"/>
      <point x="376.0" y="-112.0"/>
      <point x="404.0" y="-144.0"/>
      <point x="425.0" y="-144.0" type="qcurve" smooth="yes"/>
      <point x="438.0" y="-144.0"/>
      <point x="471.0" y="-130.0"/>
      <point x="488.0" y="-118.0" type="qcurve"/>
      <point x="527.0" y="-177.0" type="line"/>
      <point x="494.0" y="-199.0"/>
      <point x="433.0" y="-221.0"/>
      <point x="403.0" y="-221.0" type="qcurve" smooth="yes"/>
      <point x="348.0" y="-221.0"/>
      <point x="283.0" y="-161.0"/>
      <point x="283.0" y="-108.0" type="qcurve" smooth="yes"/>
      <point x="283.0" y="-69.0"/>
      <point x="350.0" y="7.0"/>
      <point x="453.0" y="70.0" type="qcurve"/>
      <point x="493.0" y="95.0" type="line"/>
      <point x="475.0" y="63.0"/>
      <point x="356.0" y="-10.0"/>
    </contour>
  </outline>
</glyph>
<glyph name="Hbar" format="2">
  <advance width="744"/>
  <unicode hex="0126"/>
  <outline>
    <contour>
      <point x="108" y="534" type="line"/>
      <point x="48" y="534" type="line"/>
      <point x="48" y="584" type="line"/>
      <point x="108" y="584" type="line"/>
      <point x="219" y="584" type="line"/>
      <point x="503" y="584" type="line"/>
      <point x="636" y="584" type="line"/>
      <point x="696" y="584" type="line"/>
      <point x="696" y="534" type="line"/>
      <point x="636" y="534" type="line"/>
      <point x="515" y="534" type="line"/>
      <point x="209" y="534" type="line"/>
    </contour>
    <component base="H"/>
    <component base="horizontalbarH" xOffset="367.4642771946528" yOffset="511"/>
  </outline>
</glyph>
<glyph name="idotless" format="2">
  <advance width="200"/>
  <unicode hex="0131"/>
  <note>
dotlessi
</note>
  <anchor x="102.0" y="0" name="bottom"/>
  <anchor x="186.0" y="10.0" name="ogonek"/>
  <anchor x="102.0" y="525.0" name="top"/>
  <outline>
    <contour>
      <point x="125" y="520" type="line"/>
      <point x="125" y="0" type="line"/>
      <point x="100" y="0" type="line"/>
      <point x="75" y="0" type="line"/>
      <point x="75" y="520" type="line"/>
    </contour>
  </outline>
</glyph>
<glyph name="kgreenlandic" format="2">
  <advance width="556"/>
  <unicode hex="0138"/>
  <anchor x="263.0" y="0" name="bottom"/>
  <anchor x="255.0" y="520.0" name="top"/>
  <outline>
    <contour>
      <point x="125" y="0" type="line"/>
      <point x="75" y="0" type="line"/>
      <point x="75" y="520" type="line"/>
      <point x="125" y="520" type="line"/>
    </contour>
    <contour>
      <point x="400" y="520" type="line"/>
      <point x="466" y="520" type="line"/>
      <point x="217" y="279" type="line"/>
      <point x="107" y="172" type="line"/>
      <point x="107" y="235" type="line"/>
    </contour>
    <contour>
      <point x="494" y="0" type="line"/>
      <point x="428" y="0" type="line"/>
      <point x="188" y="278" type="line"/>
      <point x="222" y="315" type="line"/>
    </contour>
  </outline>
</glyph>
<glyph name="Lslash" format="2">
  <advance width="536"/>
  <unicode hex="0141"/>
  <outline>
    <contour>
      <point x="26" y="286" type="line"/>
      <point x="7" y="332" type="line"/>
      <point x="301" y="459" type="line"/>
      <point x="320" y="412" type="line"/>
    </contour>
    <component base="L"/>
  </outline>
</glyph>
<glyph name="Eng" format="2">
  <advance width="781"/>
  <unicode hex="014A"/>
  <note>
Eng
</note>
  <outline>
    <contour>
      <point x="623" y="417" type="qcurve"/>
      <point x="623" y="700" type="line"/>
      <point x="673" y="700" type="line"/>
      <point x="673" y="-48" type="line" smooth="yes"/>
      <point x="673" y="-114"/>
      <point x="594" y="-195"/>
      <point x="529" y="-195" type="qcurve"/>
      <point x="508" y="-152" type="line"/>
      <point x="572" y="-152"/>
      <point x="623" y="-90"/>
      <point x="623" y="-28" type="qcurve"/>
      <point x="623" y="33" type="line"/>
      <point x="641" y="-21" type="line"/>
      <point x="152" y="621" type="line"/>
      <point x="154" y="551"/>
      <point x="158" y="361"/>
      <point x="158" y="344" type="qcurve" smooth="yes"/>
      <point x="158" y="0" type="line"/>
      <point x="108" y="0" type="line"/>
      <point x="108" y="700" type="line"/>
      <point x="154" y="700" type="line"/>
      <point x="644" y="58" type="line"/>
      <point x="627" y="52" type="line"/>
      <point x="624" y="139"/>
      <point x="624" y="324"/>
    </contour>
  </outline>
</glyph>
<glyph name="eng" format="2">
  <advance width="595"/>
  <unicode hex="014B"/>
  <note>
eng
</note>
  <anchor x="286.0" y="0" name="bottom"/>
  <anchor x="295.0" y="510.0" name="top"/>
  <outline>
    <contour>
      <point x="315" y="531" type="qcurve"/>
      <point x="398" y="531"/>
      <point x="486" y="426"/>
      <point x="486" y="315" type="qcurve"/>
      <point x="486" y="-52" type="line" smooth="yes"/>
      <point x="486" y="-116"/>
      <point x="411" y="-195"/>
      <point x="350" y="-195" type="qcurve"/>
      <point x="329" y="-152" type="line"/>
      <point x="389" y="-152"/>
      <point x="436" y="-92"/>
      <point x="436" y="-32" type="qcurve"/>
      <point x="436" y="313" type="line"/>
      <point x="436" y="400"/>
      <point x="367" y="483"/>
      <point x="300" y="483" type="qcurve"/>
      <point x="223" y="483"/>
      <point x="123" y="383"/>
      <point x="123" y="318" type="qcurve"/>
      <point x="123" y="0" type="line"/>
      <point x="73" y="0" type="line"/>
      <point x="73" y="520" type="line"/>
      <point x="121" y="520" type="line"/>
      <point x="125" y="424" type="line"/>
      <point x="146" y="468"/>
      <point x="253" y="531"/>
    </contour>
  </outline>
</glyph>
<glyph name="OE" format="2">
  <advance width="1009"/>
  <unicode hex="0152"/>
  <note>
OE
</note>
  <anchor x="484" y="0" name="bottom"/>
  <anchor x="484" y="700.0" name="top"/>
  <outline>
    <contour>
      <point x="381" y="50" type="qcurve" smooth="yes"/>
      <point x="532" y="50" type="line"/>
      <point x="532" y="650" type="line"/>
      <point x="381" y="650" type="line"/>
      <point x="267" y="650"/>
      <point x="103" y="481"/>
      <point x="103" y="350" type="qcurve" smooth="yes"/>
      <point x="103" y="219"/>
      <point x="267" y="50"/>
    </contour>
    <contour>
      <point x="935" y="50" type="line"/>
      <point x="935" y="0" type="line"/>
      <point x="376" y="0" type="line"/>
      <point x="241" y="0"/>
      <point x="50" y="197"/>
      <point x="50" y="350" type="qcurve" smooth="yes"/>
      <point x="50" y="503"/>
      <point x="241" y="700"/>
      <point x="376" y="700" type="qcurve" smooth="yes"/>
      <point x="939" y="700" type="line"/>
      <point x="939" y="650" type="line"/>
      <point x="582" y="650" type="line"/>
      <point x="582" y="386" type="line"/>
      <point x="882" y="386" type="line"/>
      <point x="882" y="336" type="line"/>
      <point x="582" y="336" type="line"/>
      <point x="582" y="50" type="line"/>
    </contour>
  </outline>
</glyph>
<glyph name="oe" format="2">
  <advance width="1019"/>
  <unicode hex="0153"/>
  <note>
oe
</note>
  <anchor x="583.0" y="0" name="bottom"/>
  <anchor x="583.0" y="510.0" name="top"/>
  <anchor x="305.0" y="256.0" name="center"/>
  <anchor x="547.0" y="10.0" name="ogonek_1"/>
  <anchor x="954.0" y="10.0" name="ogonek_2"/>
  <anchor x="319.0" y="531.0" name="topright"/>
  <outline>
    <contour>
      <point x="930" y="104" type="qcurve"/>
      <point x="956" y="67" type="line"/>
      <point x="923.5089858528543" y="35.49356203913141"/>
      <point x="826.0402010050251" y="-10.0"/>
      <point x="763" y="-10" type="qcurve"/>
      <point x="652" y="-10.0"/>
      <point x="510.0" y="140.0"/>
      <point x="510" y="261" type="qcurve"/>
      <point x="510.0" y="378.0"/>
      <point x="641.9878048780488" y="531.0"/>
      <point x="747" y="531" type="qcurve"/>
      <point x="855.9107142857142" y="531.0"/>
      <point x="975.0" y="392.0"/>
      <point x="975" y="282" type="qcurve"/>
      <point x="974" y="255" type="line"/>
      <point x="547" y="255" type="line"/>
      <point x="547" y="301" type="line"/>
      <point x="947" y="301" type="line"/>
      <point x="925" y="283" type="line"/>
      <point x="925" y="307" type="line"/>
      <point x="925.9999925562894" y="366.9995533773613"/>
      <point x="837.0342857142857" y="481.0"/>
      <point x="746" y="481" type="qcurve"/>
      <point x="666.890625" y="481.0"/>
      <point x="563.0" y="370.0"/>
      <point x="563" y="264" type="qcurve"/>
      <point x="563.0" y="162.0"/>
      <point x="671" y="40.0"/>
      <point x="772" y="40" type="qcurve"/>
      <point x="807.6463414634146" y="40.0"/>
      <point x="882.0677433398207" y="64.87162721618014"/>
    </contour>
    <contour>
      <point x="310" y="531" type="qcurve"/>
      <point x="421.24124513618676" y="531.0"/>
      <point x="563.0" y="380.0"/>
      <point x="563" y="263" type="qcurve"/>
      <point x="563.0" y="144.0"/>
      <point x="421.24124513618676" y="-10.0"/>
      <point x="310" y="-10" type="qcurve"/>
      <point x="193" y="-10"/>
      <point x="42" y="144"/>
      <point x="42" y="263" type="qcurve"/>
      <point x="42" y="380"/>
      <point x="193" y="531"/>
    </contour>
    <contour>
      <point x="310" y="40" type="qcurve"/>
      <point x="397.2549019607843" y="40.0"/>
      <point x="510.0" y="166.0"/>
      <point x="510" y="263" type="qcurve" smooth="yes"/>
      <point x="510.0" y="358.0"/>
      <point x="397.2549019607843" y="481.0"/>
      <point x="310" y="481" type="qcurve"/>
      <point x="216" y="481"/>
      <point x="95" y="358"/>
      <point x="95" y="263" type="qcurve" smooth="yes"/>
      <point x="95" y="166"/>
      <point x="216" y="40"/>
    </contour>
  </outline>
</glyph>
<glyph name="Uogonek" format="2">
  <advance width="753"/>
  <unicode hex="0172"/>
  <anchor x="354.0" y="0" name="bottom"/>
  <anchor x="637.0" y="10.0" name="ogonek"/>
  <anchor x="354.0" y="700.0" name="top"/>
  <anchor x="688.0" y="700.0" name="topright"/>
  <outline>
    <contour>
      <point x="374" y="-6" type="qcurve"/>
      <point x="258" y="-6"/>
      <point x="108" y="149"/>
      <point x="108" y="269" type="qcurve"/>
      <point x="108" y="701" type="line"/>
      <point x="158" y="701" type="line"/>
      <point x="158" y="278" type="line"/>
      <point x="158" y="176"/>
      <point x="280" y="44"/>
      <point x="374" y="44" type="qcurve"/>
      <point x="471" y="44"/>
      <point x="596" y="176"/>
      <point x="596" y="278" type="qcurve"/>
      <point x="596" y="701" type="line"/>
      <point x="645" y="701" type="line"/>
      <point x="645" y="269" type="line"/>
      <point x="645.0" y="182.0"/>
      <point x="563.0" y="50.0"/>
      <point x="494" y="19" type="qcurve"/>
      <point x="438.68952816989673" y="-6.679861921119386"/>
      <point x="368.0" y="-54.445378151260506"/>
      <point x="368" y="-96" type="qcurve" smooth="yes"/>
      <point x="368.0" y="-120.0"/>
      <point x="397" y="-150.0"/>
      <point x="421" y="-150" type="qcurve" smooth="yes"/>
      <point x="437" y="-150"/>
      <point x="462" y="-136"/>
      <point x="475" y="-117" type="qcurve"/>
      <point x="514" y="-145" type="line"/>
      <point x="505.0" y="-168.0"/>
      <point x="449.0" y="-201.0"/>
      <point x="419" y="-201" type="qcurve"/>
      <point x="373.0" y="-201.0"/>
      <point x="316.0" y="-149.0"/>
      <point x="316" y="-107" type="qcurve"/>
      <point x="316.0" y="-76.07563025210084"/>
      <point x="352.2693357103807" y="-20.876020069824772"/>
      <point x="415" y="8" type="qcurve"/>
      <point x="418" y="-6" type="line"/>
      <point x="385" y="-6"/>
      <point x="378" y="-6"/>
    </contour>
  </outline>
</glyph>
<glyph name="Schwa" format="2">
  <advance width="785"/>
  <unicode hex="018F"/>
  <outline>
    <contour>
      <point x="50" y="340" type="qcurve"/>
      <point x="50" y="374" type="line"/>
      <point x="705" y="374" type="line"/>
      <point x="705" y="324" type="line"/>
      <point x="83" y="324" type="line"/>
      <point x="103" y="346" type="line"/>
      <point x="103" y="321" type="line"/>
      <point x="103.0" y="205.0"/>
      <point x="272.18727915194347" y="40.0"/>
      <point x="388" y="40" type="qcurve"/>
      <point x="508.82191780821915" y="40.0"/>
      <point x="682.0" y="221.0"/>
      <point x="682" y="349" type="qcurve"/>
      <point x="682.0" y="478.0"/>
      <point x="501.8338762214984" y="655.0"/>
      <point x="373" y="655" type="qcurve"/>
      <point x="309.0" y="655.0"/>
      <point x="197.22982881229993" y="608.2186176507244"/>
      <point x="156" y="569" type="qcurve"/>
      <point x="121" y="608" type="line"/>
      <point x="168" y="654"/>
      <point x="300" y="705"/>
      <point x="374" y="705" type="qcurve"/>
      <point x="526" y="705"/>
      <point x="735" y="498"/>
      <point x="735" y="346" type="qcurve"/>
      <point x="735" y="197"/>
      <point x="533" y="-10"/>
      <point x="387" y="-10" type="qcurve"/>
      <point x="243" y="-10"/>
      <point x="50" y="191"/>
    </contour>
  </outline>
</glyph>
<glyph name="florin" format="2">
  <advance width="519"/>
  <unicode hex="0192"/>
  <note>
florin
</note>
  <outline>
    <contour>
      <point x="96" y="-31" type="qcurve" smooth="yes"/>
      <point x="70" y="-31"/>
      <point x="20" y="-13"/>
      <point x="4" y="1" type="qcurve"/>
      <point x="23" y="46" type="line"/>
      <point x="45.41829501799832" y="27.480538898175304"/>
      <point x="75.725" y="15.0"/>
      <point x="97" y="15" type="qcurve"/>
      <point x="138.97530864197532" y="15.0"/>
      <point x="175.54892101713278" y="72.09982821799949"/>
      <point x="182" y="109" type="qcurve" smooth="yes"/>
      <point x="257" y="538" type="line" smooth="yes"/>
      <point x="270" y="615"/>
      <point x="341" y="692.0"/>
      <point x="404" y="692" type="qcurve"/>
      <point x="436" y="692.0"/>
      <point x="491" y="674"/>
      <point x="516" y="657" type="qcurve"/>
      <point x="494" y="613" type="line"/>
      <point x="466" y="629"/>
      <point x="425.0" y="644.0"/>
      <point x="407" y="644" type="qcurve" smooth="yes"/>
      <point x="363" y="644.0"/>
      <point x="318" y="587"/>
      <point x="306" y="526" type="qcurve"/>
      <point x="233" y="119" type="line" smooth="yes"/>
      <point x="219" y="43"/>
      <point x="152.85034013605443" y="-31.0"/>
    </contour>
    <contour>
      <point x="440" y="401" type="line"/>
      <point x="71" y="402" type="line"/>
      <point x="71" y="448" type="line"/>
      <point x="440" y="447" type="line"/>
    </contour>
  </outline>
</glyph>
<glyph name="Nhookleft" format="2">
  <advance width="781"/>
  <unicode hex="019D"/>
  <outline>
    <contour>
      <point x="158" y="344" type="qcurve"/>
      <point x="158" y="-48" type="line" smooth="yes"/>
      <point x="158" y="-114"/>
      <point x="79" y="-195"/>
      <point x="14" y="-195" type="qcurve"/>
      <point x="-7" y="-152" type="line"/>
      <point x="57" y="-152"/>
      <point x="108" y="-90"/>
      <point x="108" y="-28" type="qcurve"/>
      <point x="108" y="700" type="line"/>
      <point x="154" y="700" type="line"/>
      <point x="640" y="63" type="line"/>
      <point x="628" y="37" type="line"/>
      <point x="624" y="79"/>
      <point x="624" y="301"/>
      <point x="623" y="417" type="qcurve"/>
      <point x="623" y="700" type="line"/>
      <point x="650" y="700"/>
      <point x="646" y="700"/>
      <point x="673" y="700" type="qcurve"/>
      <point x="673" y="0" type="line"/>
      <point x="625" y="0" type="line"/>
      <point x="136" y="641" type="line"/>
      <point x="150" y="669" type="line"/>
      <point x="152" y="620"/>
      <point x="158" y="365"/>
    </contour>
  </outline>
</glyph>
<glyph name="oogonek" format="2">
  <advance width="599"/>
  <unicode hex="01EB"/>
  <outline>
    <contour>
      <point x="85" y="263" type="qcurve" smooth="yes"/>
      <point x="85" y="166"/>
      <point x="206" y="40"/>
      <point x="300" y="40" type="qcurve"/>
      <point x="393" y="40"/>
      <point x="514" y="166"/>
      <point x="514" y="263" type="qcurve" smooth="yes"/>
      <point x="514" y="358"/>
      <point x="393" y="481"/>
      <point x="300" y="481" type="qcurve"/>
      <point x="206" y="481"/>
      <point x="85" y="358"/>
    </contour>
    <contour>
      <point x="300" y="-10" type="qcurve"/>
      <point x="183" y="-10"/>
      <point x="32" y="144"/>
      <point x="32" y="263" type="qcurve"/>
      <point x="32" y="380"/>
      <point x="183" y="531"/>
      <point x="300" y="531" type="qcurve"/>
      <point x="417" y="531"/>
      <point x="567" y="380"/>
      <point x="567" y="263" type="qcurve"/>
      <point x="567.0" y="180"/>
      <point x="485" y="49"/>
      <point x="413" y="16" type="qcurve" smooth="yes"/>
      <point x="365.2330731925688" y="-5.342669424596931"/>
      <point x="290.0" y="-59"/>
      <point x="290" y="-102" type="qcurve"/>
      <point x="290.0" y="-127"/>
      <point x="320" y="-158.0"/>
      <point x="344" y="-158" type="qcurve"/>
      <point x="374" y="-158.0"/>
      <point x="417.05717564593385" y="-127.92138348684097"/>
      <point x="433" y="-106" type="qcurve"/>
      <point x="463" y="-136" type="line"/>
      <point x="433.86055137301565" y="-169.1586829203615"/>
      <point x="378" y="-201.0"/>
      <point x="347" y="-201" type="qcurve"/>
      <point x="303" y="-201.0"/>
      <point x="247.0" y="-147.0"/>
      <point x="247" y="-101" type="qcurve"/>
      <point x="247.0" y="-69"/>
      <point x="286.8666944351951" y="-11.32939216339171"/>
      <point x="344" y="29" type="qcurve"/>
      <point x="350" y="-3" type="line"/>
      <point x="316" y="-10"/>
      <point x="305" y="-10"/>
    </contour>
  </outline>
</glyph>
<glyph name="Aringacute" format="2">
  <advance width="700"/>
  <unicode hex="01FA"/>
  <anchor x="352.0" y="0" name="bottom"/>
  <anchor x="609.0" y="10.0" name="ogonek"/>
  <outline>
    <contour>
      <point x="426.0" y="762.0" type="qcurve"/>
      <point x="426.0" y="722.0"/>
      <point x="363.0" y="662.0"/>
      <point x="321.0" y="662.0" type="qcurve"/>
      <point x="280" y="662.0"/>
      <point x="217.0" y="722.0"/>
      <point x="217.0" y="762.0" type="qcurve"/>
      <point x="217.0" y="803.0"/>
      <point x="279" y="863.0"/>
      <point x="321.0" y="863.0" type="qcurve"/>
      <point x="363.0" y="863.0"/>
      <point x="426.0" y="803.0"/>
    </contour>
    <contour>
      <point x="257.0" y="762.0" type="qcurve"/>
      <point x="257.0" y="737.0"/>
      <point x="295" y="701.0"/>
      <point x="321.0" y="701.0" type="qcurve"/>
      <point x="348" y="701.0"/>
      <point x="386.0" y="737.0"/>
      <point x="386.0" y="762.0" type="qcurve"/>
      <point x="386.0" y="790.0"/>
      <point x="348" y="824.0"/>
      <point x="321.0" y="824.0" type="qcurve"/>
      <point x="293" y="824.0"/>
      <point x="257.0" y="789.0"/>
    </contour>
    <component base="acutecomb.case" xOffset="277" yOffset="338"/>
    <component base="A"/>
  </outline>
</glyph>
<glyph name="Odotaccentmacron" format="2">
  <advance width="787"/>
  <unicode hex="0230"/>
  <outline>
    <contour>
      <point x="393" y="705" type="qcurve"/>
      <point x="543" y="705"/>
      <point x="737" y="503"/>
      <point x="737" y="347" type="qcurve"/>
      <point x="737" y="191"/>
      <point x="543" y="-10"/>
      <point x="393" y="-10" type="qcurve"/>
      <point x="243" y="-10"/>
      <point x="50" y="191"/>
      <point x="50" y="347" type="qcurve"/>
      <point x="50" y="503"/>
      <point x="243" y="705"/>
    </contour>
    <contour>
      <point x="393" y="40" type="qcurve" smooth="yes"/>
      <point x="520" y="40"/>
      <point x="684" y="213"/>
      <point x="684" y="347" type="qcurve"/>
      <point x="684" y="481"/>
      <point x="520" y="655"/>
      <point x="393" y="655" type="qcurve" smooth="yes"/>
      <point x="266" y="655"/>
      <point x="103" y="481"/>
      <point x="103" y="347" type="qcurve"/>
      <point x="103" y="213"/>
      <point x="266" y="40"/>
    </contour>
    <component base="O"/>
    <component base="dotaccentcomb_macroncomb" xOffset="256" yOffset="170"/>
  </outline>
</glyph>
<glyph name="jdotless" format="2">
  <advance width="238"/>
  <unicode hex="0237"/>
  <note>
dotlessj
</note>
  <guideline x="138" y="371" angle="270.0" name="center" identifier="ijmDlHoAg2"/>
  <anchor x="151" y="0" name="bottom"/>
  <anchor x="138" y="521.0" name="top"/>
  <outline>
    <contour>
      <point x="163" y="520" type="line"/>
      <point x="163" y="-48" type="line" smooth="yes"/>
      <point x="163" y="-114"/>
      <point x="84" y="-195"/>
      <point x="19" y="-195" type="qcurve"/>
      <point x="-2" y="-152" type="line"/>
      <point x="62" y="-152"/>
      <point x="113" y="-90"/>
      <point x="113" y="-28" type="qcurve"/>
      <point x="113" y="520" type="line"/>
    </contour>
  </outline>
</glyph>
<glyph name="nhookleft" format="2">
  <advance width="610"/>
  <unicode hex="0272"/>
  <anchor x="318.0" y="0" name="bottom"/>
  <anchor x="318.0" y="510.0" name="top"/>
  <outline>
    <contour>
      <point x="138" y="50" type="line"/>
      <point x="138" y="-52" type="line" smooth="yes"/>
      <point x="138" y="-116"/>
      <point x="63" y="-195.0"/>
      <point x="2" y="-195" type="qcurve"/>
      <point x="-19" y="-152" type="line"/>
      <point x="41" y="-152.0"/>
      <point x="88.0" y="-92.0"/>
      <point x="88" y="-32" type="qcurve"/>
      <point x="88" y="50" type="line"/>
    </contour>
    <component base="n" xOffset="15"/>
  </outline>
</glyph>
<glyph name="ringhalfleft" format="2">
  <advance width="243"/>
  <unicode hex="02BF"/>
  <outline>
    <contour>
      <point x="160" y="539" type="line"/>
      <point x="118" y="539"/>
      <point x="55" y="599"/>
      <point x="55" y="639" type="qcurve"/>
      <point x="55" y="680"/>
      <point x="118" y="740"/>
      <point x="160" y="740" type="qcurve"/>
      <point x="160" y="701" type="line"/>
      <point x="133" y="701"/>
      <point x="95" y="667"/>
      <point x="95" y="639" type="qcurve"/>
      <point x="95" y="614"/>
      <point x="133" y="578"/>
      <point x="160" y="578" type="qcurve"/>
    </contour>
  </outline>
</glyph>
<glyph name="circumflex" format="2">
  <advance width="368"/>
  <unicode hex="02C6"/>
  <anchor x="180" y="520" name="_top"/>
  <outline>
    <contour>
      <point x="293.0" y="610.0" type="line"/>
      <point x="166.0" y="707.0" type="line"/>
      <point x="196.0" y="707.0" type="line"/>
      <point x="69.0" y="610.0" type="line"/>
      <point x="43.0" y="633.0" type="line"/>
      <point x="150.0" y="736.0" type="line"/>
      <point x="212.0" y="736.0" type="line"/>
      <point x="319.0" y="633.0" type="line"/>
    </contour>
  </outline>
</glyph>
<glyph name="caron" format="2">
  <advance width="362"/>
  <unicode hex="02C7"/>
  <anchor x="180" y="520" name="_top"/>
  <outline>
    <contour>
      <point x="196" y="643" type="line"/>
      <point x="166" y="643" type="line"/>
      <point x="305" y="742" type="line"/>
      <point x="328" y="722" type="line"/>
      <point x="214" y="610" type="line"/>
      <point x="148" y="610" type="line"/>
      <point x="34" y="722" type="line"/>
      <point x="57" y="742" type="line"/>
    </contour>
  </outline>
</glyph>
<glyph name="firsttonechinese" format="2">
  <advance width="500"/>
  <unicode hex="02C9"/>
  <outline>
    <contour>
      <point x="441.0" y="620.0" type="line"/>
      <point x="59.0" y="620.0" type="line"/>
      <point x="59.0" y="668.0" type="line"/>
      <point x="441.0" y="668.0" type="line"/>
    </contour>
  </outline>
</glyph>
<glyph name="verticallinelowmod" format="2">
  <advance width="230"/>
  <unicode hex="02CC"/>
  <outline>
    <contour>
      <point x="140" y="197" type="line"/>
      <point x="140" y="-147" type="line"/>
      <point x="90" y="-147" type="line"/>
      <point x="90" y="197" type="line"/>
    </contour>
  </outline>
</glyph>
<glyph name="breve" format="2">
  <advance width="364"/>
  <unicode hex="02D8"/>
  <guideline x="98" y="731" angle="0" identifier="jIJtZIyvGL"/>
  <guideline x="182.0" y="0" angle="270.0" identifier="ULmDJvRNVb"/>
  <anchor x="182" y="520" name="_top"/>
  <outline>
    <contour>
      <point x="182" y="600" type="qcurve" smooth="yes"/>
      <point x="128.0" y="600.0"/>
      <point x="51.65491696014149" y="669.782929039269"/>
      <point x="40" y="730" type="qcurve"/>
      <point x="76" y="737" type="line"/>
      <point x="92.40011328047737" y="691.6585103422096"/>
      <point x="150.0" y="641.0"/>
      <point x="182" y="641" type="qcurve" smooth="yes"/>
      <point x="214.0" y="641.0"/>
      <point x="272.5722979538117" y="691.6811252393218"/>
      <point x="288" y="737" type="qcurve"/>
      <point x="324" y="730" type="line"/>
      <point x="312.34508303985854" y="669.782929039269"/>
      <point x="236.0" y="600.0"/>
    </contour>
  </outline>
</glyph>
<glyph name="dotaccent" format="2">
  <advance width="227"/>
  <unicode hex="02D9"/>
  <outline>
    <contour>
      <point x="151" y="674" type="qcurve" smooth="yes"/>
      <point x="151" y="654"/>
      <point x="127" y="629"/>
      <point x="105" y="629" type="qcurve" smooth="yes"/>
      <point x="83" y="629"/>
      <point x="59" y="653"/>
      <point x="59" y="674" type="qcurve" smooth="yes"/>
      <point x="59" y="694"/>
      <point x="83" y="719"/>
      <point x="105" y="719" type="qcurve" smooth="yes"/>
      <point x="127" y="719"/>
      <point x="151" y="695"/>
    </contour>
  </outline>
</glyph>
<glyph name="ogonek" format="2">
  <advance width="295"/>
  <unicode hex="02DB"/>
  <anchor x="219" y="10" name="_bottom"/>
  <outline>
    <contour>
      <point x="148.0" y="-195.0" type="qcurve"/>
      <point x="106.0" y="-195.0"/>
      <point x="50.0" y="-138"/>
      <point x="50.0" y="-100.0" type="qcurve"/>
      <point x="50.0" y="-52"/>
      <point x="135" y="20"/>
      <point x="205.0" y="31.0" type="qcurve"/>
      <point x="229.0" y="28.0" type="line"/>
      <point x="229.0" y="0.0" type="line"/>
      <point x="172" y="-6"/>
      <point x="101.0" y="-58"/>
      <point x="101.0" y="-90.0" type="qcurve" smooth="yes"/>
      <point x="101.0" y="-114"/>
      <point x="131.0" y="-144.0"/>
      <point x="155.0" y="-144.0" type="qcurve" smooth="yes"/>
      <point x="171" y="-144.0"/>
      <point x="196" y="-130"/>
      <point x="209.0" y="-111.0" type="qcurve"/>
      <point x="248.0" y="-139.0" type="line"/>
      <point x="239" y="-162"/>
      <point x="180.0" y="-195.0"/>
    </contour>
  </outline>
</glyph>
<glyph name="tilde" format="2">
  <advance width="419"/>
  <unicode hex="02DC"/>
  <outline>
    <contour>
      <point x="101" y="628" type="qcurve"/>
      <point x="60" y="632" type="line"/>
      <point x="65" y="674"/>
      <point x="118.0" y="728.0"/>
      <point x="158" y="728" type="qcurve" smooth="yes"/>
      <point x="177.0" y="728.0"/>
      <point x="211.0" y="712.0"/>
      <point x="233" y="689" type="qcurve" smooth="yes"/>
      <point x="249.0" y="673.0"/>
      <point x="267.0" y="666.0"/>
      <point x="276" y="666" type="qcurve"/>
      <point x="292.0" y="666.0"/>
      <point x="314" y="693"/>
      <point x="316" y="712" type="qcurve"/>
      <point x="359" y="708" type="line"/>
      <point x="355" y="672"/>
      <point x="310.0" y="622.0"/>
      <point x="274" y="622" type="qcurve"/>
      <point x="253.0" y="622.0"/>
      <point x="217.0" y="641.0"/>
      <point x="193" y="665" type="qcurve" smooth="yes"/>
      <point x="178.0" y="680.0"/>
      <point x="160.0" y="685.0"/>
      <point x="153" y="685" type="qcurve"/>
      <point x="132.0" y="685.0"/>
      <point x="105" y="656"/>
    </contour>
  </outline>
</glyph>
<glyph name="hungarumlaut" format="2">
  <advance width="412"/>
  <unicode hex="02DD"/>
  <anchor x="188.0" y="515.0" name="_top"/>
  <outline>
    <contour>
      <point x="203" y="692" type="line"/>
      <point x="42" y="600" type="line"/>
      <point x="28" y="619" type="line"/>
      <point x="165" y="739" type="line"/>
    </contour>
    <contour>
      <point x="369" y="692" type="line"/>
      <point x="208" y="600" type="line"/>
      <point x="194" y="619" type="line"/>
      <point x="331" y="739" type="line"/>
    </contour>
  </outline>
</glyph>
<glyph name="gravecomb" format="2">
  <unicode hex="0300"/>
  <anchor x="134.0" y="519.0" name="_top"/>
  <anchor x="134.0" y="740.0" name="top"/>
  <outline>
    <contour>
      <point x="40.0" y="693.0" type="line"/>
      <point x="78.0" y="740.0" type="line"/>
      <point x="214.0" y="620.0" type="line"/>
      <point x="201.0" y="601.0" type="line"/>
    </contour>
  </outline>
</glyph>
<glyph name="acutecomb" format="2">
  <unicode hex="0301"/>
  <guideline x="126" y="441" angle="270" identifier="shSsaxRl05"/>
  <anchor x="126.0" y="540" name="_top"/>
  <anchor x="126.0" y="740" name="top"/>
  <outline>
    <contour>
      <point x="234.0" y="693.0" type="line"/>
      <point x="73.0" y="601.0" type="line"/>
      <point x="60.0" y="620.0" type="line"/>
      <point x="196.0" y="740.0" type="line"/>
    </contour>
  </outline>
</glyph>
<glyph name="tildecomb" format="2">
  <unicode hex="0303"/>
  <guideline x="204" y="655" angle="270" identifier="n6G2oDyHJs"/>
  <anchor x="203.0" y="520" name="_top"/>
  <anchor x="204.0" y="740" name="top"/>
  <outline>
    <contour>
      <point x="90.0" y="628.0" type="qcurve"/>
      <point x="49.0" y="634.0" type="line"/>
      <point x="54" y="674"/>
      <point x="107" y="726.0"/>
      <point x="147.0" y="726.0" type="qcurve" smooth="yes"/>
      <point x="166" y="726.0"/>
      <point x="200" y="710"/>
      <point x="222.0" y="687.0" type="qcurve" smooth="yes"/>
      <point x="238" y="671"/>
      <point x="256.0" y="664.0"/>
      <point x="265.0" y="664.0" type="qcurve"/>
      <point x="281.0" y="664.0"/>
      <point x="303" y="692"/>
      <point x="305.0" y="712.0" type="qcurve"/>
      <point x="348.0" y="702.0" type="line"/>
      <point x="344" y="670"/>
      <point x="299" y="624.0"/>
      <point x="263.0" y="624.0" type="qcurve"/>
      <point x="242" y="624.0"/>
      <point x="206.0" y="643.0"/>
      <point x="182.0" y="667.0" type="qcurve" smooth="yes"/>
      <point x="167" y="682"/>
      <point x="149.0" y="687.0"/>
      <point x="142.0" y="687.0" type="qcurve"/>
      <point x="121" y="687.0"/>
      <point x="94" y="657"/>
    </contour>
  </outline>
</glyph>
<glyph name="dotaccentcomb" format="2">
  <advance width="227"/>
  <unicode hex="0307"/>
  <outline>
    <contour>
      <point x="151" y="674" type="qcurve" smooth="yes"/>
      <point x="151" y="654"/>
      <point x="127" y="629"/>
      <point x="105" y="629" type="qcurve" smooth="yes"/>
      <point x="83" y="629"/>
      <point x="59" y="653"/>
      <point x="59" y="674" type="qcurve" smooth="yes"/>
      <point x="59" y="694"/>
      <point x="83" y="719"/>
      <point x="105" y="719" type="qcurve" smooth="yes"/>
      <point x="127" y="719"/>
      <point x="151" y="695"/>
    </contour>
  </outline>
</glyph>
<glyph name="dieresiscomb" format="2">
  <unicode hex="0308"/>
  <guideline x="133" y="674" angle="0" identifier="POFFoGgWO5"/>
  <anchor x="175.0" y="520.0" name="_top"/>
  <anchor x="174.0" y="700.0" name="top"/>
  <outline>
    <contour>
      <point x="127" y="674" type="qcurve" smooth="yes"/>
      <point x="127" y="654"/>
      <point x="103" y="629"/>
      <point x="81" y="629" type="qcurve" smooth="yes"/>
      <point x="59" y="629"/>
      <point x="35" y="653"/>
      <point x="35" y="674" type="qcurve" smooth="yes"/>
      <point x="35" y="694"/>
      <point x="59" y="719"/>
      <point x="81" y="719" type="qcurve" smooth="yes"/>
      <point x="103" y="719"/>
      <point x="127" y="695"/>
    </contour>
    <contour>
      <point x="317" y="674" type="qcurve" smooth="yes"/>
      <point x="317" y="654"/>
      <point x="293" y="629"/>
      <point x="271" y="629" type="qcurve" smooth="yes"/>
      <point x="249" y="629"/>
      <point x="225" y="653"/>
      <point x="225" y="674" type="qcurve" smooth="yes"/>
      <point x="225" y="694"/>
      <point x="249" y="719"/>
      <point x="271" y="719" type="qcurve" smooth="yes"/>
      <point x="293" y="719"/>
      <point x="317" y="695"/>
    </contour>
  </outline>
</glyph>
<glyph name="ringcomb" format="2">
  <unicode hex="030A"/>
  <guideline x="159" y="558" angle="270" identifier="o0BQagpbOA"/>
  <anchor x="161.0" y="520.0" name="_top"/>
  <anchor x="159.0" y="756.0" name="top"/>
  <outline>
    <contour>
      <point x="264.0" y="669.0" type="qcurve"/>
      <point x="264.0" y="629.0"/>
      <point x="201.0" y="569.0"/>
      <point x="159.0" y="569.0" type="qcurve"/>
      <point x="118" y="569.0"/>
      <point x="55.0" y="629.0"/>
      <point x="55.0" y="669.0" type="qcurve"/>
      <point x="55.0" y="710.0"/>
      <point x="117" y="770.0"/>
      <point x="159.0" y="770.0" type="qcurve"/>
      <point x="201.0" y="770.0"/>
      <point x="264.0" y="710.0"/>
    </contour>
    <contour>
      <point x="95.0" y="669.0" type="qcurve"/>
      <point x="95.0" y="644.0"/>
      <point x="133" y="608.0"/>
      <point x="159.0" y="608.0" type="qcurve"/>
      <point x="186" y="608.0"/>
      <point x="224.0" y="644.0"/>
      <point x="224.0" y="669.0" type="qcurve"/>
      <point x="224.0" y="697.0"/>
      <point x="186" y="731.0"/>
      <point x="159.0" y="731.0" type="qcurve"/>
      <point x="131" y="731.0"/>
      <point x="95.0" y="696.0"/>
    </contour>
  </outline>
</glyph>
<glyph name="hungarumlautcomb" format="2">
  <unicode hex="030B"/>
  <anchor x="172.0" y="512.0" name="_top"/>
  <anchor x="172.0" y="740.0" name="top"/>
  <outline>
    <contour>
      <point x="225.0" y="667.0" type="line"/>
      <point x="51.0" y="573.0" type="line"/>
      <point x="17.0" y="624.0" type="line"/>
      <point x="160.0" y="749.0" type="line"/>
    </contour>
    <contour>
      <point x="424.0" y="667.0" type="line"/>
      <point x="250.0" y="573.0" type="line"/>
      <point x="216.0" y="624.0" type="line"/>
      <point x="359.0" y="749.0" type="line"/>
    </contour>
  </outline>
</glyph>
<glyph name="caroncomb" format="2">
  <advance width="362"/>
  <unicode hex="030C"/>
  <outline>
    <contour>
      <point x="196" y="643" type="line"/>
      <point x="166" y="643" type="line"/>
      <point x="305" y="742" type="line"/>
      <point x="329" y="723" type="line"/>
      <point x="214" y="610" type="line"/>
      <point x="148" y="610" type="line"/>
      <point x="33" y="723" type="line"/>
      <point x="57" y="742" type="line"/>
    </contour>
  </outline>
</glyph>
<glyph name="horncomb" format="2">
  <unicode hex="031B"/>
  <anchor x="0" y="520" name="_topright"/>
  <anchor x="0" y="520" name="topright"/>
  <outline>
    <contour>
      <point x="0" y="472" type="qcurve"/>
      <point x="0" y="520" type="line"/>
      <point x="47" y="520"/>
      <point x="93" y="572"/>
      <point x="93" y="624" type="qcurve"/>
      <point x="141" y="624" type="line"/>
      <point x="141" y="554"/>
      <point x="67" y="472"/>
    </contour>
  </outline>
</glyph>
<glyph name="dotbelowcomb" format="2">
  <unicode hex="0323"/>
  <guideline x="105" y="-185" angle="270" identifier="nTrACfR6Bm"/>
  <outline>
    <contour>
      <point x="151.0" y="-121.0" type="qcurve" smooth="yes"/>
      <point x="151.0" y="-141.0"/>
      <point x="127" y="-166.0"/>
      <point x="105.0" y="-166.0" type="qcurve" smooth="yes"/>
      <point x="83" y="-166.0"/>
      <point x="59.0" y="-142.0"/>
      <point x="59.0" y="-121.0" type="qcurve" smooth="yes"/>
      <point x="59.0" y="-101.0"/>
      <point x="83" y="-76.0"/>
      <point x="105.0" y="-76.0" type="qcurve" smooth="yes"/>
      <point x="127" y="-76.0"/>
      <point x="151.0" y="-100.0"/>
    </contour>
  </outline>
</glyph>
<glyph name="dieresisbelowcomb" format="2">
  <unicode hex="0324"/>
  <anchor x="198.0" y="0" name="_bottom"/>
  <anchor x="198.0" y="-150.0" name="bottom"/>
  <outline>
    <contour>
      <point x="148.0" y="-105.0" type="qcurve" smooth="yes"/>
      <point x="148.0" y="-125.0"/>
      <point x="124" y="-150.0"/>
      <point x="102.0" y="-150.0" type="qcurve" smooth="yes"/>
      <point x="80" y="-150.0"/>
      <point x="56.0" y="-126.0"/>
      <point x="56.0" y="-105.0" type="qcurve" smooth="yes"/>
      <point x="56.0" y="-85.0"/>
      <point x="80" y="-60.0"/>
      <point x="102.0" y="-60.0" type="qcurve" smooth="yes"/>
      <point x="124" y="-60.0"/>
      <point x="148.0" y="-84.0"/>
    </contour>
    <contour>
      <point x="337.0" y="-105.0" type="qcurve" smooth="yes"/>
      <point x="337.0" y="-125.0"/>
      <point x="313" y="-150.0"/>
      <point x="291.0" y="-150.0" type="qcurve" smooth="yes"/>
      <point x="269" y="-150.0"/>
      <point x="245.0" y="-126.0"/>
      <point x="245.0" y="-105.0" type="qcurve" smooth="yes"/>
      <point x="245.0" y="-85.0"/>
      <point x="269" y="-60.0"/>
      <point x="291.0" y="-60.0" type="qcurve" smooth="yes"/>
      <point x="313" y="-60.0"/>
      <point x="337.0" y="-84.0"/>
    </contour>
  </outline>
</glyph>
<glyph name="commaaccentcomb" format="2">
  <unicode hex="0326"/>
  <anchor x="124.0" y="0" name="_bottom"/>
  <anchor x="123.0" y="-276.0" name="bottom"/>
  <outline>
    <contour>
      <point x="83" y="-203" type="qcurve"/>
      <point x="65" y="-182" type="line"/>
      <point x="91" y="-166"/>
      <point x="114" y="-135"/>
      <point x="114" y="-118" type="qcurve"/>
      <point x="114" y="-111"/>
      <point x="107" y="-97"/>
      <point x="90" y="-90" type="qcurve" smooth="yes"/>
      <point x="80" y="-86"/>
      <point x="68" y="-68"/>
      <point x="68" y="-57" type="qcurve"/>
      <point x="68" y="-43"/>
      <point x="89" y="-24"/>
      <point x="104" y="-24" type="qcurve"/>
      <point x="132" y="-24"/>
      <point x="163" y="-57"/>
      <point x="163" y="-85" type="qcurve"/>
      <point x="163" y="-123"/>
      <point x="126" y="-178"/>
    </contour>
  </outline>
</glyph>
<glyph name="ogonekcomb" format="2">
  <unicode hex="0328"/>
  <anchor x="209.0" y="10.0" name="_ogonek"/>
  <outline>
    <contour>
      <point x="138.0" y="-195.0" type="qcurve"/>
      <point x="96.0" y="-195.0"/>
      <point x="40.0" y="-138"/>
      <point x="40.0" y="-100.0" type="qcurve"/>
      <point x="40.0" y="-52"/>
      <point x="125" y="20"/>
      <point x="195.0" y="31.0" type="qcurve"/>
      <point x="219.0" y="28.0" type="line"/>
      <point x="219.0" y="0.0" type="line"/>
      <point x="162" y="-6"/>
      <point x="91.0" y="-58"/>
      <point x="91.0" y="-90.0" type="qcurve" smooth="yes"/>
      <point x="91.0" y="-114"/>
      <point x="121.0" y="-144.0"/>
      <point x="145.0" y="-144.0" type="qcurve" smooth="yes"/>
      <point x="161" y="-144.0"/>
      <point x="186" y="-130"/>
      <point x="199.0" y="-111.0" type="qcurve"/>
      <point x="238.0" y="-139.0" type="line"/>
      <point x="229" y="-162"/>
      <point x="170.0" y="-195.0"/>
    </contour>
  </outline>
</glyph>
<glyph name="macronbelowcomb" format="2">
  <unicode hex="0331"/>
  <anchor x="213" y="0" name="_bottom"/>
  <anchor x="213" y="-164" name="bottom"/>
  <outline>
    <contour>
      <point x="347.0" y="-132.0" type="line"/>
      <point x="73.0" y="-132.0" type="line"/>
      <point x="73.0" y="-84.0" type="line"/>
      <point x="347.0" y="-84.0" type="line"/>
    </contour>
  </outline>
</glyph>
<glyph name="alef-ar" format="2">
  <advance width="264"/>
  <unicode hex="0627"/>
  <outline>
    <contour>
      <point x="80.0" y="0.0" type="line"/>
      <point x="80.0" y="740.0" type="line"/>
      <point x="184.0" y="740.0" type="line"/>
      <point x="184.0" y="0.0" type="line"/>
    </contour>
  </outline>
</glyph>
<glyph name="seen-ar" format="2">
  <advance width="1286"/>
  <unicode hex="0633"/>
  <anchor x="848.0" y="0" name="bottom"/>
  <anchor x="874.0" y="333.0" name="top"/>
  <outline>
    <contour>
      <point x="793.0" y="68.0" type="qcurve"/>
      <point x="848.0" y="136.0" type="line"/>
      <point x="878.0" y="119.0"/>
      <point x="953.0" y="102.0"/>
      <point x="996.0" y="102.0" type="qcurve"/>
      <point x="1124.0" y="102.0" type="line"/>
      <point x="1124.0" y="158.0"/>
      <point x="1091.0" y="268.0"/>
      <point x="1049.0" y="346.0" type="qcurve"/>
      <point x="1140.0" y="438.0" type="line"/>
      <point x="1207.0" y="292.0"/>
      <point x="1223.0" y="98.0"/>
      <point x="1188.0" y="0.0" type="qcurve"/>
      <point x="1019.0" y="0.0" type="line" smooth="yes"/>
      <point x="955.0" y="0.0"/>
      <point x="847.0" y="32.0"/>
    </contour>
    <contour>
      <point x="621.0" y="0.0" type="line"/>
      <point x="621.0" y="102.0" type="line"/>
      <point x="754.0" y="102.0" type="line"/>
      <point x="771.0" y="130.0"/>
      <point x="802.0" y="242.0"/>
      <point x="806.0" y="289.0" type="qcurve"/>
      <point x="927.0" y="331.0" type="line"/>
      <point x="906.0" y="232.0"/>
      <point x="844.0" y="81.0"/>
      <point x="789.0" y="0.0" type="qcurve"/>
    </contour>
    <component base="noonghunna-ar"/>
  </outline>
</glyph>
<glyph name="heh-ar" format="2">
  <advance width="499"/>
  <unicode hex="0647"/>
  <outline>
    <contour>
      <point x="86.0" y="323.0" type="qcurve" smooth="yes"/>
      <point x="100.0" y="342.0"/>
      <point x="138.0" y="381.0"/>
      <point x="201.0" y="436.0" type="qcurve"/>
      <point x="262.0" y="374.0" type="line"/>
      <point x="183.0" y="301.0"/>
      <point x="134.0" y="219.0"/>
      <point x="134.0" y="177.0" type="qcurve" smooth="yes"/>
      <point x="134.0" y="139.0"/>
      <point x="191.0" y="91.0"/>
      <point x="238.0" y="91.0" type="qcurve" smooth="yes"/>
      <point x="291.0" y="91.0"/>
      <point x="345.0" y="134.0"/>
      <point x="345.0" y="177.0" type="qcurve" smooth="yes"/>
      <point x="345.0" y="231.0"/>
      <point x="239.0" y="362.0"/>
      <point x="134.0" y="438.0" type="qcurve"/>
      <point x="187.0" y="534.0" type="line"/>
      <point x="321.0" y="432.0"/>
      <point x="449.0" y="258.0"/>
      <point x="449.0" y="174.0" type="qcurve" smooth="yes"/>
      <point x="449.0" y="88.0"/>
      <point x="337.0" y="-11.0"/>
      <point x="238.0" y="-11.0" type="qcurve" smooth="yes"/>
      <point x="146.0" y="-11.0"/>
      <point x="30.0" y="92.0"/>
      <point x="30.0" y="174.0" type="qcurve" smooth="yes"/>
      <point x="30.0" y="212.0"/>
      <point x="58.0" y="286.0"/>
    </contour>
  </outline>
</glyph>
<glyph name="alefMaksura-ar" format="2">
  <advance width="795"/>
  <unicode hex="0649"/>
  <outline>
    <contour>
      <point x="511.0" y="-106.0" type="qcurve" smooth="yes"/>
      <point x="561.0" y="-89.0"/>
      <point x="622.0" y="-35.0"/>
      <point x="622.0" y="-10.0" type="qcurve" smooth="yes"/>
      <point x="622.0" y="6.0"/>
      <point x="587.0" y="37.0"/>
      <point x="493.0" y="82.0" type="qcurve" smooth="yes"/>
      <point x="421.0" y="117.0"/>
      <point x="361.0" y="190.0"/>
      <point x="361.0" y="236.0" type="qcurve" smooth="yes"/>
      <point x="361.0" y="325.0"/>
      <point x="487.0" y="439.0"/>
      <point x="586.0" y="439.0" type="qcurve" smooth="yes"/>
      <point x="632.0" y="439.0"/>
      <point x="719.0" y="416.0"/>
      <point x="755.0" y="395.0" type="qcurve"/>
      <point x="703.0" y="307.0" type="line"/>
      <point x="676.0" y="323.0"/>
      <point x="620.0" y="337.0"/>
      <point x="586.0" y="337.0" type="qcurve" smooth="yes"/>
      <point x="532.0" y="337.0"/>
      <point x="465.0" y="287.0"/>
      <point x="465.0" y="248.0" type="qcurve" smooth="yes"/>
      <point x="465.0" y="221.0"/>
      <point x="517.0" y="174.0"/>
      <point x="596.0" y="139.0" type="qcurve" smooth="yes"/>
      <point x="667.0" y="109.0"/>
      <point x="718.0" y="55.0"/>
      <point x="718.0" y="18.0" type="qcurve" smooth="yes"/>
      <point x="718.0" y="-39.0"/>
      <point x="649.0" y="-144.0"/>
      <point x="587.0" y="-178.0" type="qcurve" smooth="yes"/>
      <point x="540.0" y="-204.0"/>
      <point x="419.0" y="-230.0"/>
      <point x="347.0" y="-230.0" type="qcurve" smooth="yes"/>
      <point x="196.0" y="-230.0"/>
      <point x="30.0" y="-98.0"/>
      <point x="30.0" y="23.0" type="qcurve" smooth="yes"/>
      <point x="30.0" y="66.0"/>
      <point x="61.0" y="187.0"/>
      <point x="89.0" y="250.0" type="qcurve"/>
      <point x="33.0" y="228.0" type="line"/>
      <point x="210.0" y="169.0" type="line"/>
      <point x="177.0" y="223.0" type="line"/>
      <point x="155.0" y="171.0"/>
      <point x="131.0" y="75.0"/>
      <point x="131.0" y="38.0" type="qcurve" smooth="yes"/>
      <point x="131.0" y="-44.0"/>
      <point x="246.0" y="-128.0"/>
      <point x="358.0" y="-128.0" type="qcurve" smooth="yes"/>
      <point x="401.0" y="-128.0"/>
      <point x="478.0" y="-117.0"/>
    </contour>
  </outline>
</glyph>
<glyph name="damma-ar" format="2">
  <unicode hex="064F"/>
  <outline>
    <contour>
      <point x="136.0" y="774.0" type="qcurve" smooth="yes"/>
      <point x="150.0" y="774.0"/>
      <point x="168.0" y="777.0"/>
      <point x="178.0" y="781.0" type="qcurve"/>
      <point x="201.0" y="741.0" type="line"/>
      <point x="187.0" y="733.0"/>
      <point x="151.0" y="724.0"/>
      <point x="133.0" y="724.0" type="qcurve" smooth="yes"/>
      <point x="94.0" y="724.0"/>
      <point x="47.0" y="764.0"/>
      <point x="47.0" y="797.0" type="qcurve" smooth="yes"/>
      <point x="47.0" y="836.0"/>
      <point x="97.0" y="891.0"/>
      <point x="133.0" y="891.0" type="qcurve" smooth="yes"/>
      <point x="174.0" y="891.0"/>
      <point x="221.0" y="826.0"/>
      <point x="221.0" y="771.0" type="qcurve" smooth="yes"/>
      <point x="221.0" y="707.0"/>
      <point x="158.0" y="635.0"/>
      <point x="101.0" y="635.0" type="qcurve" smooth="yes"/>
      <point x="77.0" y="635.0"/>
      <point x="36.0" y="651.0"/>
      <point x="20.0" y="666.0" type="qcurve"/>
      <point x="47.0" y="703.0" type="line"/>
      <point x="57.0" y="695.0"/>
      <point x="87.0" y="685.0"/>
      <point x="101.0" y="685.0" type="qcurve" smooth="yes"/>
      <point x="135.0" y="685.0"/>
      <point x="176.0" y="728.0"/>
      <point x="176.0" y="765.0" type="qcurve" smooth="yes"/>
      <point x="176.0" y="799.0"/>
      <point x="152.0" y="841.0"/>
      <point x="133.0" y="841.0" type="qcurve" smooth="yes"/>
      <point x="118.0" y="841.0"/>
      <point x="97.0" y="820.0"/>
      <point x="97.0" y="805.0" type="qcurve" smooth="yes"/>
      <point x="97.0" y="791.0"/>
      <point x="118.0" y="774.0"/>
    </contour>
  </outline>
</glyph>
<glyph name="kasra-ar" format="2">
  <unicode hex="0650"/>
  <outline>
    <contour>
      <point x="20.0" y="-154.0" type="line"/>
      <point x="273.0" y="-88.0" type="line"/>
      <point x="287.0" y="-142.0" type="line"/>
      <point x="34.0" y="-208.0" type="line"/>
    </contour>
  </outline>
</glyph>
<glyph name="Germandbls" format="2">
  <advance width="737"/>
  <unicode hex="1E9E"/>
  <outline>
    <contour>
      <point x="618" y="609" type="line"/>
      <point x="524" y="594"/>
      <point x="422" y="529"/>
      <point x="422" y="486" type="qcurve" smooth="yes"/>
      <point x="422" y="456"/>
      <point x="472" y="405"/>
      <point x="522" y="384" type="qcurve" smooth="yes"/>
      <point x="556" y="370"/>
      <point x="607" y="344"/>
      <point x="625" y="327" type="qcurve" smooth="yes"/>
      <point x="659" y="295"/>
      <point x="684" y="230"/>
      <point x="684" y="184" type="qcurve" smooth="yes"/>
      <point x="684" y="105"/>
      <point x="555" y="-10"/>
      <point x="467" y="-10" type="qcurve" smooth="yes"/>
      <point x="409" y="-10"/>
      <point x="302" y="36"/>
      <point x="272" y="75" type="qcurve"/>
      <point x="306" y="117" type="line"/>
      <point x="340" y="77"/>
      <point x="426" y="40"/>
      <point x="466" y="40" type="qcurve" smooth="yes"/>
      <point x="542" y="40"/>
      <point x="631" y="113"/>
      <point x="631" y="177" type="qcurve" smooth="yes"/>
      <point x="631" y="218"/>
      <point x="604" y="274"/>
      <point x="571" y="298" type="qcurve" smooth="yes"/>
      <point x="554" y="310"/>
      <point x="504" y="333"/>
      <point x="472" y="348" type="qcurve" smooth="yes"/>
      <point x="415" y="375"/>
      <point x="369" y="435"/>
      <point x="369" y="477" type="qcurve"/>
      <point x="369" y="545"/>
      <point x="471" y="632"/>
      <point x="555" y="644" type="qcurve"/>
      <point x="565" y="622" type="line"/>
      <point x="530" y="640"/>
      <point x="456" y="655"/>
      <point x="409" y="655" type="qcurve"/>
      <point x="288" y="655"/>
      <point x="155" y="512"/>
      <point x="155" y="374" type="qcurve"/>
      <point x="155" y="0" type="line"/>
      <point x="104" y="0" type="line"/>
      <point x="104" y="380" type="line" smooth="yes"/>
      <point x="104" y="538"/>
      <point x="259" y="705"/>
      <point x="411" y="705" type="qcurve" smooth="yes"/>
      <point x="466" y="705"/>
      <point x="561" y="681"/>
      <point x="614" y="658" type="qcurve"/>
    </contour>
  </outline>
</glyph>
<glyph name="quoteleft" format="2">
  <advance width="238"/>
  <unicode hex="2018"/>
  <note>
quoteleft
</note>
  <outline>
    <contour>
      <point x="170" y="511" type="qcurve"/>
      <point x="170" y="495"/>
      <point x="149" y="476"/>
      <point x="131" y="476" type="qcurve"/>
      <point x="99" y="476"/>
      <point x="65" y="517"/>
      <point x="65" y="553" type="qcurve"/>
      <point x="65" y="603"/>
      <point x="112" y="676"/>
      <point x="165" y="707" type="qcurve"/>
      <point x="183" y="686" type="line"/>
      <point x="150" y="666"/>
      <point x="114" y="622"/>
      <point x="114" y="598" type="qcurve"/>
      <point x="114" y="585"/>
      <point x="126" y="566"/>
      <point x="148" y="549" type="qcurve" smooth="yes"/>
      <point x="157" y="542"/>
      <point x="170" y="522"/>
    </contour>
  </outline>
</glyph>
<glyph name="quoteright" format="2">
  <advance width="238"/>
  <unicode hex="2019"/>
  <note>
quoteright
</note>
  <outline>
    <contour>
      <point x="68" y="672" type="qcurve"/>
      <point x="68.0" y="688"/>
      <point x="89.0" y="707.0"/>
      <point x="107" y="707" type="qcurve"/>
      <point x="139.0" y="707.0"/>
      <point x="173.0" y="666"/>
      <point x="173" y="630" type="qcurve"/>
      <point x="173.0" y="580"/>
      <point x="126" y="507"/>
      <point x="73" y="476" type="qcurve"/>
      <point x="55" y="497" type="line"/>
      <point x="88" y="517"/>
      <point x="124.0" y="561"/>
      <point x="124" y="585" type="qcurve"/>
      <point x="124.0" y="598"/>
      <point x="112" y="617"/>
      <point x="90" y="634" type="qcurve" smooth="yes"/>
      <point x="81" y="641"/>
      <point x="68" y="661"/>
    </contour>
  </outline>
</glyph>
<glyph name="daggerdbl" format="2">
  <advance width="424"/>
  <unicode hex="2021"/>
  <note>
daggerdbl
</note>
  <outline>
    <contour>
      <point x="189" y="196" type="line"/>
      <point x="189" y="721" type="line"/>
      <point x="237" y="721" type="line"/>
      <point x="237" y="196" type="line"/>
    </contour>
    <contour>
      <point x="368" y="539" type="line"/>
      <point x="56" y="539" type="line"/>
      <point x="56" y="583" type="line"/>
      <point x="368" y="583" type="line"/>
    </contour>
    <contour>
      <point x="368" y="383" type="line"/>
      <point x="56" y="383" type="line"/>
      <point x="56" y="427" type="line"/>
      <point x="368" y="427" type="line"/>
    </contour>
  </outline>
</glyph>
<glyph name="perthousand" format="2">
  <advance width="1196"/>
  <unicode hex="2030"/>
  <note>
perthousand
</note>
  <outline>
    <contour>
      <point x="354" y="518" type="qcurve"/>
      <point x="354" y="438"/>
      <point x="266" y="329"/>
      <point x="200" y="329" type="qcurve"/>
      <point x="132" y="329"/>
      <point x="47" y="436"/>
      <point x="47" y="518" type="qcurve"/>
      <point x="47" y="601"/>
      <point x="133" y="709"/>
      <point x="201" y="709" type="qcurve"/>
      <point x="269" y="709"/>
      <point x="354" y="601"/>
    </contour>
    <contour>
      <point x="96" y="518" type="qcurve"/>
      <point x="96.0" y="451"/>
      <point x="151.0" y="375.0"/>
      <point x="201" y="375" type="qcurve"/>
      <point x="250.0" y="375.0"/>
      <point x="305.0" y="450"/>
      <point x="305" y="518" type="qcurve"/>
      <point x="305.0" y="587"/>
      <point x="250.0" y="663.0"/>
      <point x="200" y="663" type="qcurve"/>
      <point x="152.0" y="663.0"/>
      <point x="96.0" y="585"/>
    </contour>
    <contour>
      <point x="797" y="180" type="qcurve"/>
      <point x="797" y="100"/>
      <point x="709" y="-9"/>
      <point x="643" y="-9" type="qcurve"/>
      <point x="575" y="-9"/>
      <point x="490" y="98"/>
      <point x="490" y="180" type="qcurve"/>
      <point x="490" y="263"/>
      <point x="576" y="371"/>
      <point x="644" y="371" type="qcurve"/>
      <point x="712" y="371"/>
      <point x="797" y="263"/>
    </contour>
    <contour>
      <point x="539" y="180" type="qcurve"/>
      <point x="539.0" y="113.0"/>
      <point x="594" y="37.0"/>
      <point x="644" y="37" type="qcurve"/>
      <point x="693" y="37.0"/>
      <point x="748.0" y="112.0"/>
      <point x="748" y="180" type="qcurve"/>
      <point x="748.0" y="249.0"/>
      <point x="693" y="325.0"/>
      <point x="643" y="325" type="qcurve"/>
      <point x="595" y="325.0"/>
      <point x="539.0" y="247.0"/>
    </contour>
    <contour>
      <point x="1147" y="180" type="qcurve"/>
      <point x="1147" y="100"/>
      <point x="1059" y="-9"/>
      <point x="993" y="-9" type="qcurve"/>
      <point x="925" y="-9"/>
      <point x="840" y="98"/>
      <point x="840" y="180" type="qcurve"/>
      <point x="840" y="263"/>
      <point x="926" y="371"/>
      <point x="994" y="371" type="qcurve"/>
      <point x="1062" y="371"/>
      <point x="1147" y="263"/>
    </contour>
    <contour>
      <point x="889" y="180" type="qcurve"/>
      <point x="889.0" y="113.0"/>
      <point x="944" y="37.0"/>
      <point x="994" y="37" type="qcurve"/>
      <point x="1043" y="37.0"/>
      <point x="1098.0" y="112.0"/>
      <point x="1098" y="180" type="qcurve"/>
      <point x="1098.0" y="249.0"/>
      <point x="1043" y="325.0"/>
      <point x="993" y="325" type="qcurve"/>
      <point x="945" y="325.0"/>
      <point x="889.0" y="247.0"/>
    </contour>
    <component base="fraction" xOffset="125"/>
  </outline>
</glyph>
<glyph name="second" format="2">
  <advance width="341"/>
  <unicode hex="2033"/>
  <outline>
    <contour>
      <point x="50" y="442" type="line"/>
      <point x="83" y="700" type="line"/>
      <point x="153" y="700" type="line"/>
      <point x="81" y="442" type="line"/>
    </contour>
    <contour>
      <point x="188" y="442" type="line"/>
      <point x="221" y="700" type="line"/>
      <point x="291" y="700" type="line"/>
      <point x="219" y="442" type="line"/>
    </contour>
  </outline>
</glyph>
<glyph name="guilsinglleft" format="2">
  <advance width="273"/>
  <unicode hex="2039"/>
  <note>
guilsinglleft
</note>
  <outline>
    <contour>
      <point x="96" y="252" type="line"/>
      <point x="96" y="268" type="line"/>
      <point x="237" y="78" type="line"/>
      <point x="200" y="52" type="line"/>
      <point x="40" y="259" type="line"/>
      <point x="40" y="261" type="line"/>
      <point x="200" y="468" type="line"/>
      <point x="238" y="443" type="line"/>
    </contour>
  </outline>
</glyph>
<glyph name="fraction" format="2">
  <advance width="606"/>
  <unicode hex="2044"/>
  <note>
fraction
</note>
  <outline>
    <contour>
      <point x="95.0" y="0.0" type="line"/>
      <point x="42.0" y="0.0" type="line"/>
      <point x="266.0" y="335.0" type="line"/>
      <point x="508.0" y="700.0" type="line"/>
      <point x="561.0" y="700.0" type="line"/>
      <point x="298.0" y="307.0" type="line"/>
    </contour>
  </outline>
</glyph>
<glyph name="colonsign" format="2">
  <advance width="637"/>
  <unicode hex="20A1"/>
  <guideline x="-28" y="-100" angle="0" identifier="MuXKpvqFkn"/>
  <guideline x="433" y="779" angle="0" identifier="eOxzd24HAc"/>
  <anchor x="377.0" y="0" name="bottom"/>
  <anchor x="372.0" y="700.0" name="top"/>
  <outline>
    <contour>
      <point x="108.0" y="-60.0" type="line"/>
      <point x="66.0" y="-42.0" type="line"/>
      <point x="468.0" y="780.0" type="line"/>
      <point x="515.0" y="762.0" type="line"/>
    </contour>
    <contour>
      <point x="258.0" y="-85.0" type="line"/>
      <point x="216.0" y="-67.0" type="line"/>
      <point x="618.0" y="755.0" type="line"/>
      <point x="665.0" y="737.0" type="line"/>
    </contour>
    <component base="C"/>
  </outline>
</glyph>
<glyph name="lira" format="2">
  <advance width="610"/>
  <unicode hex="20A4"/>
  <outline>
    <contour>
      <point x="442.0" y="343.0" type="line"/>
      <point x="54.0" y="343.0" type="line"/>
      <point x="54.0" y="391.0" type="line"/>
      <point x="442.0" y="391.0" type="line"/>
    </contour>
    <contour>
      <point x="217" y="91" type="qcurve"/>
      <point x="238" y="91.0"/>
      <point x="287" y="79"/>
      <point x="334" y="63" type="qcurve" smooth="yes"/>
      <point x="380" y="47"/>
      <point x="423" y="41.0"/>
      <point x="440" y="41" type="qcurve"/>
      <point x="464" y="41.0"/>
      <point x="512" y="60"/>
      <point x="538" y="76" type="qcurve"/>
      <point x="571" y="33" type="line"/>
      <point x="543" y="13"/>
      <point x="476" y="-10.0"/>
      <point x="440" y="-10" type="qcurve"/>
      <point x="422" y="-10.0"/>
      <point x="369" y="-2"/>
      <point x="313" y="15" type="qcurve" smooth="yes"/>
      <point x="261" y="31"/>
      <point x="216" y="40.0"/>
      <point x="201" y="40" type="qcurve"/>
      <point x="173" y="40.0"/>
      <point x="109" y="20"/>
      <point x="76" y="7" type="qcurve"/>
      <point x="52" y="51" type="line"/>
      <point x="87" y="68"/>
      <point x="169" y="91.0"/>
    </contour>
    <contour>
      <point x="245" y="224" type="qcurve"/>
      <point x="245.0" y="180"/>
      <point x="223" y="94"/>
      <point x="187" y="56" type="qcurve"/>
      <point x="142" y="77" type="line"/>
      <point x="164" y="89"/>
      <point x="195.0" y="159"/>
      <point x="195" y="201" type="qcurve"/>
      <point x="195" y="229"/>
      <point x="183" y="292"/>
      <point x="163" y="352" type="qcurve" smooth="yes"/>
      <point x="144" y="412"/>
      <point x="134.0" y="471"/>
      <point x="134" y="497" type="qcurve"/>
      <point x="134.0" y="588"/>
      <point x="246.0" y="700.0"/>
      <point x="340" y="700" type="qcurve"/>
      <point x="402" y="700.0"/>
      <point x="493" y="656"/>
      <point x="516" y="616" type="qcurve"/>
      <point x="473" y="583" type="line"/>
      <point x="438" y="620"/>
      <point x="379.0" y="647.0"/>
      <point x="340" y="647" type="qcurve"/>
      <point x="271" y="647.0"/>
      <point x="184.0" y="562"/>
      <point x="184" y="496" type="qcurve"/>
      <point x="184.0" y="473"/>
      <point x="195" y="414"/>
      <point x="215" y="353" type="qcurve" smooth="yes"/>
      <point x="234.0" y="297.0"/>
      <point x="245.0" y="244.0"/>
    </contour>
    <contour>
      <point x="442.0" y="220.0" type="line"/>
      <point x="54.0" y="220.0" type="line"/>
      <point x="54.0" y="268.0" type="line"/>
      <point x="442.0" y="268.0" type="line"/>
    </contour>
  </outline>
</glyph>
<glyph name="naira" format="2">
  <advance width="795"/>
  <unicode hex="20A6"/>
  <anchor x="393.0" y="0" name="bottom"/>
  <anchor x="393.0" y="700.0" name="top"/>
  <outline>
    <contour>
      <point x="122" y="320" type="line"/>
      <point x="10" y="320" type="line"/>
      <point x="10" y="368" type="line"/>
      <point x="124" y="368" type="line"/>
      <point x="148" y="366" type="line"/>
      <point x="633" y="366" type="line"/>
      <point x="662" y="368" type="line"/>
      <point x="785" y="368" type="line"/>
      <point x="785" y="320" type="line"/>
      <point x="657" y="320" type="line"/>
      <point x="633" y="322" type="line"/>
      <point x="148" y="322" type="line"/>
    </contour>
    <contour>
      <point x="623" y="417" type="qcurve"/>
      <point x="623" y="700" type="line"/>
      <point x="650" y="700"/>
      <point x="646" y="700"/>
      <point x="673" y="700" type="qcurve"/>
      <point x="673" y="0" type="line"/>
      <point x="625" y="0" type="line"/>
      <point x="136" y="641" type="line"/>
      <point x="150" y="669" type="line"/>
      <point x="152" y="620"/>
      <point x="158" y="365"/>
      <point x="158" y="344" type="qcurve" smooth="yes"/>
      <point x="158" y="0" type="line"/>
      <point x="108" y="0" type="line"/>
      <point x="108" y="700" type="line"/>
      <point x="154" y="700" type="line"/>
      <point x="640" y="63" type="line"/>
      <point x="628" y="37" type="line"/>
      <point x="624" y="79"/>
      <point x="624" y="301"/>
    </contour>
  </outline>
</glyph>
<glyph name="won" format="2">
  <advance width="967"/>
  <unicode hex="20A9"/>
  <anchor x="484" y="0" name="bottom"/>
  <anchor x="484" y="700.0" name="top"/>
  <outline>
    <contour>
      <point x="169" y="328" type="line"/>
      <point x="56" y="328" type="line"/>
      <point x="56" y="376" type="line"/>
      <point x="162" y="376" type="line"/>
      <point x="186" y="374" type="line"/>
      <point x="778" y="374" type="line"/>
      <point x="807" y="376" type="line"/>
      <point x="917" y="376" type="line"/>
      <point x="917" y="328" type="line"/>
      <point x="802" y="328" type="line"/>
      <point x="778" y="330" type="line"/>
      <point x="195" y="330" type="line"/>
    </contour>
    <contour>
      <point x="251" y="0" type="line"/>
      <point x="50" y="700" type="line"/>
      <point x="106" y="700" type="line"/>
      <point x="241" y="216" type="line" smooth="yes"/>
      <point x="259" y="153"/>
      <point x="274" y="96"/>
      <point x="285" y="38" type="qcurve"/>
      <point x="279" y="38" type="line"/>
      <point x="296" y="96"/>
      <point x="320" y="160"/>
      <point x="344" y="222" type="qcurve" smooth="yes"/>
      <point x="454" y="502" type="line"/>
      <point x="505" y="502" type="line"/>
      <point x="622" y="216" type="line" smooth="yes"/>
      <point x="649" y="151"/>
      <point x="674" y="96"/>
      <point x="687" y="38" type="qcurve"/>
      <point x="681" y="38" type="line"/>
      <point x="693" y="96"/>
      <point x="706" y="152"/>
      <point x="726" y="222" type="qcurve" smooth="yes"/>
      <point x="863" y="700" type="line"/>
      <point x="917" y="700" type="line"/>
      <point x="714" y="0" type="line"/>
      <point x="659" y="0" type="line"/>
      <point x="466" y="461" type="line"/>
      <point x="492" y="460" type="line"/>
      <point x="306" y="0" type="line"/>
    </contour>
  </outline>
</glyph>
<glyph name="dong" format="2">
  <advance width="491"/>
  <unicode hex="20AB"/>
  <outline>
    <contour>
      <point x="205.0" y="146.0" type="qcurve"/>
      <point x="139" y="146.0"/>
      <point x="40.0" y="244"/>
      <point x="40.0" y="321.0" type="qcurve"/>
      <point x="40.0" y="395.0"/>
      <point x="139.80645161290323" y="497.0"/>
      <point x="210.0" y="497.0" type="qcurve"/>
      <point x="271.3220338983051" y="497.0"/>
      <point x="361.0167309062111" y="432.9148244774709"/>
      <point x="372.0" y="377.0" type="qcurve"/>
      <point x="343.0" y="404.0" type="line"/>
      <point x="343.0" y="700.0" type="line"/>
      <point x="392.0" y="700.0" type="line"/>
      <point x="392.0" y="156.0" type="line"/>
      <point x="343.0" y="156.0" type="line"/>
      <point x="343.0" y="266.0" type="line"/>
      <point x="363.0" y="262.0" type="line"/>
      <point x="363.0" y="223.0"/>
      <point x="268" y="146.0"/>
    </contour>
    <contour>
      <point x="89.0" y="321.0" type="qcurve"/>
      <point x="89.0" y="266.304"/>
      <point x="160.4418604651163" y="192.0"/>
      <point x="217.0" y="192.0" type="qcurve"/>
      <point x="270.4140625" y="192.0"/>
      <point x="346.0" y="269.1968503937008"/>
      <point x="346.0" y="321.0" type="qcurve"/>
      <point x="346.0" y="374.0"/>
      <point x="273.13846153846157" y="449.0"/>
      <point x="218.0" y="449.0" type="qcurve"/>
      <point x="161.11811023622047" y="449.0"/>
      <point x="89.0" y="376.8730158730159"/>
    </contour>
    <contour>
      <point x="430.0" y="0.0" type="line"/>
      <point x="41.0" y="0.0" type="line"/>
      <point x="41.0" y="48.0" type="line"/>
      <point x="430.0" y="48.0" type="line"/>
    </contour>
    <contour>
      <point x="466.0" y="568.0" type="line"/>
      <point x="203.0" y="568.0" type="line"/>
      <point x="203.0" y="614.0" type="line"/>
      <point x="466.0" y="614.0" type="line"/>
    </contour>
  </outline>
</glyph>
<glyph name="peso" format="2">
  <advance width="775"/>
  <unicode hex="20B1"/>
  <anchor x="401.0" y="0" name="bottom"/>
  <anchor x="401.0" y="700.0" name="top"/>
  <outline>
    <contour>
      <point x="203.0" y="408.0" type="line"/>
      <point x="90.0" y="408.0" type="line"/>
      <point x="90.0" y="456.0" type="line"/>
      <point x="206.0" y="456.0" type="line"/>
      <point x="229.0" y="456.0" type="line"/>
      <point x="553.0" y="456.0" type="line"/>
      <point x="588.0" y="456.0" type="line"/>
      <point x="705.0" y="456.0" type="line"/>
      <point x="705.0" y="408.0" type="line"/>
      <point x="583.0" y="408.0" type="line"/>
      <point x="551.0" y="408.0" type="line"/>
      <point x="227.0" y="408.0" type="line"/>
    </contour>
    <contour>
      <point x="204.0" y="517.0" type="line"/>
      <point x="90.0" y="517.0" type="line"/>
      <point x="90.0" y="565.0" type="line"/>
      <point x="209.0" y="565.0" type="line"/>
      <point x="231.0" y="565.0" type="line"/>
      <point x="547.0" y="565.0" type="line"/>
      <point x="584.0" y="565.0" type="line"/>
      <point x="705.0" y="565.0" type="line"/>
      <point x="705.0" y="517.0" type="line"/>
      <point x="589.0" y="517.0" type="line"/>
      <point x="553.0" y="517.0" type="line"/>
      <point x="230.0" y="517.0" type="line"/>
    </contour>
    <component base="P" xOffset="80"/>
  </outline>
</glyph>
<glyph name="rupeeIndian" format="2">
  <advance width="561"/>
  <unicode hex="20B9"/>
  <outline>
    <contour>
      <point x="140" y="328" type="line"/>
      <point x="207" y="319" type="line"/>
      <point x="448" y="0" type="line"/>
      <point x="390" y="0" type="line"/>
    </contour>
    <contour>
      <point x="337" y="650" type="line"/>
      <point x="337" y="669" type="line"/>
      <point x="394" y="622"/>
      <point x="432" y="538"/>
      <point x="432" y="489" type="qcurve" smooth="yes"/>
      <point x="432" y="399"/>
      <point x="316" y="288"/>
      <point x="227" y="288" type="qcurve"/>
      <point x="203" y="288" type="line"/>
      <point x="140" y="328" type="line"/>
      <point x="140" y="338" type="line"/>
      <point x="233" y="338" type="line"/>
      <point x="297" y="338"/>
      <point x="379" y="422"/>
      <point x="379" y="487" type="qcurve" smooth="yes"/>
      <point x="379" y="558"/>
      <point x="286" y="650"/>
      <point x="214" y="650" type="qcurve"/>
      <point x="90" y="650" type="line"/>
      <point x="90" y="700" type="line"/>
      <point x="528" y="700" type="line"/>
      <point x="528" y="650" type="line"/>
    </contour>
    <component base="strokeshortcomb" xOffset="213" yOffset="191"/>
  </outline>
</glyph>
<glyph name="manat" format="2">
  <advance width="757"/>
  <unicode hex="20BC"/>
  <guideline x="378.5" y="0" angle="270.0" identifier="vE51QeV0Hn"/>
  <outline>
    <contour>
      <point x="403" y="801" type="line"/>
      <point x="403" y="254" type="line"/>
      <point x="353" y="254" type="line"/>
      <point x="353" y="801" type="line"/>
    </contour>
    <contour>
      <point x="159" y="-7" type="line"/>
      <point x="110" y="-7" type="line"/>
      <point x="110" y="425" type="line"/>
      <point x="110" y="545"/>
      <point x="263" y="700"/>
      <point x="381" y="700" type="qcurve"/>
      <point x="497" y="700"/>
      <point x="647" y="545"/>
      <point x="647" y="425" type="qcurve"/>
      <point x="647" y="-7" type="line"/>
      <point x="597" y="-7" type="line"/>
      <point x="597" y="416" type="line"/>
      <point x="597" y="518"/>
      <point x="475" y="650"/>
      <point x="381" y="650" type="qcurve"/>
      <point x="284" y="650"/>
      <point x="159" y="518"/>
      <point x="159" y="416" type="qcurve"/>
    </contour>
  </outline>
</glyph>
<glyph name="literSign" format="2">
  <advance width="539"/>
  <unicode hex="2113"/>
  <note>
uni2113
</note>
  <outline>
    <contour>
      <point x="307.0" y="43.0" type="qcurve"/>
      <point x="332.3457943925234" y="43.0"/>
      <point x="391" y="67"/>
      <point x="420.0" y="87.0" type="qcurve"/>
      <point x="442.0" y="47.0" type="line"/>
      <point x="410.6706209728736" y="18.43497794585532"/>
      <point x="336" y="-10.0"/>
      <point x="299.0" y="-10.0" type="qcurve"/>
      <point x="223" y="-10.0"/>
      <point x="127.0" y="135.04924242424244"/>
      <point x="127.0" y="247.0" type="qcurve" smooth="yes"/>
      <point x="127.0" y="319.0"/>
      <point x="148.5856658108009" y="482.4750101901652"/>
      <point x="175.0" y="549.0" type="qcurve" smooth="yes"/>
      <point x="213.0" y="644.0"/>
      <point x="322.0" y="747.0"/>
      <point x="388.0" y="748.0" type="qcurve"/>
      <point x="448.0" y="747.0"/>
      <point x="519.0" y="670.0"/>
      <point x="519.0" y="608.0" type="qcurve" smooth="yes"/>
      <point x="519.0" y="536.0"/>
      <point x="434.0" y="361.0"/>
      <point x="359.0" y="281.0" type="qcurve" smooth="yes"/>
      <point x="300.0" y="217.0"/>
      <point x="147.0" y="109.0"/>
      <point x="57.0" y="67.0" type="qcurve"/>
      <point x="33.0" y="110.0" type="line"/>
      <point x="111.42949353114987" y="148.23437809643556"/>
      <point x="242.55694172195936" y="238.56671262936217"/>
      <point x="299.0" y="296.0" type="qcurve" smooth="yes"/>
      <point x="358.152702011187" y="356.1725761837937"/>
      <point x="466.0" y="544.0546075085325"/>
      <point x="466.0" y="612.0" type="qcurve" smooth="yes"/>
      <point x="466.0" y="649.0"/>
      <point x="422.361531860426" y="694.7853152854159"/>
      <point x="387.0" y="698.0" type="qcurve"/>
      <point x="338.1783133407384" y="694.8159769570046"/>
      <point x="245.18292235300845" y="597.5609618825592"/>
      <point x="215.0" y="505.0" type="qcurve" smooth="yes"/>
      <point x="193.41569487267427" y="438.28487506099316"/>
      <point x="180.0" y="290.7037037037037"/>
      <point x="180.0" y="242.0" type="qcurve" smooth="yes"/>
      <point x="180.0" y="154.6611111111111"/>
      <point x="250.13432835820896" y="43.0"/>
    </contour>
  </outline>
</glyph>
<glyph name="numero" format="2">
  <advance width="1177"/>
  <unicode hex="2116"/>
  <anchor x="393.0" y="0" name="bottom"/>
  <anchor x="393.0" y="700.0" name="top"/>
  <outline>
    <contour>
      <point x="1142.0" y="213.0" type="line"/>
      <point x="796.0" y="213.0" type="line"/>
      <point x="796.0" y="259.0" type="line"/>
      <point x="1142.0" y="259.0" type="line"/>
    </contour>
    <contour>
      <point x="959.0" y="708.0" type="qcurve"/>
      <point x="1033.0" y="708.0"/>
      <point x="1133.0" y="606.0"/>
      <point x="1133.0" y="531.0" type="qcurve"/>
      <point x="1133.0" y="457.0"/>
      <point x="1034.0" y="358.0"/>
      <point x="959.0" y="358.0" type="qcurve"/>
      <point x="885.0" y="358.0"/>
      <point x="788.0" y="456.0"/>
      <point x="788.0" y="531.0" type="qcurve"/>
      <point x="788.0" y="607.0"/>
      <point x="886.0" y="708.0"/>
    </contour>
    <contour>
      <point x="959.0" y="401.0" type="qcurve"/>
      <point x="1014.0" y="401.0"/>
      <point x="1082.0" y="473.22222222222223"/>
      <point x="1082.0" y="531.0" type="qcurve"/>
      <point x="1082.0" y="590.8723404255319"/>
      <point x="1014.0" y="665.0"/>
      <point x="959.0" y="665.0" type="qcurve"/>
      <point x="905.0" y="665.0"/>
      <point x="838.0" y="591"/>
      <point x="838.0" y="531.0" type="qcurve"/>
      <point x="838.0" y="473"/>
      <point x="905.0" y="401.0"/>
    </contour>
    <component base="N"/>
  </outline>
</glyph>
<glyph name="trademark" format="2">
  <advance width="740"/>
  <unicode hex="2122"/>
  <note>
trademark
</note>
  <guideline x="418" y="597" angle="0" identifier="RzBBYP0Omb"/>
  <outline>
    <contour>
      <point x="314" y="656" type="line"/>
      <point x="40" y="656" type="line"/>
      <point x="40" y="700" type="line"/>
      <point x="314" y="700" type="line"/>
    </contour>
    <contour>
      <point x="200" y="340" type="line"/>
      <point x="154" y="340" type="line"/>
      <point x="154" y="676" type="line"/>
      <point x="200" y="676" type="line"/>
    </contour>
    <contour>
      <point x="517" y="452" type="line"/>
      <point x="669" y="700" type="line"/>
      <point x="700" y="700" type="line"/>
      <point x="700" y="340" type="line"/>
      <point x="654" y="340" type="line"/>
      <point x="654" y="643" type="line"/>
      <point x="681" y="643" type="line"/>
      <point x="546" y="418" type="line"/>
      <point x="520" y="418" type="line"/>
      <point x="385" y="643" type="line"/>
      <point x="412" y="643" type="line"/>
      <point x="412" y="340" type="line"/>
      <point x="366" y="340" type="line"/>
      <point x="366" y="700" type="line"/>
      <point x="397" y="700" type="line"/>
      <point x="549" y="452" type="line"/>
    </contour>
  </outline>
</glyph>
<glyph name="estimated" format="2">
  <advance width="629"/>
  <unicode hex="212E"/>
  <note>
estimated
</note>
  <guideline x="119" y="329" angle="270" identifier="OiODegNK6I"/>
  <outline>
    <contour>
      <point x="550.0" y="115.0" type="qcurve" smooth="yes"/>
      <point x="503.0" y="47.0"/>
      <point x="397.0" y="-11.0"/>
      <point x="319.0" y="-11.0" type="qcurve" smooth="yes"/>
      <point x="197.0" y="-11.0"/>
      <point x="43.0" y="157.0"/>
      <point x="43.0" y="285.0" type="qcurve" smooth="yes"/>
      <point x="43.0" y="414.0"/>
      <point x="197.0" y="581.0"/>
      <point x="319.0" y="581.0" type="qcurve" smooth="yes"/>
      <point x="436.0" y="581.0"/>
      <point x="587.0" y="431.0"/>
      <point x="595.0" y="309.0" type="qcurve" smooth="yes"/>
      <point x="596.0" y="299.0"/>
      <point x="583.0" y="285.0"/>
      <point x="573.0" y="285.0" type="qcurve"/>
      <point x="113.0" y="285.0" type="line"/>
      <point x="119.0" y="292.0" type="line"/>
      <point x="119.0" y="157.0" type="line" smooth="yes"/>
      <point x="119.0" y="146.0"/>
      <point x="139" y="113"/>
      <point x="160.0" y="92.0" type="qcurve" smooth="yes"/>
      <point x="194" y="57"/>
      <point x="273.0" y="28.0"/>
      <point x="319.0" y="28.0" type="qcurve" smooth="yes"/>
      <point x="385.0" y="28.0"/>
      <point x="481.0" y="82.0"/>
      <point x="517.0" y="139.0" type="qcurve"/>
      <point x="520.0" y="144.0"/>
      <point x="529.0" y="150.0"/>
      <point x="534.0" y="150.0" type="qcurve" smooth="yes"/>
      <point x="543.0" y="150.0"/>
      <point x="556.0" y="139.0"/>
      <point x="556.0" y="130.0" type="qcurve" smooth="yes"/>
      <point x="556.0" y="127.0"/>
      <point x="553.0" y="119.0"/>
    </contour>
    <contour>
      <point x="109.0" y="324.0" type="line"/>
      <point x="531.0" y="324.0" type="line"/>
      <point x="517.0" y="320.0" type="line"/>
      <point x="517.0" y="372.0" type="line" smooth="yes"/>
      <point x="517.0" y="417.0"/>
      <point x="496" y="461"/>
      <point x="479.0" y="478.0" type="qcurve"/>
      <point x="447.0" y="510.0"/>
      <point x="365.0" y="543.0"/>
      <point x="318.0" y="543.0" type="qcurve" smooth="yes"/>
      <point x="271.0" y="543.0"/>
      <point x="186" y="514"/>
      <point x="160.0" y="479.0" type="qcurve" smooth="yes"/>
      <point x="141" y="454"/>
      <point x="119.0" y="421"/>
      <point x="119.0" y="409.0" type="qcurve"/>
      <point x="119.0" y="314.0" type="line"/>
    </contour>
  </outline>
</glyph>
<glyph name="partialdiff" format="2">
  <advance width="590"/>
  <unicode hex="2202"/>
  <note>
partialdiff
</note>
  <outline>
    <contour>
      <point x="550.0" y="280.0" type="qcurve"/>
      <point x="550.0" y="160.0"/>
      <point x="407.0" y="-7.0"/>
      <point x="294.0" y="-7.0" type="qcurve"/>
      <point x="188.0" y="-7.0"/>
      <point x="40.0" y="151.0"/>
      <point x="40.0" y="265.0" type="qcurve"/>
      <point x="40.0" y="375.0"/>
      <point x="187.0" y="536.0"/>
      <point x="282.0" y="536.0" type="qcurve"/>
      <point x="357.17840375586854" y="536.0"/>
      <point x="472.8390110018646" y="459.3253319337319"/>
      <point x="521.0" y="362.0" type="qcurve"/>
      <point x="489.0" y="350.0" type="line"/>
      <point x="482.04045631243656" y="459.3642579474254"/>
      <point x="328" y="665"/>
      <point x="218.0" y="697.0" type="qcurve"/>
      <point x="233.0" y="735.0" type="line"/>
      <point x="295.0" y="722.0"/>
      <point x="415.0" y="629.0"/>
      <point x="462.0" y="558.0" type="qcurve" smooth="yes"/>
      <point x="504.0" y="494.0"/>
      <point x="550.0" y="349.0"/>
    </contour>
    <contour>
      <point x="93.0" y="265.0" type="qcurve"/>
      <point x="93.0" y="171.59016393442622"/>
      <point x="211.0" y="43.0"/>
      <point x="297.0" y="43.0" type="qcurve"/>
      <point x="382.0" y="43.0"/>
      <point x="499.0" y="171.59016393442622"/>
      <point x="499.0" y="265.0" type="qcurve"/>
      <point x="499.0" y="357.7955801104972"/>
      <point x="382.0" y="486.0"/>
      <point x="297.0" y="486.0" type="qcurve"/>
      <point x="211.0" y="486.0"/>
      <point x="93.0" y="359.01657458563534"/>
    </contour>
  </outline>
</glyph>
<glyph name="emptyset" format="2">
  <advance width="621"/>
  <unicode hex="2205"/>
  <note>
emptyset
</note>
  <anchor x="305.0" y="0" name="bottom"/>
  <anchor x="305.0" y="256.0" name="center"/>
  <anchor x="547.0" y="10.0" name="ogonek"/>
  <anchor x="305.0" y="513.0" name="top"/>
  <anchor x="319.0" y="531.0" name="topright"/>
  <outline>
    <contour>
      <point x="80" y="3" type="line"/>
      <point x="43" y="40" type="line"/>
      <point x="540" y="522" type="line"/>
      <point x="574" y="485" type="line"/>
    </contour>
    <contour>
      <point x="300" y="531" type="qcurve"/>
      <point x="417" y="531"/>
      <point x="567" y="380"/>
      <point x="567" y="263" type="qcurve"/>
      <point x="567" y="144"/>
      <point x="417" y="-10"/>
      <point x="300" y="-10" type="qcurve"/>
      <point x="183" y="-10"/>
      <point x="32" y="144"/>
      <point x="32" y="263" type="qcurve"/>
      <point x="32" y="380"/>
      <point x="183" y="531"/>
    </contour>
    <contour>
      <point x="300" y="40" type="qcurve"/>
      <point x="393" y="40"/>
      <point x="514" y="166"/>
      <point x="514" y="263" type="qcurve" smooth="yes"/>
      <point x="514" y="358"/>
      <point x="393" y="481"/>
      <point x="300" y="481" type="qcurve"/>
      <point x="206" y="481"/>
      <point x="85" y="358"/>
      <point x="85" y="263" type="qcurve" smooth="yes"/>
      <point x="85" y="166"/>
      <point x="206" y="40"/>
    </contour>
  </outline>
</glyph>
<glyph name="increment" format="2">
  <advance width="711"/>
  <unicode hex="2206"/>
  <note>
increment
</note>
  <outline>
    <contour>
      <point x="355" y="717" type="line"/>
      <point x="701" y="0" type="line"/>
      <point x="701" y="0" type="line"/>
      <point x="14" y="0" type="line"/>
      <point x="14" y="0" type="line"/>
      <point x="355" y="717" type="line"/>
    </contour>
    <contour>
      <point x="366.0" y="620.0" type="line"/>
      <point x="83.0" y="30.0" type="line"/>
      <point x="82.0" y="50.0" type="line"/>
      <point x="637.0" y="50.0" type="line"/>
      <point x="629.0" y="27.0" type="line"/>
      <point x="344.0" y="620.0" type="line"/>
    </contour>
  </outline>
</glyph>
<glyph name="summation" format="2">
  <advance width="523"/>
  <unicode hex="2211"/>
  <note>
summation
</note>
  <outline>
    <contour>
      <point x="479.0" y="0.0" type="line"/>
      <point x="104.0" y="0.0" type="line"/>
      <point x="73.0" y="79.0" type="line"/>
      <point x="321.0" y="367.0" type="line"/>
      <point x="326.0" y="308.0" type="line"/>
      <point x="76.0" y="605.0" type="line"/>
      <point x="108.0" y="676.0" type="line"/>
      <point x="479.0" y="676.0" type="line"/>
      <point x="479.0" y="626.0" type="line"/>
      <point x="111.0" y="626.0" type="line"/>
      <point x="120.0" y="633.0" type="line"/>
      <point x="360.0" y="346.0" type="line"/>
      <point x="360.0" y="331.0" type="line"/>
      <point x="100.0" y="34.0" type="line"/>
      <point x="104.0" y="50.0" type="line"/>
      <point x="479.0" y="50.0" type="line"/>
    </contour>
  </outline>
</glyph>
<glyph name="divisionslash" format="2">
  <advance width="551"/>
  <unicode hex="2215"/>
  <note>
divisionslash
</note>
  <outline>
    <contour>
      <point x="91.0" y="-107.0" type="line"/>
      <point x="35.0" y="-107.0" type="line"/>
      <point x="459.0" y="756.0" type="line"/>
      <point x="515.0" y="756.0" type="line"/>
    </contour>
  </outline>
</glyph>
<glyph name="approxequal" format="2">
  <advance width="559"/>
  <unicode hex="2248"/>
  <note>
approxequal
</note>
  <outline>
    <contour>
      <point x="384" y="311" type="qcurve"/>
      <point x="369" y="311"/>
      <point x="320" y="324"/>
      <point x="265" y="344" type="qcurve" smooth="yes"/>
      <point x="222" y="361"/>
      <point x="187" y="370"/>
      <point x="177" y="370" type="qcurve" smooth="yes"/>
      <point x="140" y="370.0"/>
      <point x="102.0" y="341.0"/>
      <point x="102" y="313" type="qcurve"/>
      <point x="64" y="313" type="line"/>
      <point x="64.0" y="361.0"/>
      <point x="127" y="415.0"/>
      <point x="187" y="415" type="qcurve"/>
      <point x="203" y="415"/>
      <point x="251" y="402"/>
      <point x="303" y="381" type="qcurve" smooth="yes"/>
      <point x="345" y="365"/>
      <point x="378" y="356"/>
      <point x="387" y="356" type="qcurve"/>
      <point x="420.0" y="356.0"/>
      <point x="453.10184014505745" y="385.75951680873567"/>
      <point x="452" y="410" type="qcurve"/>
      <point x="493" y="410" type="line"/>
      <point x="493.0" y="362.6063829787234"/>
      <point x="437.0" y="311.0"/>
    </contour>
    <contour>
      <point x="384" y="128" type="qcurve"/>
      <point x="369" y="128"/>
      <point x="320" y="141"/>
      <point x="265" y="161" type="qcurve" smooth="yes"/>
      <point x="222" y="178"/>
      <point x="187" y="187"/>
      <point x="177" y="187" type="qcurve" smooth="yes"/>
      <point x="140" y="187.0"/>
      <point x="102.0" y="158.0"/>
      <point x="102" y="130" type="qcurve"/>
      <point x="64" y="130" type="line"/>
      <point x="64.0" y="178.0"/>
      <point x="127" y="232.0"/>
      <point x="187" y="232" type="qcurve"/>
      <point x="203" y="232"/>
      <point x="251" y="219"/>
      <point x="303" y="198" type="qcurve" smooth="yes"/>
      <point x="345" y="182"/>
      <point x="378" y="173"/>
      <point x="387" y="173" type="qcurve"/>
      <point x="420.0" y="173.0"/>
      <point x="453" y="203"/>
      <point x="452" y="227" type="qcurve"/>
      <point x="493" y="227" type="line"/>
      <point x="493.0" y="180"/>
      <point x="437.0" y="128.0"/>
    </contour>
  </outline>
</glyph>
<glyph name="notequal" format="2">
  <advance width="566"/>
  <unicode hex="2260"/>
  <note>
notequal
</note>
  <outline>
    <contour>
      <point x="119" y="43" type="line"/>
      <point x="381" y="525" type="line"/>
      <point x="434" y="525" type="line"/>
      <point x="174" y="43" type="line"/>
    </contour>
    <contour>
      <point x="506" y="345" type="line"/>
      <point x="60" y="345" type="line"/>
      <point x="60" y="393" type="line"/>
      <point x="506" y="393" type="line"/>
    </contour>
    <contour>
      <point x="60" y="175" type="line"/>
      <point x="60" y="223" type="line"/>
      <point x="506" y="223" type="line"/>
      <point x="506" y="175" type="line"/>
    </contour>
  </outline>
</glyph>
<glyph name="lessequal" format="2">
  <advance width="627"/>
  <unicode hex="2264"/>
  <note>
lessequal
</note>
  <guideline x="73" y="-30" angle="270" identifier="0iPKd0qCXd"/>
  <outline>
    <contour>
      <point x="524" y="0" type="line"/>
      <point x="73" y="0" type="line"/>
      <point x="73" y="48" type="line"/>
      <point x="524" y="48" type="line"/>
    </contour>
    <contour>
      <point x="98" y="316" type="line"/>
      <point x="98" y="346" type="line"/>
      <point x="516" y="205" type="line"/>
      <point x="501" y="156" type="line"/>
      <point x="73" y="303" type="line"/>
      <point x="73" y="356" type="line"/>
      <point x="501" y="503" type="line"/>
      <point x="516" y="454" type="line"/>
    </contour>
  </outline>
</glyph>
<glyph name="lozenge" format="2">
  <advance width="596"/>
  <unicode hex="25CA"/>
  <note>
lozenge
</note>
  <outline>
    <contour>
      <point x="299" y="-41" type="line"/>
      <point x="36" y="328" type="line"/>
      <point x="36" y="328" type="line"/>
      <point x="299" y="689" type="line"/>
      <point x="299" y="689" type="line"/>
      <point x="560" y="328" type="line"/>
      <point x="560" y="328" type="line"/>
      <point x="299" y="-41" type="line"/>
    </contour>
    <contour>
      <point x="98.0" y="335.0" type="line"/>
      <point x="318.0" y="17.0" type="line"/>
      <point x="280.0" y="18.0" type="line"/>
      <point x="506.0" y="343.0" type="line"/>
      <point x="508.0" y="310.0" type="line"/>
      <point x="282.0" y="627.0" type="line"/>
      <point x="315.0" y="627.0" type="line"/>
      <point x="91.0" y="316.0" type="line"/>
    </contour>
  </outline>
</glyph>
<glyph name="sad-ar.init" format="2">
  <advance width="1003"/>
  <unicode hex="FEBB"/>
  <outline>
    <contour>
      <point x="916.0" y="0.0" type="qcurve"/>
      <point x="366.0" y="0.0" type="line"/>
      <point x="366.0" y="102.0" type="line"/>
      <point x="833.0" y="102.0" type="line"/>
      <point x="835.0" y="220.0"/>
      <point x="764.0" y="334.0"/>
      <point x="689.0" y="334.0" type="qcurve" smooth="yes"/>
      <point x="605.0" y="334.0"/>
      <point x="430.0" y="169.0"/>
      <point x="348.0" y="12.0" type="qcurve"/>
      <point x="283.0" y="97.0" type="line"/>
      <point x="385.0" y="269.0"/>
      <point x="592.0" y="438.0"/>
      <point x="701.0" y="438.0" type="qcurve" smooth="yes"/>
      <point x="841.0" y="438.0"/>
      <point x="959.0" y="193.0"/>
    </contour>
    <component base="behDotless-ar.medi"/>
  </outline>
</glyph>
<glyph name="tah-ar.init" format="2">
  <advance width="818"/>
  <unicode hex="FEC3"/>
  <outline>
    <contour>
      <point x="731.0" y="0.0" type="qcurve"/>
      <point x="0.0" y="0.0" type="line"/>
      <point x="0.0" y="102.0" type="line"/>
      <point x="648.0" y="102.0" type="line"/>
      <point x="650.0" y="220.0"/>
      <point x="579.0" y="334.0"/>
      <point x="504.0" y="334.0" type="qcurve" smooth="yes"/>
      <point x="420.0" y="334.0"/>
      <point x="245.0" y="169.0"/>
      <point x="163.0" y="12.0" type="qcurve"/>
      <point x="123.0" y="94.0" type="line"/>
      <point x="204.0" y="263.0"/>
      <point x="404.0" y="438.0"/>
      <point x="516.0" y="438.0" type="qcurve" smooth="yes"/>
      <point x="656.0" y="438.0"/>
      <point x="774.0" y="193.0"/>
    </contour>
    <contour>
      <point x="209.0" y="0.0" type="line"/>
      <point x="105.0" y="0.0" type="line"/>
      <point x="105.0" y="738.0" type="line"/>
      <point x="209.0" y="740.0" type="line"/>
    </contour>
  </outline>
</glyph>
